G04 #@! TF.FileFunction,Soldermask,Bot*
%FSLAX46Y46*%
G04 Gerber Fmt 4.6, Leading zero omitted, Abs format (unit mm)*
G04 Created by KiCad (PCBNEW 4.0.3-stable) date 09/30/16 23:12:01*
%MOMM*%
%LPD*%
G01*
G04 APERTURE LIST*
%ADD10C,0.100000*%
%ADD11C,1.800000*%
%ADD12C,2.900000*%
%ADD13C,3.900000*%
%ADD14R,2.432000X2.127200*%
%ADD15O,2.432000X2.127200*%
%ADD16O,1.650000X1.350000*%
%ADD17O,1.400000X1.950000*%
%ADD18C,1.901140*%
%ADD19C,3.399740*%
%ADD20C,1.300000*%
%ADD21R,1.800000X1.800000*%
G04 APERTURE END LIST*
D10*
D11*
X55580000Y-60000000D03*
X56600000Y-61780000D03*
X57620000Y-60000000D03*
X58640000Y-61780000D03*
X59660000Y-60000000D03*
X60680000Y-61780000D03*
X61700000Y-60000000D03*
X62720000Y-61780000D03*
D12*
X67350000Y-60760000D03*
X50950000Y-60760000D03*
D13*
X52800000Y-64320000D03*
X65500000Y-64320000D03*
D14*
X21600000Y-23480000D03*
D15*
X21600000Y-26020000D03*
X21600000Y-28560000D03*
X21600000Y-31100000D03*
X21600000Y-33640000D03*
X21600000Y-36180000D03*
X21600000Y-38720000D03*
X21600000Y-41260000D03*
X21600000Y-43800000D03*
X21600000Y-46340000D03*
X21600000Y-48880000D03*
X21600000Y-51420000D03*
X21600000Y-53960000D03*
X21600000Y-56500000D03*
X21600000Y-59040000D03*
X21600000Y-61580000D03*
D14*
X58346000Y-40868000D03*
D15*
X58346000Y-35788000D03*
X60886000Y-38328000D03*
X58346000Y-38328000D03*
D16*
X43200900Y-24500000D03*
X38200900Y-24500000D03*
D17*
X44200900Y-21800000D03*
X37200900Y-21800000D03*
D18*
X57528000Y-33067000D03*
X60068000Y-33067000D03*
X62100000Y-33067000D03*
X64640000Y-33067000D03*
D19*
X54480000Y-30400000D03*
X68196000Y-30400000D03*
D20*
X35350000Y-69000000D03*
X33650000Y-69000000D03*
D21*
X24800000Y-27100000D03*
D11*
X24800000Y-29100000D03*
X24800000Y-31100000D03*
X24800000Y-33100000D03*
X24800000Y-35100000D03*
X24800000Y-37100000D03*
X24800000Y-39100000D03*
X24800000Y-41100000D03*
X24800000Y-43100000D03*
X24800000Y-45100000D03*
X24800000Y-47100000D03*
X24800000Y-49100000D03*
X24800000Y-51100000D03*
X24800000Y-53100000D03*
X24800000Y-55100000D03*
X24800000Y-57100000D03*
X49200000Y-57100000D03*
X49200000Y-55100000D03*
X49200000Y-53100000D03*
X49200000Y-51100000D03*
X49200000Y-49100000D03*
X49200000Y-47100000D03*
X49200000Y-45100000D03*
X49200000Y-43100000D03*
X49200000Y-41100000D03*
X49200000Y-39100000D03*
X49200000Y-37100000D03*
X49200000Y-35100000D03*
X49200000Y-33100000D03*
X49200000Y-31100000D03*
X49200000Y-29100000D03*
D21*
X49200000Y-27100000D03*
D14*
X51400000Y-26900000D03*
D15*
X51400000Y-29440000D03*
X51400000Y-31980000D03*
X51400000Y-34520000D03*
X51400000Y-37060000D03*
X51400000Y-39600000D03*
X51400000Y-42140000D03*
M02*
