M48
;DRILL file {KiCad 4.0.3-stable} date 09/30/16 23:12:03
;FORMAT={-:-/ absolute / inch / decimal}
FMAT,2
INCH,TZ
T1C0.016
T2C0.020
T3C0.022
T4C0.024
T5C0.031
T6C0.039
T7C0.039
T8C0.040
T9C0.079
T10C0.091
%
G90
G05
M72
T1
X0.8346Y-2.5827
X0.9606Y-2.3268
X1.0079Y-2.4488
X1.0157Y-2.6024
X1.0315Y-2.2559
X1.0433Y-1.7323
X1.0472Y-1.8307
X1.0591Y-2.7165
X1.0709Y-2.0236
X1.1043Y-1.7992
X1.1122Y-2.1732
X1.1181Y-1.5669
X1.126Y-2.0079
X1.1437Y-2.1358
X1.1496Y-2.378
X1.1575Y-2.5866
X1.1594Y-2.4528
X1.1634Y-1.9429
X1.1772Y-2.4173
X1.1811Y-1.8346
X1.185Y-1.6063
X1.2039Y-1.2264
X1.2126Y-1.5433
X1.2323Y-1.7244
X1.2323Y-2.2825
X1.2443Y-2.2127
X1.2638Y-1.8937
X1.2717Y-2.311
X1.2874Y-2.2362
X1.2992Y-1.5433
X1.2992Y-2.5787
X1.3024Y-2.285
X1.314Y-2.1509
X1.3283Y-1.0717
X1.3445Y-1.928
X1.3504Y-1.6969
X1.3504Y-1.7559
X1.3543Y-2.4606
X1.3622Y-2.6378
X1.3701Y-1.3307
X1.378Y-2.4094
X1.3937Y-1.6457
X1.3976Y-1.4252
X1.4094Y-1.8748
X1.4213Y-2.3268
X1.435Y-1.9055
X1.4488Y-1.5394
X1.4488Y-1.8543
X1.4606Y-2.2008
X1.4764Y-2.689
X1.4783Y-1.0807
X1.4882Y-2.0157
X1.4882Y-2.1575
X1.4976Y-1.8535
X1.5Y-2.0551
X1.5079Y-2.7047
X1.5138Y-1.248
X1.5157Y-1.8839
X1.5236Y-1.9528
X1.5551Y-0.9055
X1.5659Y-1.0918
X1.5689Y-1.0108
X1.5748Y-1.122
X1.5748Y-1.4193
X1.5748Y-2.2953
X1.5787Y-2.6024
X1.5879Y-1.609
X1.624Y-0.8287
X1.6299Y-1.2402
X1.6389Y-1.0231
X1.6496Y-2.0236
X1.6535Y-2.2126
X1.6575Y-2.7126
X1.6594Y-1.4941
X1.6742Y-2.0039
X1.7047Y-1.0512
X1.7087Y-2.
X1.7343Y-2.4291
X1.7559Y-2.0197
X1.7622Y-1.7315
X1.7638Y-1.0787
X1.7638Y-2.2185
X1.7717Y-2.4941
X1.776Y-2.6382
X1.7795Y-0.8228
X1.7992Y-2.3691
X1.8346Y-1.9134
X1.8386Y-1.0984
X1.8386Y-2.0846
X1.8476Y-2.2382
X1.8535Y-2.029
X1.8622Y-1.4764
X1.8665Y-1.3394
X1.8693Y-0.8516
X1.878Y-0.8819
X1.878Y-2.1358
X1.8819Y-0.9173
X1.8819Y-1.8209
X1.9008Y-2.6122
X1.9484Y-2.6303
X1.9492Y-2.5945
X1.986Y-0.8777
X2.0177Y-1.8433
X2.0354Y-1.7697
X2.0354Y-2.0524
X2.0709Y-2.2677
X2.074Y-1.8776
X2.0866Y-0.8533
X2.1244Y-0.9579
X2.1417Y-2.2913
X2.1457Y-1.8228
X2.1528Y-2.187
X2.1614Y-1.4843
X2.1772Y-1.7953
X2.1811Y-2.1063
X2.1969Y-1.748
X2.2126Y-0.9114
X2.2323Y-1.0787
X2.2358Y-2.2512
X2.2559Y-1.9882
X2.2638Y-1.7362
X2.2677Y-1.8504
X2.3258Y-2.2175
X2.3268Y-1.2126
X2.3287Y-0.9311
X2.3465Y-1.0177
X2.3858Y-2.2441
X2.4055Y-1.7835
X2.4173Y-2.2441
X2.4291Y-1.378
X2.4882Y-1.0217
X2.4921Y-1.372
X2.5079Y-1.1559
X2.5276Y-1.6417
X2.5472Y-1.5984
X2.5637Y-2.271
X2.5669Y-1.9882
X2.5709Y-1.8661
X2.5768Y-1.372
X2.5856Y-2.2057
X2.6106Y-0.9323
X2.624Y-1.3268
X2.6535Y-1.6496
X2.6535Y-1.8622
X2.6614Y-2.1614
X2.6811Y-1.9606
X2.7059Y-1.3638
X2.7205Y-1.689
T4
X1.1811Y-2.2165
X1.4685Y-2.563
X1.6693Y-2.3268
X1.7126Y-1.7362
X1.8228Y-2.7126
X1.878Y-2.2913
X1.9134Y-2.4134
X2.0512Y-2.2008
T5
X0.9764Y-1.0669
X0.9764Y-1.1457
X0.9764Y-1.2244
X0.9764Y-1.3031
X0.9764Y-1.3819
X0.9764Y-1.4606
X0.9764Y-1.5394
X0.9764Y-1.6181
X0.9764Y-1.6969
X0.9764Y-1.7756
X0.9764Y-1.8543
X0.9764Y-1.9331
X0.9764Y-2.0118
X0.9764Y-2.0906
X0.9764Y-2.1693
X0.9764Y-2.248
X1.937Y-1.0669
X1.937Y-1.1457
X1.937Y-1.2244
X1.937Y-1.3031
X1.937Y-1.3819
X1.937Y-1.4606
X1.937Y-1.5394
X1.937Y-1.6181
X1.937Y-1.6969
X1.937Y-1.7756
X1.937Y-1.8543
X1.937Y-1.9331
X1.937Y-2.0118
X1.937Y-2.0906
X1.937Y-2.1693
X1.937Y-2.248
T6
X2.1882Y-2.3622
X2.2283Y-2.4323
X2.2685Y-2.3622
X2.3087Y-2.4323
X2.3488Y-2.3622
X2.389Y-2.4323
X2.4291Y-2.3622
X2.4693Y-2.4323
T7
X2.2649Y-1.3019
X2.3649Y-1.3019
X2.4449Y-1.3019
X2.5449Y-1.3019
T8
X0.8504Y-0.9244
X0.8504Y-1.0244
X0.8504Y-1.1244
X0.8504Y-1.2244
X0.8504Y-1.3244
X0.8504Y-1.4244
X0.8504Y-1.5244
X0.8504Y-1.6244
X0.8504Y-1.7244
X0.8504Y-1.8244
X0.8504Y-1.9244
X0.8504Y-2.0244
X0.8504Y-2.1244
X0.8504Y-2.2244
X0.8504Y-2.3244
X0.8504Y-2.4244
X2.0236Y-1.0591
X2.0236Y-1.1591
X2.0236Y-1.2591
X2.0236Y-1.3591
X2.0236Y-1.4591
X2.0236Y-1.5591
X2.0236Y-1.6591
X2.2971Y-1.409
X2.2971Y-1.509
X2.2971Y-1.609
X2.3971Y-1.509
T9
X2.0059Y-2.3921
X2.6516Y-2.3921
T10
X2.1449Y-1.1969
X2.6849Y-1.1969
T2
X1.4646Y-0.8455G85X1.4646Y-0.8711
G05
X1.7402Y-0.8455G85X1.7402Y-0.8711
G05
T3
X1.5099Y-0.9646G85X1.4981Y-0.9646
G05
X1.7067Y-0.9646G85X1.6949Y-0.9646
G05
T0
M30
