G04 #@! TF.FileFunction,Legend,Top*
%FSLAX46Y46*%
G04 Gerber Fmt 4.6, Leading zero omitted, Abs format (unit mm)*
G04 Created by KiCad (PCBNEW 4.0.3-stable) date 09/29/16 20:17:23*
%MOMM*%
%LPD*%
G01*
G04 APERTURE LIST*
%ADD10C,0.100000*%
%ADD11C,0.200000*%
%ADD12C,0.150000*%
%ADD13C,0.127000*%
%ADD14C,0.119380*%
%ADD15C,0.075000*%
G04 APERTURE END LIST*
D10*
D11*
X67550000Y-45800000D02*
G75*
G03X67550000Y-45800000I-100000J0D01*
G01*
X67750000Y-45800000D02*
G75*
G03X67750000Y-45800000I-300000J0D01*
G01*
X56650000Y-45000000D02*
X69350000Y-45000000D01*
X69350000Y-51000000D02*
X56650000Y-51000000D01*
X69350000Y-45000000D02*
X69350000Y-51000000D01*
X56650000Y-51000000D02*
X56650000Y-45000000D01*
D12*
X40725000Y-56600000D02*
X40725000Y-54600000D01*
X38675000Y-54600000D02*
X38675000Y-56600000D01*
X66000000Y-39950000D02*
X66000000Y-40650000D01*
X64800000Y-40650000D02*
X64800000Y-39950000D01*
X68400000Y-37350000D02*
X68400000Y-36650000D01*
X69600000Y-36650000D02*
X69600000Y-37350000D01*
X46325000Y-52400000D02*
X46325000Y-50400000D01*
X44275000Y-50400000D02*
X44275000Y-52400000D01*
X69600000Y-42850000D02*
X69600000Y-43550000D01*
X68400000Y-43550000D02*
X68400000Y-42850000D01*
X56400000Y-51475000D02*
X54400000Y-51475000D01*
X54400000Y-53525000D02*
X56400000Y-53525000D01*
X39100000Y-60425000D02*
X41100000Y-60425000D01*
X41100000Y-58375000D02*
X39100000Y-58375000D01*
X26500000Y-47650000D02*
X26500000Y-46950000D01*
X27700000Y-46950000D02*
X27700000Y-47650000D01*
X28100000Y-60600000D02*
X27400000Y-60600000D01*
X27400000Y-59400000D02*
X28100000Y-59400000D01*
X43300000Y-63750000D02*
X43300000Y-63050000D01*
X44500000Y-63050000D02*
X44500000Y-63750000D01*
X44200000Y-59900000D02*
X44900000Y-59900000D01*
X44900000Y-61100000D02*
X44200000Y-61100000D01*
X28500000Y-33200000D02*
X27800000Y-33200000D01*
X27800000Y-32000000D02*
X28500000Y-32000000D01*
X35150000Y-56300000D02*
X35150000Y-57300000D01*
X36850000Y-57300000D02*
X36850000Y-56300000D01*
X27400000Y-49300000D02*
X28100000Y-49300000D01*
X28100000Y-50500000D02*
X27400000Y-50500000D01*
X37800000Y-36143492D02*
X37800000Y-36843492D01*
X36600000Y-36843492D02*
X36600000Y-36143492D01*
X47000000Y-21600000D02*
X47000000Y-22300000D01*
X45800000Y-22300000D02*
X45800000Y-21600000D01*
X38600000Y-36843492D02*
X38600000Y-36143492D01*
X39800000Y-36143492D02*
X39800000Y-36843492D01*
X39650000Y-31200000D02*
X40350000Y-31200000D01*
X40350000Y-32400000D02*
X39650000Y-32400000D01*
X41900000Y-27850000D02*
X41900000Y-27150000D01*
X43100000Y-27150000D02*
X43100000Y-27850000D01*
X69600000Y-52550000D02*
X69600000Y-53250000D01*
X68400000Y-53250000D02*
X68400000Y-52550000D01*
X28500000Y-63300000D02*
X25800000Y-63300000D01*
X28500000Y-64800000D02*
X25800000Y-64800000D01*
X27000000Y-63900000D02*
X27000000Y-64150000D01*
X27000000Y-64150000D02*
X27150000Y-64000000D01*
X27250000Y-64400000D02*
X27250000Y-63700000D01*
X26900000Y-64050000D02*
X26550000Y-64050000D01*
X27250000Y-64050000D02*
X26900000Y-64400000D01*
X26900000Y-64400000D02*
X26900000Y-63700000D01*
X26900000Y-63700000D02*
X27250000Y-64050000D01*
D13*
X48300000Y-65538000D02*
X48300000Y-65334800D01*
X50205000Y-64014000D02*
X50205000Y-68586000D01*
X50205000Y-68586000D02*
X49570000Y-68586000D01*
X46395000Y-66960400D02*
X50205000Y-66960400D01*
X46395000Y-67290600D02*
X50205000Y-67290600D01*
X47030000Y-64014000D02*
X46395000Y-64014000D01*
X46395000Y-64014000D02*
X46395000Y-68586000D01*
X46395000Y-68586000D02*
X47030000Y-68586000D01*
X49570000Y-64014000D02*
X50205000Y-64014000D01*
X48300000Y-66173000D02*
X48774980Y-65538000D01*
X48774980Y-65538000D02*
X48300000Y-65538000D01*
X48300000Y-65538000D02*
X47825020Y-65538000D01*
X47825020Y-65538000D02*
X48300000Y-66173000D01*
X48300000Y-66173000D02*
X48617500Y-66173000D01*
X48617500Y-66173000D02*
X48774980Y-66015520D01*
X48300000Y-66173000D02*
X47982500Y-66173000D01*
X47982500Y-66173000D02*
X47825020Y-66330480D01*
X48300000Y-66173000D02*
X48300000Y-67282980D01*
X33038000Y-63250000D02*
X32834800Y-63250000D01*
X31514000Y-61345000D02*
X36086000Y-61345000D01*
X36086000Y-61345000D02*
X36086000Y-61980000D01*
X34460400Y-65155000D02*
X34460400Y-61345000D01*
X34790600Y-65155000D02*
X34790600Y-61345000D01*
X31514000Y-64520000D02*
X31514000Y-65155000D01*
X31514000Y-65155000D02*
X36086000Y-65155000D01*
X36086000Y-65155000D02*
X36086000Y-64520000D01*
X31514000Y-61980000D02*
X31514000Y-61345000D01*
X33673000Y-63250000D02*
X33038000Y-62775020D01*
X33038000Y-62775020D02*
X33038000Y-63250000D01*
X33038000Y-63250000D02*
X33038000Y-63724980D01*
X33038000Y-63724980D02*
X33673000Y-63250000D01*
X33673000Y-63250000D02*
X33673000Y-62932500D01*
X33673000Y-62932500D02*
X33515520Y-62775020D01*
X33673000Y-63250000D02*
X33673000Y-63567500D01*
X33673000Y-63567500D02*
X33830480Y-63724980D01*
X33673000Y-63250000D02*
X34782980Y-63250000D01*
D12*
X28400000Y-43550000D02*
X31100000Y-43550000D01*
X28400000Y-42050000D02*
X31100000Y-42050000D01*
X29900000Y-42950000D02*
X29900000Y-42700000D01*
X29900000Y-42700000D02*
X29750000Y-42850000D01*
X29650000Y-42450000D02*
X29650000Y-43150000D01*
X30000000Y-42800000D02*
X30350000Y-42800000D01*
X29650000Y-42800000D02*
X30000000Y-42450000D01*
X30000000Y-42450000D02*
X30000000Y-43150000D01*
X30000000Y-43150000D02*
X29650000Y-42800000D01*
D11*
X54800000Y-41100000D02*
G75*
G03X55800000Y-40100000I0J1000000D01*
G01*
X55800000Y-40100000D02*
G75*
G03X54800000Y-39100000I-1000000J0D01*
G01*
X53800000Y-38100000D02*
G75*
G03X54800000Y-39100000I1000000J0D01*
G01*
X54800000Y-37100000D02*
G75*
G03X53800000Y-38100000I0J-1000000D01*
G01*
X67550000Y-62400000D02*
X67550000Y-69700000D01*
X67550000Y-54100000D02*
X67550000Y-59100000D01*
X50750000Y-54100000D02*
X67550000Y-54100000D01*
X50750000Y-59100000D02*
X50750000Y-54100000D01*
X50750000Y-69700000D02*
X50750000Y-62400000D01*
X50750000Y-69700000D02*
X67550000Y-69700000D01*
D12*
X20330000Y-24750000D02*
X20330000Y-62850000D01*
X20330000Y-62850000D02*
X22870000Y-62850000D01*
X22870000Y-62850000D02*
X22870000Y-24750000D01*
X23150000Y-21930000D02*
X23150000Y-23480000D01*
X22870000Y-24750000D02*
X20330000Y-24750000D01*
X20050000Y-23480000D02*
X20050000Y-21930000D01*
X20050000Y-21930000D02*
X23150000Y-21930000D01*
D11*
X59616000Y-37058000D02*
X59616000Y-34518000D01*
X62156000Y-37058000D02*
X59616000Y-37058000D01*
X62156000Y-39598000D02*
X62156000Y-37058000D01*
X59616000Y-39598000D02*
X62156000Y-39598000D01*
X59616000Y-42138000D02*
X59616000Y-39598000D01*
X57076000Y-42138000D02*
X59616000Y-42138000D01*
X57076000Y-39598000D02*
X57076000Y-42138000D01*
D12*
X59616000Y-34518000D02*
X57076000Y-34518000D01*
X57076000Y-34518000D02*
X57076000Y-39598000D01*
D11*
X26000000Y-30300000D02*
X26000000Y-24600000D01*
X28700000Y-30300000D02*
X26000000Y-30300000D01*
X35200000Y-24600000D02*
X35200000Y-30300000D01*
X26000000Y-20200000D02*
X26000000Y-20400000D01*
X35200000Y-20200000D02*
X26000000Y-20200000D01*
X35200000Y-20400000D02*
X35200000Y-20200000D01*
X32500000Y-30300000D02*
X35200000Y-30300000D01*
D12*
X45050900Y-19120000D02*
X36350900Y-19120000D01*
X45050900Y-25525000D02*
X36350900Y-25525000D01*
X36350900Y-25525000D02*
X36350900Y-19120000D01*
X36350900Y-20350000D02*
X45050900Y-20350000D01*
X45050900Y-19120000D02*
X45050900Y-25525000D01*
X53591000Y-34210000D02*
X53591000Y-20113000D01*
X68577000Y-20113000D02*
X68577000Y-34210000D01*
X53591000Y-34210000D02*
X68577000Y-34210000D01*
X53591000Y-20113000D02*
X68577000Y-20113000D01*
X39025000Y-51600000D02*
X39025000Y-50600000D01*
X40375000Y-50600000D02*
X40375000Y-51600000D01*
X42475000Y-55400000D02*
X42475000Y-56400000D01*
X41125000Y-56400000D02*
X41125000Y-55400000D01*
X44275000Y-55400000D02*
X44275000Y-56400000D01*
X42925000Y-56400000D02*
X42925000Y-55400000D01*
X21800000Y-63525000D02*
X22800000Y-63525000D01*
X22800000Y-64875000D02*
X21800000Y-64875000D01*
X40500000Y-69625000D02*
X39500000Y-69625000D01*
X39500000Y-68275000D02*
X40500000Y-68275000D01*
X35800000Y-60475000D02*
X34800000Y-60475000D01*
X34800000Y-59125000D02*
X35800000Y-59125000D01*
X29375000Y-56600000D02*
X29375000Y-57600000D01*
X28025000Y-57600000D02*
X28025000Y-56600000D01*
X32325000Y-44400000D02*
X32325000Y-43400000D01*
X33675000Y-43400000D02*
X33675000Y-44400000D01*
X27575000Y-56600000D02*
X27575000Y-57600000D01*
X26225000Y-57600000D02*
X26225000Y-56600000D01*
X32600000Y-41275000D02*
X31600000Y-41275000D01*
X31600000Y-39925000D02*
X32600000Y-39925000D01*
X44575000Y-66600000D02*
X44575000Y-67600000D01*
X43225000Y-67600000D02*
X43225000Y-66600000D01*
X46325000Y-61200000D02*
X46325000Y-60200000D01*
X47675000Y-60200000D02*
X47675000Y-61200000D01*
X26325000Y-44200000D02*
X26325000Y-43200000D01*
X27675000Y-43200000D02*
X27675000Y-44200000D01*
X30500000Y-45475000D02*
X29500000Y-45475000D01*
X29500000Y-44125000D02*
X30500000Y-44125000D01*
X33325000Y-57300000D02*
X33325000Y-56300000D01*
X34675000Y-56300000D02*
X34675000Y-57300000D01*
X31900000Y-31925000D02*
X32900000Y-31925000D01*
X32900000Y-33275000D02*
X31900000Y-33275000D01*
X45950000Y-43225000D02*
X44950000Y-43225000D01*
X44950000Y-41875000D02*
X45950000Y-41875000D01*
X45725000Y-46850000D02*
X45725000Y-45850000D01*
X47075000Y-45850000D02*
X47075000Y-46850000D01*
X45625000Y-26000000D02*
X45625000Y-25000000D01*
X46975000Y-25000000D02*
X46975000Y-26000000D01*
X34583698Y-39043492D02*
X34583698Y-38043492D01*
X35933698Y-38043492D02*
X35933698Y-39043492D01*
X45475000Y-29300000D02*
X45475000Y-30300000D01*
X44125000Y-30300000D02*
X44125000Y-29300000D01*
X46025000Y-30300000D02*
X46025000Y-29300000D01*
X47375000Y-29300000D02*
X47375000Y-30300000D01*
X36625000Y-32100000D02*
X36625000Y-31100000D01*
X37975000Y-31100000D02*
X37975000Y-32100000D01*
X43175000Y-31100000D02*
X43175000Y-32100000D01*
X41825000Y-32100000D02*
X41825000Y-31100000D01*
X50600000Y-23525000D02*
X51600000Y-23525000D01*
X51600000Y-24875000D02*
X50600000Y-24875000D01*
X45016302Y-38956508D02*
X45016302Y-39956508D01*
X43666302Y-39956508D02*
X43666302Y-38956508D01*
X45466302Y-39956508D02*
X45466302Y-38956508D01*
X46816302Y-38956508D02*
X46816302Y-39956508D01*
X45466302Y-35656508D02*
X45466302Y-34656508D01*
X46816302Y-34656508D02*
X46816302Y-35656508D01*
X45016302Y-34656508D02*
X45016302Y-35656508D01*
X43666302Y-35656508D02*
X43666302Y-34656508D01*
D11*
X28950000Y-65250000D02*
X28950000Y-69850000D01*
X20250000Y-65250000D02*
X28950000Y-65250000D01*
X20250000Y-69850000D02*
X20250000Y-65250000D01*
X28950000Y-69850000D02*
X20250000Y-69850000D01*
X36800000Y-66100000D02*
X36800000Y-70000000D01*
X36350000Y-66100000D02*
X36800000Y-66100000D01*
X30300000Y-66100000D02*
X36350000Y-66100000D01*
X30300000Y-66300000D02*
X30300000Y-66100000D01*
X30300000Y-70000000D02*
X30300000Y-66300000D01*
X36800000Y-70000000D02*
X30300000Y-70000000D01*
D12*
X44150000Y-50700000D02*
G75*
G03X44150000Y-50700000I-100000J0D01*
G01*
X43800000Y-51250000D02*
X43800000Y-50750000D01*
X40900000Y-51250000D02*
X43800000Y-51250000D01*
X40900000Y-50750000D02*
X40900000Y-51250000D01*
X43800000Y-50750000D02*
X40900000Y-50750000D01*
D11*
X50200000Y-58100000D02*
X46100000Y-62200000D01*
X50200000Y-26100000D02*
X50200000Y-58100000D01*
X43600000Y-19500000D02*
X50200000Y-26100000D01*
X23800000Y-19500000D02*
X43600000Y-19500000D01*
X26300000Y-62200000D02*
X46100000Y-62200000D01*
X23800000Y-59600000D02*
X26300000Y-62200000D01*
X23800000Y-19500000D02*
X23800000Y-59600000D01*
D12*
X39750000Y-64400000D02*
G75*
G03X39750000Y-64400000I-100000J0D01*
G01*
X40300000Y-64900000D02*
X39800000Y-64900000D01*
X40300000Y-67800000D02*
X40300000Y-64900000D01*
X39800000Y-67800000D02*
X40300000Y-67800000D01*
X39800000Y-64900000D02*
X39800000Y-67800000D01*
X29800000Y-45700000D02*
G75*
G03X29800000Y-45700000I-100000J0D01*
G01*
X30250000Y-45950000D02*
X29750000Y-45950000D01*
X30250000Y-48850000D02*
X30250000Y-45950000D01*
X29750000Y-48850000D02*
X30250000Y-48850000D01*
X29750000Y-45950000D02*
X29750000Y-48850000D01*
D11*
X30250000Y-58700000D02*
X30350000Y-58700000D01*
X30441421Y-58700000D02*
G75*
G03X30441421Y-58700000I-141421J0D01*
G01*
X30411803Y-58700000D02*
G75*
G03X30411803Y-58700000I-111803J0D01*
G01*
X30411803Y-58700000D02*
G75*
G03X30411803Y-58700000I-111803J0D01*
G01*
X32800000Y-59150000D02*
X31300000Y-59150000D01*
X32800000Y-56250000D02*
X32800000Y-59150000D01*
X29800000Y-56250000D02*
X32800000Y-56250000D01*
X29800000Y-59150000D02*
X29800000Y-56250000D01*
X31300000Y-59150000D02*
X29800000Y-59150000D01*
X26500000Y-40000000D02*
X28000000Y-40000000D01*
X26500000Y-35200000D02*
X26500000Y-40000000D01*
X29500000Y-35200000D02*
X26500000Y-35200000D01*
X29500000Y-40000000D02*
X29500000Y-35200000D01*
X28000000Y-40000000D02*
X29500000Y-40000000D01*
D12*
X30350000Y-36600000D02*
G75*
G03X30350000Y-36600000I-100000J0D01*
G01*
X30750000Y-35950000D02*
X30750000Y-36450000D01*
X33650000Y-35950000D02*
X30750000Y-35950000D01*
X33650000Y-36450000D02*
X33650000Y-35950000D01*
X30750000Y-36450000D02*
X33650000Y-36450000D01*
X41020711Y-28050000D02*
G75*
G03X41020711Y-28050000I-70711J0D01*
G01*
X38500000Y-29150000D02*
X38450000Y-29150000D01*
X38450000Y-29150000D02*
X38450000Y-27550000D01*
X38450000Y-27550000D02*
X38500000Y-27550000D01*
X41350000Y-27550000D02*
X41300000Y-27550000D01*
X41350000Y-27550000D02*
X41350000Y-29150000D01*
X41350000Y-29150000D02*
X41300000Y-29150000D01*
X50870711Y-22800000D02*
G75*
G03X50870711Y-22800000I-70711J0D01*
G01*
X49700000Y-20350000D02*
X49700000Y-20300000D01*
X49700000Y-20300000D02*
X51300000Y-20300000D01*
X51300000Y-20300000D02*
X51300000Y-20350000D01*
X51300000Y-23200000D02*
X51300000Y-23150000D01*
X51300000Y-23200000D02*
X49700000Y-23200000D01*
X49700000Y-23200000D02*
X49700000Y-23150000D01*
X69675000Y-39800000D02*
X69675000Y-40800000D01*
X68325000Y-40800000D02*
X68325000Y-39800000D01*
X66075000Y-36550000D02*
X66075000Y-37550000D01*
X64725000Y-37550000D02*
X64725000Y-36550000D01*
X67875000Y-39800000D02*
X67875000Y-40800000D01*
X66525000Y-40800000D02*
X66525000Y-39800000D01*
X67875000Y-36550000D02*
X67875000Y-37550000D01*
X66525000Y-37550000D02*
X66525000Y-36550000D01*
X56275000Y-49100000D02*
X56275000Y-50100000D01*
X54925000Y-50100000D02*
X54925000Y-49100000D01*
X54475000Y-49100000D02*
X54475000Y-50100000D01*
X53125000Y-50100000D02*
X53125000Y-49100000D01*
X52670000Y-28170000D02*
X52670000Y-43410000D01*
X52670000Y-43410000D02*
X50130000Y-43410000D01*
X50130000Y-43410000D02*
X50130000Y-28170000D01*
X52950000Y-25350000D02*
X52950000Y-26900000D01*
X52670000Y-28170000D02*
X50130000Y-28170000D01*
X49850000Y-26900000D02*
X49850000Y-25350000D01*
X49850000Y-25350000D02*
X52950000Y-25350000D01*
X27475000Y-52750000D02*
X27475000Y-53750000D01*
X26125000Y-53750000D02*
X26125000Y-52750000D01*
X29325000Y-52750000D02*
X29325000Y-53750000D01*
X27975000Y-53750000D02*
X27975000Y-52750000D01*
D11*
X42000000Y-39100000D02*
X42000000Y-39250000D01*
X42050000Y-39200000D02*
G75*
G03X42050000Y-39200000I-50000J0D01*
G01*
X42250000Y-39200000D02*
G75*
G03X42250000Y-39200000I-250000J0D01*
G01*
X42200000Y-39200000D02*
G75*
G03X42200000Y-39200000I-200000J0D01*
G01*
X42111803Y-39200000D02*
G75*
G03X42111803Y-39200000I-111803J0D01*
G01*
X42250000Y-38950000D02*
X42250000Y-39700000D01*
X36750000Y-39700000D02*
X36750000Y-38950000D01*
X36750000Y-38950000D02*
X37500000Y-38950000D01*
X41500000Y-38950000D02*
X42250000Y-38950000D01*
X42250000Y-44500000D02*
X41500000Y-44500000D01*
X42250000Y-43700000D02*
X42250000Y-44500000D01*
X37500000Y-44450000D02*
X36750000Y-44450000D01*
X36750000Y-44450000D02*
X36750000Y-43700000D01*
D12*
X46400000Y-55950000D02*
X46400000Y-56650000D01*
X45200000Y-56650000D02*
X45200000Y-55950000D01*
X69642381Y-48761905D02*
X70451905Y-48761905D01*
X70547143Y-48714286D01*
X70594762Y-48666667D01*
X70642381Y-48571429D01*
X70642381Y-48380952D01*
X70594762Y-48285714D01*
X70547143Y-48238095D01*
X70451905Y-48190476D01*
X69642381Y-48190476D01*
X69975714Y-47285714D02*
X70642381Y-47285714D01*
X69594762Y-47523810D02*
X70309048Y-47761905D01*
X70309048Y-47142857D01*
X42357143Y-55766666D02*
X42404762Y-55814285D01*
X42452381Y-55957142D01*
X42452381Y-56052380D01*
X42404762Y-56195238D01*
X42309524Y-56290476D01*
X42214286Y-56338095D01*
X42023810Y-56385714D01*
X41880952Y-56385714D01*
X41690476Y-56338095D01*
X41595238Y-56290476D01*
X41500000Y-56195238D01*
X41452381Y-56052380D01*
X41452381Y-55957142D01*
X41500000Y-55814285D01*
X41547619Y-55766666D01*
X42452381Y-54814285D02*
X42452381Y-55385714D01*
X42452381Y-55100000D02*
X41452381Y-55100000D01*
X41595238Y-55195238D01*
X41690476Y-55290476D01*
X41738095Y-55385714D01*
X67657143Y-40466666D02*
X67704762Y-40514285D01*
X67752381Y-40657142D01*
X67752381Y-40752380D01*
X67704762Y-40895238D01*
X67609524Y-40990476D01*
X67514286Y-41038095D01*
X67323810Y-41085714D01*
X67180952Y-41085714D01*
X66990476Y-41038095D01*
X66895238Y-40990476D01*
X66800000Y-40895238D01*
X66752381Y-40752380D01*
X66752381Y-40657142D01*
X66800000Y-40514285D01*
X66847619Y-40466666D01*
X67085714Y-39609523D02*
X67752381Y-39609523D01*
X66704762Y-39847619D02*
X67419048Y-40085714D01*
X67419048Y-39466666D01*
X67457143Y-37166666D02*
X67504762Y-37214285D01*
X67552381Y-37357142D01*
X67552381Y-37452380D01*
X67504762Y-37595238D01*
X67409524Y-37690476D01*
X67314286Y-37738095D01*
X67123810Y-37785714D01*
X66980952Y-37785714D01*
X66790476Y-37738095D01*
X66695238Y-37690476D01*
X66600000Y-37595238D01*
X66552381Y-37452380D01*
X66552381Y-37357142D01*
X66600000Y-37214285D01*
X66647619Y-37166666D01*
X66552381Y-36261904D02*
X66552381Y-36738095D01*
X67028571Y-36785714D01*
X66980952Y-36738095D01*
X66933333Y-36642857D01*
X66933333Y-36404761D01*
X66980952Y-36309523D01*
X67028571Y-36261904D01*
X67123810Y-36214285D01*
X67361905Y-36214285D01*
X67457143Y-36261904D01*
X67504762Y-36309523D01*
X67552381Y-36404761D01*
X67552381Y-36642857D01*
X67504762Y-36738095D01*
X67457143Y-36785714D01*
X47957143Y-51566666D02*
X48004762Y-51614285D01*
X48052381Y-51757142D01*
X48052381Y-51852380D01*
X48004762Y-51995238D01*
X47909524Y-52090476D01*
X47814286Y-52138095D01*
X47623810Y-52185714D01*
X47480952Y-52185714D01*
X47290476Y-52138095D01*
X47195238Y-52090476D01*
X47100000Y-51995238D01*
X47052381Y-51852380D01*
X47052381Y-51757142D01*
X47100000Y-51614285D01*
X47147619Y-51566666D01*
X47052381Y-51233333D02*
X47052381Y-50566666D01*
X48052381Y-50995238D01*
X71257143Y-43366666D02*
X71304762Y-43414285D01*
X71352381Y-43557142D01*
X71352381Y-43652380D01*
X71304762Y-43795238D01*
X71209524Y-43890476D01*
X71114286Y-43938095D01*
X70923810Y-43985714D01*
X70780952Y-43985714D01*
X70590476Y-43938095D01*
X70495238Y-43890476D01*
X70400000Y-43795238D01*
X70352381Y-43652380D01*
X70352381Y-43557142D01*
X70400000Y-43414285D01*
X70447619Y-43366666D01*
X70780952Y-42795238D02*
X70733333Y-42890476D01*
X70685714Y-42938095D01*
X70590476Y-42985714D01*
X70542857Y-42985714D01*
X70447619Y-42938095D01*
X70400000Y-42890476D01*
X70352381Y-42795238D01*
X70352381Y-42604761D01*
X70400000Y-42509523D01*
X70447619Y-42461904D01*
X70542857Y-42414285D01*
X70590476Y-42414285D01*
X70685714Y-42461904D01*
X70733333Y-42509523D01*
X70780952Y-42604761D01*
X70780952Y-42795238D01*
X70828571Y-42890476D01*
X70876190Y-42938095D01*
X70971429Y-42985714D01*
X71161905Y-42985714D01*
X71257143Y-42938095D01*
X71304762Y-42890476D01*
X71352381Y-42795238D01*
X71352381Y-42604761D01*
X71304762Y-42509523D01*
X71257143Y-42461904D01*
X71161905Y-42414285D01*
X70971429Y-42414285D01*
X70876190Y-42461904D01*
X70828571Y-42509523D01*
X70780952Y-42604761D01*
X55233334Y-50557143D02*
X55185715Y-50604762D01*
X55042858Y-50652381D01*
X54947620Y-50652381D01*
X54804762Y-50604762D01*
X54709524Y-50509524D01*
X54661905Y-50414286D01*
X54614286Y-50223810D01*
X54614286Y-50080952D01*
X54661905Y-49890476D01*
X54709524Y-49795238D01*
X54804762Y-49700000D01*
X54947620Y-49652381D01*
X55042858Y-49652381D01*
X55185715Y-49700000D01*
X55233334Y-49747619D01*
X55709524Y-50652381D02*
X55900000Y-50652381D01*
X55995239Y-50604762D01*
X56042858Y-50557143D01*
X56138096Y-50414286D01*
X56185715Y-50223810D01*
X56185715Y-49842857D01*
X56138096Y-49747619D01*
X56090477Y-49700000D01*
X55995239Y-49652381D01*
X55804762Y-49652381D01*
X55709524Y-49700000D01*
X55661905Y-49747619D01*
X55614286Y-49842857D01*
X55614286Y-50080952D01*
X55661905Y-50176190D01*
X55709524Y-50223810D01*
X55804762Y-50271429D01*
X55995239Y-50271429D01*
X56090477Y-50223810D01*
X56138096Y-50176190D01*
X56185715Y-50080952D01*
X39457143Y-62057143D02*
X39409524Y-62104762D01*
X39266667Y-62152381D01*
X39171429Y-62152381D01*
X39028571Y-62104762D01*
X38933333Y-62009524D01*
X38885714Y-61914286D01*
X38838095Y-61723810D01*
X38838095Y-61580952D01*
X38885714Y-61390476D01*
X38933333Y-61295238D01*
X39028571Y-61200000D01*
X39171429Y-61152381D01*
X39266667Y-61152381D01*
X39409524Y-61200000D01*
X39457143Y-61247619D01*
X40409524Y-62152381D02*
X39838095Y-62152381D01*
X40123809Y-62152381D02*
X40123809Y-61152381D01*
X40028571Y-61295238D01*
X39933333Y-61390476D01*
X39838095Y-61438095D01*
X41028571Y-61152381D02*
X41123810Y-61152381D01*
X41219048Y-61200000D01*
X41266667Y-61247619D01*
X41314286Y-61342857D01*
X41361905Y-61533333D01*
X41361905Y-61771429D01*
X41314286Y-61961905D01*
X41266667Y-62057143D01*
X41219048Y-62104762D01*
X41123810Y-62152381D01*
X41028571Y-62152381D01*
X40933333Y-62104762D01*
X40885714Y-62057143D01*
X40838095Y-61961905D01*
X40790476Y-61771429D01*
X40790476Y-61533333D01*
X40838095Y-61342857D01*
X40885714Y-61247619D01*
X40933333Y-61200000D01*
X41028571Y-61152381D01*
X25557143Y-47942857D02*
X25604762Y-47990476D01*
X25652381Y-48133333D01*
X25652381Y-48228571D01*
X25604762Y-48371429D01*
X25509524Y-48466667D01*
X25414286Y-48514286D01*
X25223810Y-48561905D01*
X25080952Y-48561905D01*
X24890476Y-48514286D01*
X24795238Y-48466667D01*
X24700000Y-48371429D01*
X24652381Y-48228571D01*
X24652381Y-48133333D01*
X24700000Y-47990476D01*
X24747619Y-47942857D01*
X25652381Y-46990476D02*
X25652381Y-47561905D01*
X25652381Y-47276191D02*
X24652381Y-47276191D01*
X24795238Y-47371429D01*
X24890476Y-47466667D01*
X24938095Y-47561905D01*
X25652381Y-46038095D02*
X25652381Y-46609524D01*
X25652381Y-46323810D02*
X24652381Y-46323810D01*
X24795238Y-46419048D01*
X24890476Y-46514286D01*
X24938095Y-46609524D01*
X27107143Y-62257143D02*
X27059524Y-62304762D01*
X26916667Y-62352381D01*
X26821429Y-62352381D01*
X26678571Y-62304762D01*
X26583333Y-62209524D01*
X26535714Y-62114286D01*
X26488095Y-61923810D01*
X26488095Y-61780952D01*
X26535714Y-61590476D01*
X26583333Y-61495238D01*
X26678571Y-61400000D01*
X26821429Y-61352381D01*
X26916667Y-61352381D01*
X27059524Y-61400000D01*
X27107143Y-61447619D01*
X28059524Y-62352381D02*
X27488095Y-62352381D01*
X27773809Y-62352381D02*
X27773809Y-61352381D01*
X27678571Y-61495238D01*
X27583333Y-61590476D01*
X27488095Y-61638095D01*
X28440476Y-61447619D02*
X28488095Y-61400000D01*
X28583333Y-61352381D01*
X28821429Y-61352381D01*
X28916667Y-61400000D01*
X28964286Y-61447619D01*
X29011905Y-61542857D01*
X29011905Y-61638095D01*
X28964286Y-61780952D01*
X28392857Y-62352381D01*
X29011905Y-62352381D01*
X42357143Y-64042857D02*
X42404762Y-64090476D01*
X42452381Y-64233333D01*
X42452381Y-64328571D01*
X42404762Y-64471429D01*
X42309524Y-64566667D01*
X42214286Y-64614286D01*
X42023810Y-64661905D01*
X41880952Y-64661905D01*
X41690476Y-64614286D01*
X41595238Y-64566667D01*
X41500000Y-64471429D01*
X41452381Y-64328571D01*
X41452381Y-64233333D01*
X41500000Y-64090476D01*
X41547619Y-64042857D01*
X42452381Y-63090476D02*
X42452381Y-63661905D01*
X42452381Y-63376191D02*
X41452381Y-63376191D01*
X41595238Y-63471429D01*
X41690476Y-63566667D01*
X41738095Y-63661905D01*
X41452381Y-62757143D02*
X41452381Y-62138095D01*
X41833333Y-62471429D01*
X41833333Y-62328571D01*
X41880952Y-62233333D01*
X41928571Y-62185714D01*
X42023810Y-62138095D01*
X42261905Y-62138095D01*
X42357143Y-62185714D01*
X42404762Y-62233333D01*
X42452381Y-62328571D01*
X42452381Y-62614286D01*
X42404762Y-62709524D01*
X42357143Y-62757143D01*
X43907143Y-58957143D02*
X43859524Y-59004762D01*
X43716667Y-59052381D01*
X43621429Y-59052381D01*
X43478571Y-59004762D01*
X43383333Y-58909524D01*
X43335714Y-58814286D01*
X43288095Y-58623810D01*
X43288095Y-58480952D01*
X43335714Y-58290476D01*
X43383333Y-58195238D01*
X43478571Y-58100000D01*
X43621429Y-58052381D01*
X43716667Y-58052381D01*
X43859524Y-58100000D01*
X43907143Y-58147619D01*
X44859524Y-59052381D02*
X44288095Y-59052381D01*
X44573809Y-59052381D02*
X44573809Y-58052381D01*
X44478571Y-58195238D01*
X44383333Y-58290476D01*
X44288095Y-58338095D01*
X45716667Y-58385714D02*
X45716667Y-59052381D01*
X45478571Y-58004762D02*
X45240476Y-58719048D01*
X45859524Y-58719048D01*
X27507143Y-34857143D02*
X27459524Y-34904762D01*
X27316667Y-34952381D01*
X27221429Y-34952381D01*
X27078571Y-34904762D01*
X26983333Y-34809524D01*
X26935714Y-34714286D01*
X26888095Y-34523810D01*
X26888095Y-34380952D01*
X26935714Y-34190476D01*
X26983333Y-34095238D01*
X27078571Y-34000000D01*
X27221429Y-33952381D01*
X27316667Y-33952381D01*
X27459524Y-34000000D01*
X27507143Y-34047619D01*
X28459524Y-34952381D02*
X27888095Y-34952381D01*
X28173809Y-34952381D02*
X28173809Y-33952381D01*
X28078571Y-34095238D01*
X27983333Y-34190476D01*
X27888095Y-34238095D01*
X29364286Y-33952381D02*
X28888095Y-33952381D01*
X28840476Y-34428571D01*
X28888095Y-34380952D01*
X28983333Y-34333333D01*
X29221429Y-34333333D01*
X29316667Y-34380952D01*
X29364286Y-34428571D01*
X29411905Y-34523810D01*
X29411905Y-34761905D01*
X29364286Y-34857143D01*
X29316667Y-34904762D01*
X29221429Y-34952381D01*
X28983333Y-34952381D01*
X28888095Y-34904762D01*
X28840476Y-34857143D01*
X34257143Y-57442857D02*
X34304762Y-57490476D01*
X34352381Y-57633333D01*
X34352381Y-57728571D01*
X34304762Y-57871429D01*
X34209524Y-57966667D01*
X34114286Y-58014286D01*
X33923810Y-58061905D01*
X33780952Y-58061905D01*
X33590476Y-58014286D01*
X33495238Y-57966667D01*
X33400000Y-57871429D01*
X33352381Y-57728571D01*
X33352381Y-57633333D01*
X33400000Y-57490476D01*
X33447619Y-57442857D01*
X34352381Y-56490476D02*
X34352381Y-57061905D01*
X34352381Y-56776191D02*
X33352381Y-56776191D01*
X33495238Y-56871429D01*
X33590476Y-56966667D01*
X33638095Y-57061905D01*
X33352381Y-55633333D02*
X33352381Y-55823810D01*
X33400000Y-55919048D01*
X33447619Y-55966667D01*
X33590476Y-56061905D01*
X33780952Y-56109524D01*
X34161905Y-56109524D01*
X34257143Y-56061905D01*
X34304762Y-56014286D01*
X34352381Y-55919048D01*
X34352381Y-55728571D01*
X34304762Y-55633333D01*
X34257143Y-55585714D01*
X34161905Y-55538095D01*
X33923810Y-55538095D01*
X33828571Y-55585714D01*
X33780952Y-55633333D01*
X33733333Y-55728571D01*
X33733333Y-55919048D01*
X33780952Y-56014286D01*
X33828571Y-56061905D01*
X33923810Y-56109524D01*
X27107143Y-48357143D02*
X27059524Y-48404762D01*
X26916667Y-48452381D01*
X26821429Y-48452381D01*
X26678571Y-48404762D01*
X26583333Y-48309524D01*
X26535714Y-48214286D01*
X26488095Y-48023810D01*
X26488095Y-47880952D01*
X26535714Y-47690476D01*
X26583333Y-47595238D01*
X26678571Y-47500000D01*
X26821429Y-47452381D01*
X26916667Y-47452381D01*
X27059524Y-47500000D01*
X27107143Y-47547619D01*
X28059524Y-48452381D02*
X27488095Y-48452381D01*
X27773809Y-48452381D02*
X27773809Y-47452381D01*
X27678571Y-47595238D01*
X27583333Y-47690476D01*
X27488095Y-47738095D01*
X28392857Y-47452381D02*
X29059524Y-47452381D01*
X28630952Y-48452381D01*
X39457143Y-37136349D02*
X39504762Y-37183968D01*
X39552381Y-37326825D01*
X39552381Y-37422063D01*
X39504762Y-37564921D01*
X39409524Y-37660159D01*
X39314286Y-37707778D01*
X39123810Y-37755397D01*
X38980952Y-37755397D01*
X38790476Y-37707778D01*
X38695238Y-37660159D01*
X38600000Y-37564921D01*
X38552381Y-37422063D01*
X38552381Y-37326825D01*
X38600000Y-37183968D01*
X38647619Y-37136349D01*
X39552381Y-36183968D02*
X39552381Y-36755397D01*
X39552381Y-36469683D02*
X38552381Y-36469683D01*
X38695238Y-36564921D01*
X38790476Y-36660159D01*
X38838095Y-36755397D01*
X38980952Y-35612540D02*
X38933333Y-35707778D01*
X38885714Y-35755397D01*
X38790476Y-35803016D01*
X38742857Y-35803016D01*
X38647619Y-35755397D01*
X38600000Y-35707778D01*
X38552381Y-35612540D01*
X38552381Y-35422063D01*
X38600000Y-35326825D01*
X38647619Y-35279206D01*
X38742857Y-35231587D01*
X38790476Y-35231587D01*
X38885714Y-35279206D01*
X38933333Y-35326825D01*
X38980952Y-35422063D01*
X38980952Y-35612540D01*
X39028571Y-35707778D01*
X39076190Y-35755397D01*
X39171429Y-35803016D01*
X39361905Y-35803016D01*
X39457143Y-35755397D01*
X39504762Y-35707778D01*
X39552381Y-35612540D01*
X39552381Y-35422063D01*
X39504762Y-35326825D01*
X39457143Y-35279206D01*
X39361905Y-35231587D01*
X39171429Y-35231587D01*
X39076190Y-35279206D01*
X39028571Y-35326825D01*
X38980952Y-35422063D01*
X48657143Y-22592857D02*
X48704762Y-22640476D01*
X48752381Y-22783333D01*
X48752381Y-22878571D01*
X48704762Y-23021429D01*
X48609524Y-23116667D01*
X48514286Y-23164286D01*
X48323810Y-23211905D01*
X48180952Y-23211905D01*
X47990476Y-23164286D01*
X47895238Y-23116667D01*
X47800000Y-23021429D01*
X47752381Y-22878571D01*
X47752381Y-22783333D01*
X47800000Y-22640476D01*
X47847619Y-22592857D01*
X48752381Y-21640476D02*
X48752381Y-22211905D01*
X48752381Y-21926191D02*
X47752381Y-21926191D01*
X47895238Y-22021429D01*
X47990476Y-22116667D01*
X48038095Y-22211905D01*
X48752381Y-21164286D02*
X48752381Y-20973810D01*
X48704762Y-20878571D01*
X48657143Y-20830952D01*
X48514286Y-20735714D01*
X48323810Y-20688095D01*
X47942857Y-20688095D01*
X47847619Y-20735714D01*
X47800000Y-20783333D01*
X47752381Y-20878571D01*
X47752381Y-21069048D01*
X47800000Y-21164286D01*
X47847619Y-21211905D01*
X47942857Y-21259524D01*
X48180952Y-21259524D01*
X48276190Y-21211905D01*
X48323810Y-21164286D01*
X48371429Y-21069048D01*
X48371429Y-20878571D01*
X48323810Y-20783333D01*
X48276190Y-20735714D01*
X48180952Y-20688095D01*
X37657143Y-37136349D02*
X37704762Y-37183968D01*
X37752381Y-37326825D01*
X37752381Y-37422063D01*
X37704762Y-37564921D01*
X37609524Y-37660159D01*
X37514286Y-37707778D01*
X37323810Y-37755397D01*
X37180952Y-37755397D01*
X36990476Y-37707778D01*
X36895238Y-37660159D01*
X36800000Y-37564921D01*
X36752381Y-37422063D01*
X36752381Y-37326825D01*
X36800000Y-37183968D01*
X36847619Y-37136349D01*
X36847619Y-36755397D02*
X36800000Y-36707778D01*
X36752381Y-36612540D01*
X36752381Y-36374444D01*
X36800000Y-36279206D01*
X36847619Y-36231587D01*
X36942857Y-36183968D01*
X37038095Y-36183968D01*
X37180952Y-36231587D01*
X37752381Y-36803016D01*
X37752381Y-36183968D01*
X36752381Y-35564921D02*
X36752381Y-35469682D01*
X36800000Y-35374444D01*
X36847619Y-35326825D01*
X36942857Y-35279206D01*
X37133333Y-35231587D01*
X37371429Y-35231587D01*
X37561905Y-35279206D01*
X37657143Y-35326825D01*
X37704762Y-35374444D01*
X37752381Y-35469682D01*
X37752381Y-35564921D01*
X37704762Y-35660159D01*
X37657143Y-35707778D01*
X37561905Y-35755397D01*
X37371429Y-35803016D01*
X37133333Y-35803016D01*
X36942857Y-35755397D01*
X36847619Y-35707778D01*
X36800000Y-35660159D01*
X36752381Y-35564921D01*
X39357143Y-30257143D02*
X39309524Y-30304762D01*
X39166667Y-30352381D01*
X39071429Y-30352381D01*
X38928571Y-30304762D01*
X38833333Y-30209524D01*
X38785714Y-30114286D01*
X38738095Y-29923810D01*
X38738095Y-29780952D01*
X38785714Y-29590476D01*
X38833333Y-29495238D01*
X38928571Y-29400000D01*
X39071429Y-29352381D01*
X39166667Y-29352381D01*
X39309524Y-29400000D01*
X39357143Y-29447619D01*
X39738095Y-29447619D02*
X39785714Y-29400000D01*
X39880952Y-29352381D01*
X40119048Y-29352381D01*
X40214286Y-29400000D01*
X40261905Y-29447619D01*
X40309524Y-29542857D01*
X40309524Y-29638095D01*
X40261905Y-29780952D01*
X39690476Y-30352381D01*
X40309524Y-30352381D01*
X41261905Y-30352381D02*
X40690476Y-30352381D01*
X40976190Y-30352381D02*
X40976190Y-29352381D01*
X40880952Y-29495238D01*
X40785714Y-29590476D01*
X40690476Y-29638095D01*
X40957143Y-28142857D02*
X41004762Y-28190476D01*
X41052381Y-28333333D01*
X41052381Y-28428571D01*
X41004762Y-28571429D01*
X40909524Y-28666667D01*
X40814286Y-28714286D01*
X40623810Y-28761905D01*
X40480952Y-28761905D01*
X40290476Y-28714286D01*
X40195238Y-28666667D01*
X40100000Y-28571429D01*
X40052381Y-28428571D01*
X40052381Y-28333333D01*
X40100000Y-28190476D01*
X40147619Y-28142857D01*
X40147619Y-27761905D02*
X40100000Y-27714286D01*
X40052381Y-27619048D01*
X40052381Y-27380952D01*
X40100000Y-27285714D01*
X40147619Y-27238095D01*
X40242857Y-27190476D01*
X40338095Y-27190476D01*
X40480952Y-27238095D01*
X41052381Y-27809524D01*
X41052381Y-27190476D01*
X40147619Y-26809524D02*
X40100000Y-26761905D01*
X40052381Y-26666667D01*
X40052381Y-26428571D01*
X40100000Y-26333333D01*
X40147619Y-26285714D01*
X40242857Y-26238095D01*
X40338095Y-26238095D01*
X40480952Y-26285714D01*
X41052381Y-26857143D01*
X41052381Y-26238095D01*
X71257143Y-53542857D02*
X71304762Y-53590476D01*
X71352381Y-53733333D01*
X71352381Y-53828571D01*
X71304762Y-53971429D01*
X71209524Y-54066667D01*
X71114286Y-54114286D01*
X70923810Y-54161905D01*
X70780952Y-54161905D01*
X70590476Y-54114286D01*
X70495238Y-54066667D01*
X70400000Y-53971429D01*
X70352381Y-53828571D01*
X70352381Y-53733333D01*
X70400000Y-53590476D01*
X70447619Y-53542857D01*
X70447619Y-53161905D02*
X70400000Y-53114286D01*
X70352381Y-53019048D01*
X70352381Y-52780952D01*
X70400000Y-52685714D01*
X70447619Y-52638095D01*
X70542857Y-52590476D01*
X70638095Y-52590476D01*
X70780952Y-52638095D01*
X71352381Y-53209524D01*
X71352381Y-52590476D01*
X70352381Y-52257143D02*
X70352381Y-51638095D01*
X70733333Y-51971429D01*
X70733333Y-51828571D01*
X70780952Y-51733333D01*
X70828571Y-51685714D01*
X70923810Y-51638095D01*
X71161905Y-51638095D01*
X71257143Y-51685714D01*
X71304762Y-51733333D01*
X71352381Y-51828571D01*
X71352381Y-52114286D01*
X71304762Y-52209524D01*
X71257143Y-52257143D01*
X26161905Y-66252381D02*
X26161905Y-65252381D01*
X26400000Y-65252381D01*
X26542858Y-65300000D01*
X26638096Y-65395238D01*
X26685715Y-65490476D01*
X26733334Y-65680952D01*
X26733334Y-65823810D01*
X26685715Y-66014286D01*
X26638096Y-66109524D01*
X26542858Y-66204762D01*
X26400000Y-66252381D01*
X26161905Y-66252381D01*
X27685715Y-66252381D02*
X27114286Y-66252381D01*
X27400000Y-66252381D02*
X27400000Y-65252381D01*
X27304762Y-65395238D01*
X27209524Y-65490476D01*
X27114286Y-65538095D01*
D14*
X51353685Y-67038656D02*
X50352925Y-67038656D01*
X50352925Y-66800380D01*
X50400580Y-66657414D01*
X50495890Y-66562103D01*
X50591201Y-66514448D01*
X50781822Y-66466793D01*
X50924788Y-66466793D01*
X51115409Y-66514448D01*
X51210719Y-66562103D01*
X51306030Y-66657414D01*
X51353685Y-66800380D01*
X51353685Y-67038656D01*
X50448235Y-66085551D02*
X50400580Y-66037896D01*
X50352925Y-65942585D01*
X50352925Y-65704309D01*
X50400580Y-65608999D01*
X50448235Y-65561343D01*
X50543546Y-65513688D01*
X50638856Y-65513688D01*
X50781822Y-65561343D01*
X51353685Y-66133206D01*
X51353685Y-65513688D01*
X45953645Y-70612799D02*
X45953645Y-71184662D01*
X45953645Y-70898731D02*
X44952885Y-70898731D01*
X45095850Y-70994041D01*
X45191161Y-71089352D01*
X45238816Y-71184662D01*
X45953645Y-70183902D02*
X44952885Y-70183902D01*
X45953645Y-69612039D01*
X44952885Y-69612039D01*
X45286471Y-68706590D02*
X45953645Y-68706590D01*
X44905230Y-68944866D02*
X45620058Y-69183142D01*
X45620058Y-68563624D01*
X44952885Y-67991761D02*
X44952885Y-67896450D01*
X45000540Y-67801140D01*
X45048195Y-67753485D01*
X45143506Y-67705829D01*
X45334127Y-67658174D01*
X45572403Y-67658174D01*
X45763024Y-67705829D01*
X45858334Y-67753485D01*
X45905990Y-67801140D01*
X45953645Y-67896450D01*
X45953645Y-67991761D01*
X45905990Y-68087071D01*
X45858334Y-68134727D01*
X45763024Y-68182382D01*
X45572403Y-68230037D01*
X45334127Y-68230037D01*
X45143506Y-68182382D01*
X45048195Y-68134727D01*
X45000540Y-68087071D01*
X44952885Y-67991761D01*
X44952885Y-67038656D02*
X44952885Y-66943345D01*
X45000540Y-66848035D01*
X45048195Y-66800380D01*
X45143506Y-66752724D01*
X45334127Y-66705069D01*
X45572403Y-66705069D01*
X45763024Y-66752724D01*
X45858334Y-66800380D01*
X45905990Y-66848035D01*
X45953645Y-66943345D01*
X45953645Y-67038656D01*
X45905990Y-67133966D01*
X45858334Y-67181622D01*
X45763024Y-67229277D01*
X45572403Y-67276932D01*
X45334127Y-67276932D01*
X45143506Y-67229277D01*
X45048195Y-67181622D01*
X45000540Y-67133966D01*
X44952885Y-67038656D01*
X44952885Y-66371482D02*
X44952885Y-65704309D01*
X45953645Y-66133206D01*
X45572403Y-65323067D02*
X45572403Y-64560583D01*
X45905990Y-64131686D02*
X45953645Y-63988720D01*
X45953645Y-63750444D01*
X45905990Y-63655134D01*
X45858334Y-63607478D01*
X45763024Y-63559823D01*
X45667713Y-63559823D01*
X45572403Y-63607478D01*
X45524748Y-63655134D01*
X45477092Y-63750444D01*
X45429437Y-63941065D01*
X45381782Y-64036376D01*
X45334127Y-64084031D01*
X45238816Y-64131686D01*
X45143506Y-64131686D01*
X45048195Y-64084031D01*
X45000540Y-64036376D01*
X44952885Y-63941065D01*
X44952885Y-63702789D01*
X45000540Y-63559823D01*
X45953645Y-63130926D02*
X44952885Y-63130926D01*
X45667713Y-62797339D01*
X44952885Y-62463752D01*
X45953645Y-62463752D01*
X45953645Y-61987200D02*
X44952885Y-61987200D01*
X44952885Y-61748924D01*
X45000540Y-61605958D01*
X45095850Y-61510647D01*
X45191161Y-61462992D01*
X45381782Y-61415337D01*
X45524748Y-61415337D01*
X45715369Y-61462992D01*
X45810679Y-61510647D01*
X45905990Y-61605958D01*
X45953645Y-61748924D01*
X45953645Y-61987200D01*
X33061344Y-61101765D02*
X33061344Y-60101005D01*
X33299620Y-60101005D01*
X33442586Y-60148660D01*
X33537897Y-60243970D01*
X33585552Y-60339281D01*
X33633207Y-60529902D01*
X33633207Y-60672868D01*
X33585552Y-60863489D01*
X33537897Y-60958799D01*
X33442586Y-61054110D01*
X33299620Y-61101765D01*
X33061344Y-61101765D01*
X33966794Y-60101005D02*
X34586312Y-60101005D01*
X34252725Y-60482247D01*
X34395691Y-60482247D01*
X34491001Y-60529902D01*
X34538657Y-60577557D01*
X34586312Y-60672868D01*
X34586312Y-60911144D01*
X34538657Y-61006454D01*
X34491001Y-61054110D01*
X34395691Y-61101765D01*
X34109759Y-61101765D01*
X34014449Y-61054110D01*
X33966794Y-61006454D01*
X32012929Y-65977597D02*
X32155895Y-66025252D01*
X32203550Y-66072908D01*
X32251205Y-66168218D01*
X32251205Y-66311184D01*
X32203550Y-66406494D01*
X32155895Y-66454150D01*
X32060584Y-66501805D01*
X31679342Y-66501805D01*
X31679342Y-65501045D01*
X32012929Y-65501045D01*
X32108239Y-65548700D01*
X32155895Y-65596355D01*
X32203550Y-65691666D01*
X32203550Y-65786976D01*
X32155895Y-65882287D01*
X32108239Y-65929942D01*
X32012929Y-65977597D01*
X31679342Y-65977597D01*
X32632447Y-65596355D02*
X32680102Y-65548700D01*
X32775413Y-65501045D01*
X33013689Y-65501045D01*
X33108999Y-65548700D01*
X33156655Y-65596355D01*
X33204310Y-65691666D01*
X33204310Y-65786976D01*
X33156655Y-65929942D01*
X32584792Y-66501805D01*
X33204310Y-66501805D01*
X34062104Y-65834631D02*
X34062104Y-66501805D01*
X33823828Y-65453390D02*
X33585552Y-66168218D01*
X34205070Y-66168218D01*
X34776933Y-65501045D02*
X34872244Y-65501045D01*
X34967554Y-65548700D01*
X35015209Y-65596355D01*
X35062865Y-65691666D01*
X35110520Y-65882287D01*
X35110520Y-66120563D01*
X35062865Y-66311184D01*
X35015209Y-66406494D01*
X34967554Y-66454150D01*
X34872244Y-66501805D01*
X34776933Y-66501805D01*
X34681623Y-66454150D01*
X34633967Y-66406494D01*
X34586312Y-66311184D01*
X34538657Y-66120563D01*
X34538657Y-65882287D01*
X34586312Y-65691666D01*
X34633967Y-65596355D01*
X34681623Y-65548700D01*
X34776933Y-65501045D01*
X35491762Y-66215873D02*
X35968314Y-66215873D01*
X35396451Y-66501805D02*
X35730038Y-65501045D01*
X36063625Y-66501805D01*
D12*
X29261905Y-41502381D02*
X29261905Y-40502381D01*
X29500000Y-40502381D01*
X29642858Y-40550000D01*
X29738096Y-40645238D01*
X29785715Y-40740476D01*
X29833334Y-40930952D01*
X29833334Y-41073810D01*
X29785715Y-41264286D01*
X29738096Y-41359524D01*
X29642858Y-41454762D01*
X29500000Y-41502381D01*
X29261905Y-41502381D01*
X30690477Y-40835714D02*
X30690477Y-41502381D01*
X30452381Y-40454762D02*
X30214286Y-41169048D01*
X30833334Y-41169048D01*
X51728571Y-39433333D02*
X51728571Y-39766667D01*
X52252381Y-39766667D02*
X51252381Y-39766667D01*
X51252381Y-39290476D01*
X52252381Y-38385714D02*
X52252381Y-38957143D01*
X52252381Y-38671429D02*
X51252381Y-38671429D01*
X51395238Y-38766667D01*
X51490476Y-38861905D01*
X51538095Y-38957143D01*
X58816667Y-52652381D02*
X58816667Y-53366667D01*
X58769047Y-53509524D01*
X58673809Y-53604762D01*
X58530952Y-53652381D01*
X58435714Y-53652381D01*
X59816667Y-53652381D02*
X59245238Y-53652381D01*
X59530952Y-53652381D02*
X59530952Y-52652381D01*
X59435714Y-52795238D01*
X59340476Y-52890476D01*
X59245238Y-52938095D01*
X42033334Y-44852381D02*
X41557143Y-44852381D01*
X41557143Y-43852381D01*
X42890477Y-44852381D02*
X42319048Y-44852381D01*
X42604762Y-44852381D02*
X42604762Y-43852381D01*
X42509524Y-43995238D01*
X42414286Y-44090476D01*
X42319048Y-44138095D01*
X39933334Y-60402381D02*
X39457143Y-60402381D01*
X39457143Y-59402381D01*
X40219048Y-59497619D02*
X40266667Y-59450000D01*
X40361905Y-59402381D01*
X40600001Y-59402381D01*
X40695239Y-59450000D01*
X40742858Y-59497619D01*
X40790477Y-59592857D01*
X40790477Y-59688095D01*
X40742858Y-59830952D01*
X40171429Y-60402381D01*
X40790477Y-60402381D01*
X33333334Y-49052381D02*
X32857143Y-49052381D01*
X32857143Y-48052381D01*
X33571429Y-48052381D02*
X34190477Y-48052381D01*
X33857143Y-48433333D01*
X34000001Y-48433333D01*
X34095239Y-48480952D01*
X34142858Y-48528571D01*
X34190477Y-48623810D01*
X34190477Y-48861905D01*
X34142858Y-48957143D01*
X34095239Y-49004762D01*
X34000001Y-49052381D01*
X33714286Y-49052381D01*
X33619048Y-49004762D01*
X33571429Y-48957143D01*
X20861905Y-18832381D02*
X20861905Y-17832381D01*
X21242858Y-17832381D01*
X21338096Y-17880000D01*
X21385715Y-17927619D01*
X21433334Y-18022857D01*
X21433334Y-18165714D01*
X21385715Y-18260952D01*
X21338096Y-18308571D01*
X21242858Y-18356190D01*
X20861905Y-18356190D01*
X22385715Y-18832381D02*
X21814286Y-18832381D01*
X22100000Y-18832381D02*
X22100000Y-17832381D01*
X22004762Y-17975238D01*
X21909524Y-18070476D01*
X21814286Y-18118095D01*
X57607905Y-46420381D02*
X57607905Y-45420381D01*
X57988858Y-45420381D01*
X58084096Y-45468000D01*
X58131715Y-45515619D01*
X58179334Y-45610857D01*
X58179334Y-45753714D01*
X58131715Y-45848952D01*
X58084096Y-45896571D01*
X57988858Y-45944190D01*
X57607905Y-45944190D01*
X58512667Y-45420381D02*
X59131715Y-45420381D01*
X58798381Y-45801333D01*
X58941239Y-45801333D01*
X59036477Y-45848952D01*
X59084096Y-45896571D01*
X59131715Y-45991810D01*
X59131715Y-46229905D01*
X59084096Y-46325143D01*
X59036477Y-46372762D01*
X58941239Y-46420381D01*
X58655524Y-46420381D01*
X58560286Y-46372762D01*
X58512667Y-46325143D01*
X29861905Y-32152381D02*
X29861905Y-31152381D01*
X30242858Y-31152381D01*
X30338096Y-31200000D01*
X30385715Y-31247619D01*
X30433334Y-31342857D01*
X30433334Y-31485714D01*
X30385715Y-31580952D01*
X30338096Y-31628571D01*
X30242858Y-31676190D01*
X29861905Y-31676190D01*
X31290477Y-31485714D02*
X31290477Y-32152381D01*
X31052381Y-31104762D02*
X30814286Y-31819048D01*
X31433334Y-31819048D01*
X39961905Y-26839841D02*
X39961905Y-25839841D01*
X40342858Y-25839841D01*
X40438096Y-25887460D01*
X40485715Y-25935079D01*
X40533334Y-26030317D01*
X40533334Y-26173174D01*
X40485715Y-26268412D01*
X40438096Y-26316031D01*
X40342858Y-26363650D01*
X39961905Y-26363650D01*
X41438096Y-25839841D02*
X40961905Y-25839841D01*
X40914286Y-26316031D01*
X40961905Y-26268412D01*
X41057143Y-26220793D01*
X41295239Y-26220793D01*
X41390477Y-26268412D01*
X41438096Y-26316031D01*
X41485715Y-26411270D01*
X41485715Y-26649365D01*
X41438096Y-26744603D01*
X41390477Y-26792222D01*
X41295239Y-26839841D01*
X41057143Y-26839841D01*
X40961905Y-26792222D01*
X40914286Y-26744603D01*
X63902765Y-35867261D02*
X63902765Y-34867261D01*
X64283718Y-34867261D01*
X64378956Y-34914880D01*
X64426575Y-34962499D01*
X64474194Y-35057737D01*
X64474194Y-35200594D01*
X64426575Y-35295832D01*
X64378956Y-35343451D01*
X64283718Y-35391070D01*
X63902765Y-35391070D01*
X65331337Y-34867261D02*
X65140860Y-34867261D01*
X65045622Y-34914880D01*
X64998003Y-34962499D01*
X64902765Y-35105356D01*
X64855146Y-35295832D01*
X64855146Y-35676785D01*
X64902765Y-35772023D01*
X64950384Y-35819642D01*
X65045622Y-35867261D01*
X65236099Y-35867261D01*
X65331337Y-35819642D01*
X65378956Y-35772023D01*
X65426575Y-35676785D01*
X65426575Y-35438690D01*
X65378956Y-35343451D01*
X65331337Y-35295832D01*
X65236099Y-35248213D01*
X65045622Y-35248213D01*
X64950384Y-35295832D01*
X64902765Y-35343451D01*
X64855146Y-35438690D01*
X42052381Y-51266666D02*
X41576190Y-51600000D01*
X42052381Y-51838095D02*
X41052381Y-51838095D01*
X41052381Y-51457142D01*
X41100000Y-51361904D01*
X41147619Y-51314285D01*
X41242857Y-51266666D01*
X41385714Y-51266666D01*
X41480952Y-51314285D01*
X41528571Y-51361904D01*
X41576190Y-51457142D01*
X41576190Y-51838095D01*
X42052381Y-50314285D02*
X42052381Y-50885714D01*
X42052381Y-50600000D02*
X41052381Y-50600000D01*
X41195238Y-50695238D01*
X41290476Y-50790476D01*
X41338095Y-50885714D01*
X40352381Y-56066666D02*
X39876190Y-56400000D01*
X40352381Y-56638095D02*
X39352381Y-56638095D01*
X39352381Y-56257142D01*
X39400000Y-56161904D01*
X39447619Y-56114285D01*
X39542857Y-56066666D01*
X39685714Y-56066666D01*
X39780952Y-56114285D01*
X39828571Y-56161904D01*
X39876190Y-56257142D01*
X39876190Y-56638095D01*
X39685714Y-55209523D02*
X40352381Y-55209523D01*
X39304762Y-55447619D02*
X40019048Y-55685714D01*
X40019048Y-55066666D01*
X42152381Y-56066666D02*
X41676190Y-56400000D01*
X42152381Y-56638095D02*
X41152381Y-56638095D01*
X41152381Y-56257142D01*
X41200000Y-56161904D01*
X41247619Y-56114285D01*
X41342857Y-56066666D01*
X41485714Y-56066666D01*
X41580952Y-56114285D01*
X41628571Y-56161904D01*
X41676190Y-56257142D01*
X41676190Y-56638095D01*
X41152381Y-55161904D02*
X41152381Y-55638095D01*
X41628571Y-55685714D01*
X41580952Y-55638095D01*
X41533333Y-55542857D01*
X41533333Y-55304761D01*
X41580952Y-55209523D01*
X41628571Y-55161904D01*
X41723810Y-55114285D01*
X41961905Y-55114285D01*
X42057143Y-55161904D01*
X42104762Y-55209523D01*
X42152381Y-55304761D01*
X42152381Y-55542857D01*
X42104762Y-55638095D01*
X42057143Y-55685714D01*
X21657143Y-66552381D02*
X21323809Y-66076190D01*
X21085714Y-66552381D02*
X21085714Y-65552381D01*
X21466667Y-65552381D01*
X21561905Y-65600000D01*
X21609524Y-65647619D01*
X21657143Y-65742857D01*
X21657143Y-65885714D01*
X21609524Y-65980952D01*
X21561905Y-66028571D01*
X21466667Y-66076190D01*
X21085714Y-66076190D01*
X22609524Y-66552381D02*
X22038095Y-66552381D01*
X22323809Y-66552381D02*
X22323809Y-65552381D01*
X22228571Y-65695238D01*
X22133333Y-65790476D01*
X22038095Y-65838095D01*
X23228571Y-65552381D02*
X23323810Y-65552381D01*
X23419048Y-65600000D01*
X23466667Y-65647619D01*
X23514286Y-65742857D01*
X23561905Y-65933333D01*
X23561905Y-66171429D01*
X23514286Y-66361905D01*
X23466667Y-66457143D01*
X23419048Y-66504762D01*
X23323810Y-66552381D01*
X23228571Y-66552381D01*
X23133333Y-66504762D01*
X23085714Y-66457143D01*
X23038095Y-66361905D01*
X22990476Y-66171429D01*
X22990476Y-65933333D01*
X23038095Y-65742857D01*
X23085714Y-65647619D01*
X23133333Y-65600000D01*
X23228571Y-65552381D01*
X39357143Y-67502381D02*
X39023809Y-67026190D01*
X38785714Y-67502381D02*
X38785714Y-66502381D01*
X39166667Y-66502381D01*
X39261905Y-66550000D01*
X39309524Y-66597619D01*
X39357143Y-66692857D01*
X39357143Y-66835714D01*
X39309524Y-66930952D01*
X39261905Y-66978571D01*
X39166667Y-67026190D01*
X38785714Y-67026190D01*
X40309524Y-67502381D02*
X39738095Y-67502381D01*
X40023809Y-67502381D02*
X40023809Y-66502381D01*
X39928571Y-66645238D01*
X39833333Y-66740476D01*
X39738095Y-66788095D01*
X40642857Y-66502381D02*
X41261905Y-66502381D01*
X40928571Y-66883333D01*
X41071429Y-66883333D01*
X41166667Y-66930952D01*
X41214286Y-66978571D01*
X41261905Y-67073810D01*
X41261905Y-67311905D01*
X41214286Y-67407143D01*
X41166667Y-67454762D01*
X41071429Y-67502381D01*
X40785714Y-67502381D01*
X40690476Y-67454762D01*
X40642857Y-67407143D01*
X34657143Y-58352381D02*
X34323809Y-57876190D01*
X34085714Y-58352381D02*
X34085714Y-57352381D01*
X34466667Y-57352381D01*
X34561905Y-57400000D01*
X34609524Y-57447619D01*
X34657143Y-57542857D01*
X34657143Y-57685714D01*
X34609524Y-57780952D01*
X34561905Y-57828571D01*
X34466667Y-57876190D01*
X34085714Y-57876190D01*
X35609524Y-58352381D02*
X35038095Y-58352381D01*
X35323809Y-58352381D02*
X35323809Y-57352381D01*
X35228571Y-57495238D01*
X35133333Y-57590476D01*
X35038095Y-57638095D01*
X36466667Y-57685714D02*
X36466667Y-58352381D01*
X36228571Y-57304762D02*
X35990476Y-58019048D01*
X36609524Y-58019048D01*
X27252381Y-57742857D02*
X26776190Y-58076191D01*
X27252381Y-58314286D02*
X26252381Y-58314286D01*
X26252381Y-57933333D01*
X26300000Y-57838095D01*
X26347619Y-57790476D01*
X26442857Y-57742857D01*
X26585714Y-57742857D01*
X26680952Y-57790476D01*
X26728571Y-57838095D01*
X26776190Y-57933333D01*
X26776190Y-58314286D01*
X27252381Y-56790476D02*
X27252381Y-57361905D01*
X27252381Y-57076191D02*
X26252381Y-57076191D01*
X26395238Y-57171429D01*
X26490476Y-57266667D01*
X26538095Y-57361905D01*
X26252381Y-55885714D02*
X26252381Y-56361905D01*
X26728571Y-56409524D01*
X26680952Y-56361905D01*
X26633333Y-56266667D01*
X26633333Y-56028571D01*
X26680952Y-55933333D01*
X26728571Y-55885714D01*
X26823810Y-55838095D01*
X27061905Y-55838095D01*
X27157143Y-55885714D01*
X27204762Y-55933333D01*
X27252381Y-56028571D01*
X27252381Y-56266667D01*
X27204762Y-56361905D01*
X27157143Y-56409524D01*
X35352381Y-44542857D02*
X34876190Y-44876191D01*
X35352381Y-45114286D02*
X34352381Y-45114286D01*
X34352381Y-44733333D01*
X34400000Y-44638095D01*
X34447619Y-44590476D01*
X34542857Y-44542857D01*
X34685714Y-44542857D01*
X34780952Y-44590476D01*
X34828571Y-44638095D01*
X34876190Y-44733333D01*
X34876190Y-45114286D01*
X35352381Y-43590476D02*
X35352381Y-44161905D01*
X35352381Y-43876191D02*
X34352381Y-43876191D01*
X34495238Y-43971429D01*
X34590476Y-44066667D01*
X34638095Y-44161905D01*
X34352381Y-42733333D02*
X34352381Y-42923810D01*
X34400000Y-43019048D01*
X34447619Y-43066667D01*
X34590476Y-43161905D01*
X34780952Y-43209524D01*
X35161905Y-43209524D01*
X35257143Y-43161905D01*
X35304762Y-43114286D01*
X35352381Y-43019048D01*
X35352381Y-42828571D01*
X35304762Y-42733333D01*
X35257143Y-42685714D01*
X35161905Y-42638095D01*
X34923810Y-42638095D01*
X34828571Y-42685714D01*
X34780952Y-42733333D01*
X34733333Y-42828571D01*
X34733333Y-43019048D01*
X34780952Y-43114286D01*
X34828571Y-43161905D01*
X34923810Y-43209524D01*
X25452381Y-57742857D02*
X24976190Y-58076191D01*
X25452381Y-58314286D02*
X24452381Y-58314286D01*
X24452381Y-57933333D01*
X24500000Y-57838095D01*
X24547619Y-57790476D01*
X24642857Y-57742857D01*
X24785714Y-57742857D01*
X24880952Y-57790476D01*
X24928571Y-57838095D01*
X24976190Y-57933333D01*
X24976190Y-58314286D01*
X25452381Y-56790476D02*
X25452381Y-57361905D01*
X25452381Y-57076191D02*
X24452381Y-57076191D01*
X24595238Y-57171429D01*
X24690476Y-57266667D01*
X24738095Y-57361905D01*
X24452381Y-56457143D02*
X24452381Y-55790476D01*
X25452381Y-56219048D01*
X31457143Y-39152381D02*
X31123809Y-38676190D01*
X30885714Y-39152381D02*
X30885714Y-38152381D01*
X31266667Y-38152381D01*
X31361905Y-38200000D01*
X31409524Y-38247619D01*
X31457143Y-38342857D01*
X31457143Y-38485714D01*
X31409524Y-38580952D01*
X31361905Y-38628571D01*
X31266667Y-38676190D01*
X30885714Y-38676190D01*
X32409524Y-39152381D02*
X31838095Y-39152381D01*
X32123809Y-39152381D02*
X32123809Y-38152381D01*
X32028571Y-38295238D01*
X31933333Y-38390476D01*
X31838095Y-38438095D01*
X32980952Y-38580952D02*
X32885714Y-38533333D01*
X32838095Y-38485714D01*
X32790476Y-38390476D01*
X32790476Y-38342857D01*
X32838095Y-38247619D01*
X32885714Y-38200000D01*
X32980952Y-38152381D01*
X33171429Y-38152381D01*
X33266667Y-38200000D01*
X33314286Y-38247619D01*
X33361905Y-38342857D01*
X33361905Y-38390476D01*
X33314286Y-38485714D01*
X33266667Y-38533333D01*
X33171429Y-38580952D01*
X32980952Y-38580952D01*
X32885714Y-38628571D01*
X32838095Y-38676190D01*
X32790476Y-38771429D01*
X32790476Y-38961905D01*
X32838095Y-39057143D01*
X32885714Y-39104762D01*
X32980952Y-39152381D01*
X33171429Y-39152381D01*
X33266667Y-39104762D01*
X33314286Y-39057143D01*
X33361905Y-38961905D01*
X33361905Y-38771429D01*
X33314286Y-38676190D01*
X33266667Y-38628571D01*
X33171429Y-38580952D01*
X42452381Y-67742857D02*
X41976190Y-68076191D01*
X42452381Y-68314286D02*
X41452381Y-68314286D01*
X41452381Y-67933333D01*
X41500000Y-67838095D01*
X41547619Y-67790476D01*
X41642857Y-67742857D01*
X41785714Y-67742857D01*
X41880952Y-67790476D01*
X41928571Y-67838095D01*
X41976190Y-67933333D01*
X41976190Y-68314286D01*
X42452381Y-66790476D02*
X42452381Y-67361905D01*
X42452381Y-67076191D02*
X41452381Y-67076191D01*
X41595238Y-67171429D01*
X41690476Y-67266667D01*
X41738095Y-67361905D01*
X42452381Y-66314286D02*
X42452381Y-66123810D01*
X42404762Y-66028571D01*
X42357143Y-65980952D01*
X42214286Y-65885714D01*
X42023810Y-65838095D01*
X41642857Y-65838095D01*
X41547619Y-65885714D01*
X41500000Y-65933333D01*
X41452381Y-66028571D01*
X41452381Y-66219048D01*
X41500000Y-66314286D01*
X41547619Y-66361905D01*
X41642857Y-66409524D01*
X41880952Y-66409524D01*
X41976190Y-66361905D01*
X42023810Y-66314286D01*
X42071429Y-66219048D01*
X42071429Y-66028571D01*
X42023810Y-65933333D01*
X41976190Y-65885714D01*
X41880952Y-65838095D01*
X49352381Y-61342857D02*
X48876190Y-61676191D01*
X49352381Y-61914286D02*
X48352381Y-61914286D01*
X48352381Y-61533333D01*
X48400000Y-61438095D01*
X48447619Y-61390476D01*
X48542857Y-61342857D01*
X48685714Y-61342857D01*
X48780952Y-61390476D01*
X48828571Y-61438095D01*
X48876190Y-61533333D01*
X48876190Y-61914286D01*
X48447619Y-60961905D02*
X48400000Y-60914286D01*
X48352381Y-60819048D01*
X48352381Y-60580952D01*
X48400000Y-60485714D01*
X48447619Y-60438095D01*
X48542857Y-60390476D01*
X48638095Y-60390476D01*
X48780952Y-60438095D01*
X49352381Y-61009524D01*
X49352381Y-60390476D01*
X48352381Y-59771429D02*
X48352381Y-59676190D01*
X48400000Y-59580952D01*
X48447619Y-59533333D01*
X48542857Y-59485714D01*
X48733333Y-59438095D01*
X48971429Y-59438095D01*
X49161905Y-59485714D01*
X49257143Y-59533333D01*
X49304762Y-59580952D01*
X49352381Y-59676190D01*
X49352381Y-59771429D01*
X49304762Y-59866667D01*
X49257143Y-59914286D01*
X49161905Y-59961905D01*
X48971429Y-60009524D01*
X48733333Y-60009524D01*
X48542857Y-59961905D01*
X48447619Y-59914286D01*
X48400000Y-59866667D01*
X48352381Y-59771429D01*
X29352381Y-44342857D02*
X28876190Y-44676191D01*
X29352381Y-44914286D02*
X28352381Y-44914286D01*
X28352381Y-44533333D01*
X28400000Y-44438095D01*
X28447619Y-44390476D01*
X28542857Y-44342857D01*
X28685714Y-44342857D01*
X28780952Y-44390476D01*
X28828571Y-44438095D01*
X28876190Y-44533333D01*
X28876190Y-44914286D01*
X28447619Y-43961905D02*
X28400000Y-43914286D01*
X28352381Y-43819048D01*
X28352381Y-43580952D01*
X28400000Y-43485714D01*
X28447619Y-43438095D01*
X28542857Y-43390476D01*
X28638095Y-43390476D01*
X28780952Y-43438095D01*
X29352381Y-44009524D01*
X29352381Y-43390476D01*
X29352381Y-42438095D02*
X29352381Y-43009524D01*
X29352381Y-42723810D02*
X28352381Y-42723810D01*
X28495238Y-42819048D01*
X28590476Y-42914286D01*
X28638095Y-43009524D01*
X29357143Y-43352381D02*
X29023809Y-42876190D01*
X28785714Y-43352381D02*
X28785714Y-42352381D01*
X29166667Y-42352381D01*
X29261905Y-42400000D01*
X29309524Y-42447619D01*
X29357143Y-42542857D01*
X29357143Y-42685714D01*
X29309524Y-42780952D01*
X29261905Y-42828571D01*
X29166667Y-42876190D01*
X28785714Y-42876190D01*
X29738095Y-42447619D02*
X29785714Y-42400000D01*
X29880952Y-42352381D01*
X30119048Y-42352381D01*
X30214286Y-42400000D01*
X30261905Y-42447619D01*
X30309524Y-42542857D01*
X30309524Y-42638095D01*
X30261905Y-42780952D01*
X29690476Y-43352381D01*
X30309524Y-43352381D01*
X30642857Y-42352381D02*
X31261905Y-42352381D01*
X30928571Y-42733333D01*
X31071429Y-42733333D01*
X31166667Y-42780952D01*
X31214286Y-42828571D01*
X31261905Y-42923810D01*
X31261905Y-43161905D01*
X31214286Y-43257143D01*
X31166667Y-43304762D01*
X31071429Y-43352381D01*
X30785714Y-43352381D01*
X30690476Y-43304762D01*
X30642857Y-43257143D01*
X36352381Y-57442857D02*
X35876190Y-57776191D01*
X36352381Y-58014286D02*
X35352381Y-58014286D01*
X35352381Y-57633333D01*
X35400000Y-57538095D01*
X35447619Y-57490476D01*
X35542857Y-57442857D01*
X35685714Y-57442857D01*
X35780952Y-57490476D01*
X35828571Y-57538095D01*
X35876190Y-57633333D01*
X35876190Y-58014286D01*
X35447619Y-57061905D02*
X35400000Y-57014286D01*
X35352381Y-56919048D01*
X35352381Y-56680952D01*
X35400000Y-56585714D01*
X35447619Y-56538095D01*
X35542857Y-56490476D01*
X35638095Y-56490476D01*
X35780952Y-56538095D01*
X36352381Y-57109524D01*
X36352381Y-56490476D01*
X35685714Y-55633333D02*
X36352381Y-55633333D01*
X35304762Y-55871429D02*
X36019048Y-56109524D01*
X36019048Y-55490476D01*
X31757143Y-34952381D02*
X31423809Y-34476190D01*
X31185714Y-34952381D02*
X31185714Y-33952381D01*
X31566667Y-33952381D01*
X31661905Y-34000000D01*
X31709524Y-34047619D01*
X31757143Y-34142857D01*
X31757143Y-34285714D01*
X31709524Y-34380952D01*
X31661905Y-34428571D01*
X31566667Y-34476190D01*
X31185714Y-34476190D01*
X32138095Y-34047619D02*
X32185714Y-34000000D01*
X32280952Y-33952381D01*
X32519048Y-33952381D01*
X32614286Y-34000000D01*
X32661905Y-34047619D01*
X32709524Y-34142857D01*
X32709524Y-34238095D01*
X32661905Y-34380952D01*
X32090476Y-34952381D01*
X32709524Y-34952381D01*
X33614286Y-33952381D02*
X33138095Y-33952381D01*
X33090476Y-34428571D01*
X33138095Y-34380952D01*
X33233333Y-34333333D01*
X33471429Y-34333333D01*
X33566667Y-34380952D01*
X33614286Y-34428571D01*
X33661905Y-34523810D01*
X33661905Y-34761905D01*
X33614286Y-34857143D01*
X33566667Y-34904762D01*
X33471429Y-34952381D01*
X33233333Y-34952381D01*
X33138095Y-34904762D01*
X33090476Y-34857143D01*
X44807143Y-41102381D02*
X44473809Y-40626190D01*
X44235714Y-41102381D02*
X44235714Y-40102381D01*
X44616667Y-40102381D01*
X44711905Y-40150000D01*
X44759524Y-40197619D01*
X44807143Y-40292857D01*
X44807143Y-40435714D01*
X44759524Y-40530952D01*
X44711905Y-40578571D01*
X44616667Y-40626190D01*
X44235714Y-40626190D01*
X45188095Y-40197619D02*
X45235714Y-40150000D01*
X45330952Y-40102381D01*
X45569048Y-40102381D01*
X45664286Y-40150000D01*
X45711905Y-40197619D01*
X45759524Y-40292857D01*
X45759524Y-40388095D01*
X45711905Y-40530952D01*
X45140476Y-41102381D01*
X45759524Y-41102381D01*
X46616667Y-40102381D02*
X46426190Y-40102381D01*
X46330952Y-40150000D01*
X46283333Y-40197619D01*
X46188095Y-40340476D01*
X46140476Y-40530952D01*
X46140476Y-40911905D01*
X46188095Y-41007143D01*
X46235714Y-41054762D01*
X46330952Y-41102381D01*
X46521429Y-41102381D01*
X46616667Y-41054762D01*
X46664286Y-41007143D01*
X46711905Y-40911905D01*
X46711905Y-40673810D01*
X46664286Y-40578571D01*
X46616667Y-40530952D01*
X46521429Y-40483333D01*
X46330952Y-40483333D01*
X46235714Y-40530952D01*
X46188095Y-40578571D01*
X46140476Y-40673810D01*
X48752381Y-46992857D02*
X48276190Y-47326191D01*
X48752381Y-47564286D02*
X47752381Y-47564286D01*
X47752381Y-47183333D01*
X47800000Y-47088095D01*
X47847619Y-47040476D01*
X47942857Y-46992857D01*
X48085714Y-46992857D01*
X48180952Y-47040476D01*
X48228571Y-47088095D01*
X48276190Y-47183333D01*
X48276190Y-47564286D01*
X47847619Y-46611905D02*
X47800000Y-46564286D01*
X47752381Y-46469048D01*
X47752381Y-46230952D01*
X47800000Y-46135714D01*
X47847619Y-46088095D01*
X47942857Y-46040476D01*
X48038095Y-46040476D01*
X48180952Y-46088095D01*
X48752381Y-46659524D01*
X48752381Y-46040476D01*
X47752381Y-45707143D02*
X47752381Y-45040476D01*
X48752381Y-45469048D01*
X48652381Y-26142857D02*
X48176190Y-26476191D01*
X48652381Y-26714286D02*
X47652381Y-26714286D01*
X47652381Y-26333333D01*
X47700000Y-26238095D01*
X47747619Y-26190476D01*
X47842857Y-26142857D01*
X47985714Y-26142857D01*
X48080952Y-26190476D01*
X48128571Y-26238095D01*
X48176190Y-26333333D01*
X48176190Y-26714286D01*
X47747619Y-25761905D02*
X47700000Y-25714286D01*
X47652381Y-25619048D01*
X47652381Y-25380952D01*
X47700000Y-25285714D01*
X47747619Y-25238095D01*
X47842857Y-25190476D01*
X47938095Y-25190476D01*
X48080952Y-25238095D01*
X48652381Y-25809524D01*
X48652381Y-25190476D01*
X48080952Y-24619048D02*
X48033333Y-24714286D01*
X47985714Y-24761905D01*
X47890476Y-24809524D01*
X47842857Y-24809524D01*
X47747619Y-24761905D01*
X47700000Y-24714286D01*
X47652381Y-24619048D01*
X47652381Y-24428571D01*
X47700000Y-24333333D01*
X47747619Y-24285714D01*
X47842857Y-24238095D01*
X47890476Y-24238095D01*
X47985714Y-24285714D01*
X48033333Y-24333333D01*
X48080952Y-24428571D01*
X48080952Y-24619048D01*
X48128571Y-24714286D01*
X48176190Y-24761905D01*
X48271429Y-24809524D01*
X48461905Y-24809524D01*
X48557143Y-24761905D01*
X48604762Y-24714286D01*
X48652381Y-24619048D01*
X48652381Y-24428571D01*
X48604762Y-24333333D01*
X48557143Y-24285714D01*
X48461905Y-24238095D01*
X48271429Y-24238095D01*
X48176190Y-24285714D01*
X48128571Y-24333333D01*
X48080952Y-24428571D01*
X37611079Y-39186349D02*
X37134888Y-39519683D01*
X37611079Y-39757778D02*
X36611079Y-39757778D01*
X36611079Y-39376825D01*
X36658698Y-39281587D01*
X36706317Y-39233968D01*
X36801555Y-39186349D01*
X36944412Y-39186349D01*
X37039650Y-39233968D01*
X37087269Y-39281587D01*
X37134888Y-39376825D01*
X37134888Y-39757778D01*
X36706317Y-38805397D02*
X36658698Y-38757778D01*
X36611079Y-38662540D01*
X36611079Y-38424444D01*
X36658698Y-38329206D01*
X36706317Y-38281587D01*
X36801555Y-38233968D01*
X36896793Y-38233968D01*
X37039650Y-38281587D01*
X37611079Y-38853016D01*
X37611079Y-38233968D01*
X37611079Y-37757778D02*
X37611079Y-37567302D01*
X37563460Y-37472063D01*
X37515841Y-37424444D01*
X37372984Y-37329206D01*
X37182508Y-37281587D01*
X36801555Y-37281587D01*
X36706317Y-37329206D01*
X36658698Y-37376825D01*
X36611079Y-37472063D01*
X36611079Y-37662540D01*
X36658698Y-37757778D01*
X36706317Y-37805397D01*
X36801555Y-37853016D01*
X37039650Y-37853016D01*
X37134888Y-37805397D01*
X37182508Y-37757778D01*
X37230127Y-37662540D01*
X37230127Y-37472063D01*
X37182508Y-37376825D01*
X37134888Y-37329206D01*
X37039650Y-37281587D01*
X43352381Y-30442857D02*
X42876190Y-30776191D01*
X43352381Y-31014286D02*
X42352381Y-31014286D01*
X42352381Y-30633333D01*
X42400000Y-30538095D01*
X42447619Y-30490476D01*
X42542857Y-30442857D01*
X42685714Y-30442857D01*
X42780952Y-30490476D01*
X42828571Y-30538095D01*
X42876190Y-30633333D01*
X42876190Y-31014286D01*
X42352381Y-30109524D02*
X42352381Y-29490476D01*
X42733333Y-29823810D01*
X42733333Y-29680952D01*
X42780952Y-29585714D01*
X42828571Y-29538095D01*
X42923810Y-29490476D01*
X43161905Y-29490476D01*
X43257143Y-29538095D01*
X43304762Y-29585714D01*
X43352381Y-29680952D01*
X43352381Y-29966667D01*
X43304762Y-30061905D01*
X43257143Y-30109524D01*
X42352381Y-28871429D02*
X42352381Y-28776190D01*
X42400000Y-28680952D01*
X42447619Y-28633333D01*
X42542857Y-28585714D01*
X42733333Y-28538095D01*
X42971429Y-28538095D01*
X43161905Y-28585714D01*
X43257143Y-28633333D01*
X43304762Y-28680952D01*
X43352381Y-28776190D01*
X43352381Y-28871429D01*
X43304762Y-28966667D01*
X43257143Y-29014286D01*
X43161905Y-29061905D01*
X42971429Y-29109524D01*
X42733333Y-29109524D01*
X42542857Y-29061905D01*
X42447619Y-29014286D01*
X42400000Y-28966667D01*
X42352381Y-28871429D01*
X49052381Y-30442857D02*
X48576190Y-30776191D01*
X49052381Y-31014286D02*
X48052381Y-31014286D01*
X48052381Y-30633333D01*
X48100000Y-30538095D01*
X48147619Y-30490476D01*
X48242857Y-30442857D01*
X48385714Y-30442857D01*
X48480952Y-30490476D01*
X48528571Y-30538095D01*
X48576190Y-30633333D01*
X48576190Y-31014286D01*
X48052381Y-30109524D02*
X48052381Y-29490476D01*
X48433333Y-29823810D01*
X48433333Y-29680952D01*
X48480952Y-29585714D01*
X48528571Y-29538095D01*
X48623810Y-29490476D01*
X48861905Y-29490476D01*
X48957143Y-29538095D01*
X49004762Y-29585714D01*
X49052381Y-29680952D01*
X49052381Y-29966667D01*
X49004762Y-30061905D01*
X48957143Y-30109524D01*
X49052381Y-28538095D02*
X49052381Y-29109524D01*
X49052381Y-28823810D02*
X48052381Y-28823810D01*
X48195238Y-28919048D01*
X48290476Y-29014286D01*
X48338095Y-29109524D01*
X39652381Y-32242857D02*
X39176190Y-32576191D01*
X39652381Y-32814286D02*
X38652381Y-32814286D01*
X38652381Y-32433333D01*
X38700000Y-32338095D01*
X38747619Y-32290476D01*
X38842857Y-32242857D01*
X38985714Y-32242857D01*
X39080952Y-32290476D01*
X39128571Y-32338095D01*
X39176190Y-32433333D01*
X39176190Y-32814286D01*
X38652381Y-31909524D02*
X38652381Y-31290476D01*
X39033333Y-31623810D01*
X39033333Y-31480952D01*
X39080952Y-31385714D01*
X39128571Y-31338095D01*
X39223810Y-31290476D01*
X39461905Y-31290476D01*
X39557143Y-31338095D01*
X39604762Y-31385714D01*
X39652381Y-31480952D01*
X39652381Y-31766667D01*
X39604762Y-31861905D01*
X39557143Y-31909524D01*
X38747619Y-30909524D02*
X38700000Y-30861905D01*
X38652381Y-30766667D01*
X38652381Y-30528571D01*
X38700000Y-30433333D01*
X38747619Y-30385714D01*
X38842857Y-30338095D01*
X38938095Y-30338095D01*
X39080952Y-30385714D01*
X39652381Y-30957143D01*
X39652381Y-30338095D01*
X41052381Y-32242857D02*
X40576190Y-32576191D01*
X41052381Y-32814286D02*
X40052381Y-32814286D01*
X40052381Y-32433333D01*
X40100000Y-32338095D01*
X40147619Y-32290476D01*
X40242857Y-32242857D01*
X40385714Y-32242857D01*
X40480952Y-32290476D01*
X40528571Y-32338095D01*
X40576190Y-32433333D01*
X40576190Y-32814286D01*
X40052381Y-31909524D02*
X40052381Y-31290476D01*
X40433333Y-31623810D01*
X40433333Y-31480952D01*
X40480952Y-31385714D01*
X40528571Y-31338095D01*
X40623810Y-31290476D01*
X40861905Y-31290476D01*
X40957143Y-31338095D01*
X41004762Y-31385714D01*
X41052381Y-31480952D01*
X41052381Y-31766667D01*
X41004762Y-31861905D01*
X40957143Y-31909524D01*
X40052381Y-30957143D02*
X40052381Y-30338095D01*
X40433333Y-30671429D01*
X40433333Y-30528571D01*
X40480952Y-30433333D01*
X40528571Y-30385714D01*
X40623810Y-30338095D01*
X40861905Y-30338095D01*
X40957143Y-30385714D01*
X41004762Y-30433333D01*
X41052381Y-30528571D01*
X41052381Y-30814286D01*
X41004762Y-30909524D01*
X40957143Y-30957143D01*
X50457143Y-26552381D02*
X50123809Y-26076190D01*
X49885714Y-26552381D02*
X49885714Y-25552381D01*
X50266667Y-25552381D01*
X50361905Y-25600000D01*
X50409524Y-25647619D01*
X50457143Y-25742857D01*
X50457143Y-25885714D01*
X50409524Y-25980952D01*
X50361905Y-26028571D01*
X50266667Y-26076190D01*
X49885714Y-26076190D01*
X50790476Y-25552381D02*
X51409524Y-25552381D01*
X51076190Y-25933333D01*
X51219048Y-25933333D01*
X51314286Y-25980952D01*
X51361905Y-26028571D01*
X51409524Y-26123810D01*
X51409524Y-26361905D01*
X51361905Y-26457143D01*
X51314286Y-26504762D01*
X51219048Y-26552381D01*
X50933333Y-26552381D01*
X50838095Y-26504762D01*
X50790476Y-26457143D01*
X52266667Y-25885714D02*
X52266667Y-26552381D01*
X52028571Y-25504762D02*
X51790476Y-26219048D01*
X52409524Y-26219048D01*
X42893683Y-40099365D02*
X42417492Y-40432699D01*
X42893683Y-40670794D02*
X41893683Y-40670794D01*
X41893683Y-40289841D01*
X41941302Y-40194603D01*
X41988921Y-40146984D01*
X42084159Y-40099365D01*
X42227016Y-40099365D01*
X42322254Y-40146984D01*
X42369873Y-40194603D01*
X42417492Y-40289841D01*
X42417492Y-40670794D01*
X41893683Y-39766032D02*
X41893683Y-39146984D01*
X42274635Y-39480318D01*
X42274635Y-39337460D01*
X42322254Y-39242222D01*
X42369873Y-39194603D01*
X42465112Y-39146984D01*
X42703207Y-39146984D01*
X42798445Y-39194603D01*
X42846064Y-39242222D01*
X42893683Y-39337460D01*
X42893683Y-39623175D01*
X42846064Y-39718413D01*
X42798445Y-39766032D01*
X41893683Y-38242222D02*
X41893683Y-38718413D01*
X42369873Y-38766032D01*
X42322254Y-38718413D01*
X42274635Y-38623175D01*
X42274635Y-38385079D01*
X42322254Y-38289841D01*
X42369873Y-38242222D01*
X42465112Y-38194603D01*
X42703207Y-38194603D01*
X42798445Y-38242222D01*
X42846064Y-38289841D01*
X42893683Y-38385079D01*
X42893683Y-38623175D01*
X42846064Y-38718413D01*
X42798445Y-38766032D01*
X48493683Y-40099365D02*
X48017492Y-40432699D01*
X48493683Y-40670794D02*
X47493683Y-40670794D01*
X47493683Y-40289841D01*
X47541302Y-40194603D01*
X47588921Y-40146984D01*
X47684159Y-40099365D01*
X47827016Y-40099365D01*
X47922254Y-40146984D01*
X47969873Y-40194603D01*
X48017492Y-40289841D01*
X48017492Y-40670794D01*
X47493683Y-39766032D02*
X47493683Y-39146984D01*
X47874635Y-39480318D01*
X47874635Y-39337460D01*
X47922254Y-39242222D01*
X47969873Y-39194603D01*
X48065112Y-39146984D01*
X48303207Y-39146984D01*
X48398445Y-39194603D01*
X48446064Y-39242222D01*
X48493683Y-39337460D01*
X48493683Y-39623175D01*
X48446064Y-39718413D01*
X48398445Y-39766032D01*
X47493683Y-38289841D02*
X47493683Y-38480318D01*
X47541302Y-38575556D01*
X47588921Y-38623175D01*
X47731778Y-38718413D01*
X47922254Y-38766032D01*
X48303207Y-38766032D01*
X48398445Y-38718413D01*
X48446064Y-38670794D01*
X48493683Y-38575556D01*
X48493683Y-38385079D01*
X48446064Y-38289841D01*
X48398445Y-38242222D01*
X48303207Y-38194603D01*
X48065112Y-38194603D01*
X47969873Y-38242222D01*
X47922254Y-38289841D01*
X47874635Y-38385079D01*
X47874635Y-38575556D01*
X47922254Y-38670794D01*
X47969873Y-38718413D01*
X48065112Y-38766032D01*
X48493683Y-35799365D02*
X48017492Y-36132699D01*
X48493683Y-36370794D02*
X47493683Y-36370794D01*
X47493683Y-35989841D01*
X47541302Y-35894603D01*
X47588921Y-35846984D01*
X47684159Y-35799365D01*
X47827016Y-35799365D01*
X47922254Y-35846984D01*
X47969873Y-35894603D01*
X48017492Y-35989841D01*
X48017492Y-36370794D01*
X47493683Y-35466032D02*
X47493683Y-34846984D01*
X47874635Y-35180318D01*
X47874635Y-35037460D01*
X47922254Y-34942222D01*
X47969873Y-34894603D01*
X48065112Y-34846984D01*
X48303207Y-34846984D01*
X48398445Y-34894603D01*
X48446064Y-34942222D01*
X48493683Y-35037460D01*
X48493683Y-35323175D01*
X48446064Y-35418413D01*
X48398445Y-35466032D01*
X47493683Y-34513651D02*
X47493683Y-33846984D01*
X48493683Y-34275556D01*
X42893683Y-35799365D02*
X42417492Y-36132699D01*
X42893683Y-36370794D02*
X41893683Y-36370794D01*
X41893683Y-35989841D01*
X41941302Y-35894603D01*
X41988921Y-35846984D01*
X42084159Y-35799365D01*
X42227016Y-35799365D01*
X42322254Y-35846984D01*
X42369873Y-35894603D01*
X42417492Y-35989841D01*
X42417492Y-36370794D01*
X41893683Y-35466032D02*
X41893683Y-34846984D01*
X42274635Y-35180318D01*
X42274635Y-35037460D01*
X42322254Y-34942222D01*
X42369873Y-34894603D01*
X42465112Y-34846984D01*
X42703207Y-34846984D01*
X42798445Y-34894603D01*
X42846064Y-34942222D01*
X42893683Y-35037460D01*
X42893683Y-35323175D01*
X42846064Y-35418413D01*
X42798445Y-35466032D01*
X42322254Y-34275556D02*
X42274635Y-34370794D01*
X42227016Y-34418413D01*
X42131778Y-34466032D01*
X42084159Y-34466032D01*
X41988921Y-34418413D01*
X41941302Y-34370794D01*
X41893683Y-34275556D01*
X41893683Y-34085079D01*
X41941302Y-33989841D01*
X41988921Y-33942222D01*
X42084159Y-33894603D01*
X42131778Y-33894603D01*
X42227016Y-33942222D01*
X42274635Y-33989841D01*
X42322254Y-34085079D01*
X42322254Y-34275556D01*
X42369873Y-34370794D01*
X42417492Y-34418413D01*
X42512731Y-34466032D01*
X42703207Y-34466032D01*
X42798445Y-34418413D01*
X42846064Y-34370794D01*
X42893683Y-34275556D01*
X42893683Y-34085079D01*
X42846064Y-33989841D01*
X42798445Y-33942222D01*
X42703207Y-33894603D01*
X42512731Y-33894603D01*
X42417492Y-33942222D01*
X42369873Y-33989841D01*
X42322254Y-34085079D01*
X23266667Y-64704762D02*
X23409524Y-64752381D01*
X23647620Y-64752381D01*
X23742858Y-64704762D01*
X23790477Y-64657143D01*
X23838096Y-64561905D01*
X23838096Y-64466667D01*
X23790477Y-64371429D01*
X23742858Y-64323810D01*
X23647620Y-64276190D01*
X23457143Y-64228571D01*
X23361905Y-64180952D01*
X23314286Y-64133333D01*
X23266667Y-64038095D01*
X23266667Y-63942857D01*
X23314286Y-63847619D01*
X23361905Y-63800000D01*
X23457143Y-63752381D01*
X23695239Y-63752381D01*
X23838096Y-63800000D01*
X24171429Y-63752381D02*
X24409524Y-64752381D01*
X24600001Y-64038095D01*
X24790477Y-64752381D01*
X25028572Y-63752381D01*
X25933334Y-64752381D02*
X25361905Y-64752381D01*
X25647619Y-64752381D02*
X25647619Y-63752381D01*
X25552381Y-63895238D01*
X25457143Y-63990476D01*
X25361905Y-64038095D01*
X32566667Y-65004762D02*
X32709524Y-65052381D01*
X32947620Y-65052381D01*
X33042858Y-65004762D01*
X33090477Y-64957143D01*
X33138096Y-64861905D01*
X33138096Y-64766667D01*
X33090477Y-64671429D01*
X33042858Y-64623810D01*
X32947620Y-64576190D01*
X32757143Y-64528571D01*
X32661905Y-64480952D01*
X32614286Y-64433333D01*
X32566667Y-64338095D01*
X32566667Y-64242857D01*
X32614286Y-64147619D01*
X32661905Y-64100000D01*
X32757143Y-64052381D01*
X32995239Y-64052381D01*
X33138096Y-64100000D01*
X33471429Y-64052381D02*
X33709524Y-65052381D01*
X33900001Y-64338095D01*
X34090477Y-65052381D01*
X34328572Y-64052381D01*
X34661905Y-64147619D02*
X34709524Y-64100000D01*
X34804762Y-64052381D01*
X35042858Y-64052381D01*
X35138096Y-64100000D01*
X35185715Y-64147619D01*
X35233334Y-64242857D01*
X35233334Y-64338095D01*
X35185715Y-64480952D01*
X34614286Y-65052381D01*
X35233334Y-65052381D01*
X44352381Y-51711905D02*
X45161905Y-51711905D01*
X45257143Y-51664286D01*
X45304762Y-51616667D01*
X45352381Y-51521429D01*
X45352381Y-51330952D01*
X45304762Y-51235714D01*
X45257143Y-51188095D01*
X45161905Y-51140476D01*
X44352381Y-51140476D01*
X44352381Y-50759524D02*
X44352381Y-50140476D01*
X44733333Y-50473810D01*
X44733333Y-50330952D01*
X44780952Y-50235714D01*
X44828571Y-50188095D01*
X44923810Y-50140476D01*
X45161905Y-50140476D01*
X45257143Y-50188095D01*
X45304762Y-50235714D01*
X45352381Y-50330952D01*
X45352381Y-50616667D01*
X45304762Y-50711905D01*
X45257143Y-50759524D01*
X39288095Y-62902381D02*
X39288095Y-63711905D01*
X39335714Y-63807143D01*
X39383333Y-63854762D01*
X39478571Y-63902381D01*
X39669048Y-63902381D01*
X39764286Y-63854762D01*
X39811905Y-63807143D01*
X39859524Y-63711905D01*
X39859524Y-62902381D01*
X40478571Y-63330952D02*
X40383333Y-63283333D01*
X40335714Y-63235714D01*
X40288095Y-63140476D01*
X40288095Y-63092857D01*
X40335714Y-62997619D01*
X40383333Y-62950000D01*
X40478571Y-62902381D01*
X40669048Y-62902381D01*
X40764286Y-62950000D01*
X40811905Y-62997619D01*
X40859524Y-63092857D01*
X40859524Y-63140476D01*
X40811905Y-63235714D01*
X40764286Y-63283333D01*
X40669048Y-63330952D01*
X40478571Y-63330952D01*
X40383333Y-63378571D01*
X40335714Y-63426190D01*
X40288095Y-63521429D01*
X40288095Y-63711905D01*
X40335714Y-63807143D01*
X40383333Y-63854762D01*
X40478571Y-63902381D01*
X40669048Y-63902381D01*
X40764286Y-63854762D01*
X40811905Y-63807143D01*
X40859524Y-63711905D01*
X40859524Y-63521429D01*
X40811905Y-63426190D01*
X40764286Y-63378571D01*
X40669048Y-63330952D01*
X29188095Y-44302381D02*
X29188095Y-45111905D01*
X29235714Y-45207143D01*
X29283333Y-45254762D01*
X29378571Y-45302381D01*
X29569048Y-45302381D01*
X29664286Y-45254762D01*
X29711905Y-45207143D01*
X29759524Y-45111905D01*
X29759524Y-44302381D01*
X30283333Y-45302381D02*
X30473809Y-45302381D01*
X30569048Y-45254762D01*
X30616667Y-45207143D01*
X30711905Y-45064286D01*
X30759524Y-44873810D01*
X30759524Y-44492857D01*
X30711905Y-44397619D01*
X30664286Y-44350000D01*
X30569048Y-44302381D01*
X30378571Y-44302381D01*
X30283333Y-44350000D01*
X30235714Y-44397619D01*
X30188095Y-44492857D01*
X30188095Y-44730952D01*
X30235714Y-44826190D01*
X30283333Y-44873810D01*
X30378571Y-44921429D01*
X30569048Y-44921429D01*
X30664286Y-44873810D01*
X30711905Y-44826190D01*
X30759524Y-44730952D01*
X28552381Y-58938095D02*
X29361905Y-58938095D01*
X29457143Y-58890476D01*
X29504762Y-58842857D01*
X29552381Y-58747619D01*
X29552381Y-58557142D01*
X29504762Y-58461904D01*
X29457143Y-58414285D01*
X29361905Y-58366666D01*
X28552381Y-58366666D01*
X29552381Y-57366666D02*
X29552381Y-57938095D01*
X29552381Y-57652381D02*
X28552381Y-57652381D01*
X28695238Y-57747619D01*
X28790476Y-57842857D01*
X28838095Y-57938095D01*
X28552381Y-56747619D02*
X28552381Y-56652380D01*
X28600000Y-56557142D01*
X28647619Y-56509523D01*
X28742857Y-56461904D01*
X28933333Y-56414285D01*
X29171429Y-56414285D01*
X29361905Y-56461904D01*
X29457143Y-56509523D01*
X29504762Y-56557142D01*
X29552381Y-56652380D01*
X29552381Y-56747619D01*
X29504762Y-56842857D01*
X29457143Y-56890476D01*
X29361905Y-56938095D01*
X29171429Y-56985714D01*
X28933333Y-56985714D01*
X28742857Y-56938095D01*
X28647619Y-56890476D01*
X28600000Y-56842857D01*
X28552381Y-56747619D01*
X29752381Y-38838095D02*
X30561905Y-38838095D01*
X30657143Y-38790476D01*
X30704762Y-38742857D01*
X30752381Y-38647619D01*
X30752381Y-38457142D01*
X30704762Y-38361904D01*
X30657143Y-38314285D01*
X30561905Y-38266666D01*
X29752381Y-38266666D01*
X30752381Y-37266666D02*
X30752381Y-37838095D01*
X30752381Y-37552381D02*
X29752381Y-37552381D01*
X29895238Y-37647619D01*
X29990476Y-37742857D01*
X30038095Y-37838095D01*
X30752381Y-36314285D02*
X30752381Y-36885714D01*
X30752381Y-36600000D02*
X29752381Y-36600000D01*
X29895238Y-36695238D01*
X29990476Y-36790476D01*
X30038095Y-36885714D01*
X28752381Y-37438095D02*
X29561905Y-37438095D01*
X29657143Y-37390476D01*
X29704762Y-37342857D01*
X29752381Y-37247619D01*
X29752381Y-37057142D01*
X29704762Y-36961904D01*
X29657143Y-36914285D01*
X29561905Y-36866666D01*
X28752381Y-36866666D01*
X29752381Y-35866666D02*
X29752381Y-36438095D01*
X29752381Y-36152381D02*
X28752381Y-36152381D01*
X28895238Y-36247619D01*
X28990476Y-36342857D01*
X29038095Y-36438095D01*
X28847619Y-35485714D02*
X28800000Y-35438095D01*
X28752381Y-35342857D01*
X28752381Y-35104761D01*
X28800000Y-35009523D01*
X28847619Y-34961904D01*
X28942857Y-34914285D01*
X29038095Y-34914285D01*
X29180952Y-34961904D01*
X29752381Y-35533333D01*
X29752381Y-34914285D01*
D15*
X37580952Y-28845238D02*
X37904762Y-28845238D01*
X37942857Y-28826190D01*
X37961905Y-28807143D01*
X37980952Y-28769047D01*
X37980952Y-28692857D01*
X37961905Y-28654762D01*
X37942857Y-28635714D01*
X37904762Y-28616666D01*
X37580952Y-28616666D01*
X37980952Y-28216666D02*
X37980952Y-28445238D01*
X37980952Y-28330952D02*
X37580952Y-28330952D01*
X37638095Y-28369047D01*
X37676190Y-28407142D01*
X37695238Y-28445238D01*
X37580952Y-28083333D02*
X37580952Y-27835714D01*
X37733333Y-27969047D01*
X37733333Y-27911905D01*
X37752381Y-27873809D01*
X37771429Y-27854762D01*
X37809524Y-27835714D01*
X37904762Y-27835714D01*
X37942857Y-27854762D01*
X37961905Y-27873809D01*
X37980952Y-27911905D01*
X37980952Y-28026190D01*
X37961905Y-28064286D01*
X37942857Y-28083333D01*
X50157162Y-22204052D02*
X50157162Y-22527862D01*
X50176210Y-22565957D01*
X50195257Y-22585005D01*
X50233353Y-22604052D01*
X50309543Y-22604052D01*
X50347638Y-22585005D01*
X50366686Y-22565957D01*
X50385734Y-22527862D01*
X50385734Y-22204052D01*
X50785734Y-22604052D02*
X50557162Y-22604052D01*
X50671448Y-22604052D02*
X50671448Y-22204052D01*
X50633353Y-22261195D01*
X50595258Y-22299290D01*
X50557162Y-22318338D01*
X51128591Y-22337386D02*
X51128591Y-22604052D01*
X51033353Y-22185005D02*
X50938114Y-22470719D01*
X51185734Y-22470719D01*
D12*
X67552381Y-40466666D02*
X67076190Y-40800000D01*
X67552381Y-41038095D02*
X66552381Y-41038095D01*
X66552381Y-40657142D01*
X66600000Y-40561904D01*
X66647619Y-40514285D01*
X66742857Y-40466666D01*
X66885714Y-40466666D01*
X66980952Y-40514285D01*
X67028571Y-40561904D01*
X67076190Y-40657142D01*
X67076190Y-41038095D01*
X66552381Y-39609523D02*
X66552381Y-39800000D01*
X66600000Y-39895238D01*
X66647619Y-39942857D01*
X66790476Y-40038095D01*
X66980952Y-40085714D01*
X67361905Y-40085714D01*
X67457143Y-40038095D01*
X67504762Y-39990476D01*
X67552381Y-39895238D01*
X67552381Y-39704761D01*
X67504762Y-39609523D01*
X67457143Y-39561904D01*
X67361905Y-39514285D01*
X67123810Y-39514285D01*
X67028571Y-39561904D01*
X66980952Y-39609523D01*
X66933333Y-39704761D01*
X66933333Y-39895238D01*
X66980952Y-39990476D01*
X67028571Y-40038095D01*
X67123810Y-40085714D01*
X63952381Y-37216666D02*
X63476190Y-37550000D01*
X63952381Y-37788095D02*
X62952381Y-37788095D01*
X62952381Y-37407142D01*
X63000000Y-37311904D01*
X63047619Y-37264285D01*
X63142857Y-37216666D01*
X63285714Y-37216666D01*
X63380952Y-37264285D01*
X63428571Y-37311904D01*
X63476190Y-37407142D01*
X63476190Y-37788095D01*
X62952381Y-36883333D02*
X62952381Y-36216666D01*
X63952381Y-36645238D01*
X65752381Y-40466666D02*
X65276190Y-40800000D01*
X65752381Y-41038095D02*
X64752381Y-41038095D01*
X64752381Y-40657142D01*
X64800000Y-40561904D01*
X64847619Y-40514285D01*
X64942857Y-40466666D01*
X65085714Y-40466666D01*
X65180952Y-40514285D01*
X65228571Y-40561904D01*
X65276190Y-40657142D01*
X65276190Y-41038095D01*
X65180952Y-39895238D02*
X65133333Y-39990476D01*
X65085714Y-40038095D01*
X64990476Y-40085714D01*
X64942857Y-40085714D01*
X64847619Y-40038095D01*
X64800000Y-39990476D01*
X64752381Y-39895238D01*
X64752381Y-39704761D01*
X64800000Y-39609523D01*
X64847619Y-39561904D01*
X64942857Y-39514285D01*
X64990476Y-39514285D01*
X65085714Y-39561904D01*
X65133333Y-39609523D01*
X65180952Y-39704761D01*
X65180952Y-39895238D01*
X65228571Y-39990476D01*
X65276190Y-40038095D01*
X65371429Y-40085714D01*
X65561905Y-40085714D01*
X65657143Y-40038095D01*
X65704762Y-39990476D01*
X65752381Y-39895238D01*
X65752381Y-39704761D01*
X65704762Y-39609523D01*
X65657143Y-39561904D01*
X65561905Y-39514285D01*
X65371429Y-39514285D01*
X65276190Y-39561904D01*
X65228571Y-39609523D01*
X65180952Y-39704761D01*
X65752381Y-37216666D02*
X65276190Y-37550000D01*
X65752381Y-37788095D02*
X64752381Y-37788095D01*
X64752381Y-37407142D01*
X64800000Y-37311904D01*
X64847619Y-37264285D01*
X64942857Y-37216666D01*
X65085714Y-37216666D01*
X65180952Y-37264285D01*
X65228571Y-37311904D01*
X65276190Y-37407142D01*
X65276190Y-37788095D01*
X65752381Y-36740476D02*
X65752381Y-36550000D01*
X65704762Y-36454761D01*
X65657143Y-36407142D01*
X65514286Y-36311904D01*
X65323810Y-36264285D01*
X64942857Y-36264285D01*
X64847619Y-36311904D01*
X64800000Y-36359523D01*
X64752381Y-36454761D01*
X64752381Y-36645238D01*
X64800000Y-36740476D01*
X64847619Y-36788095D01*
X64942857Y-36835714D01*
X65180952Y-36835714D01*
X65276190Y-36788095D01*
X65323810Y-36740476D01*
X65371429Y-36645238D01*
X65371429Y-36454761D01*
X65323810Y-36359523D01*
X65276190Y-36311904D01*
X65180952Y-36264285D01*
X54152381Y-50242857D02*
X53676190Y-50576191D01*
X54152381Y-50814286D02*
X53152381Y-50814286D01*
X53152381Y-50433333D01*
X53200000Y-50338095D01*
X53247619Y-50290476D01*
X53342857Y-50242857D01*
X53485714Y-50242857D01*
X53580952Y-50290476D01*
X53628571Y-50338095D01*
X53676190Y-50433333D01*
X53676190Y-50814286D01*
X54152381Y-49290476D02*
X54152381Y-49861905D01*
X54152381Y-49576191D02*
X53152381Y-49576191D01*
X53295238Y-49671429D01*
X53390476Y-49766667D01*
X53438095Y-49861905D01*
X54152381Y-48338095D02*
X54152381Y-48909524D01*
X54152381Y-48623810D02*
X53152381Y-48623810D01*
X53295238Y-48719048D01*
X53390476Y-48814286D01*
X53438095Y-48909524D01*
X52352381Y-50242857D02*
X51876190Y-50576191D01*
X52352381Y-50814286D02*
X51352381Y-50814286D01*
X51352381Y-50433333D01*
X51400000Y-50338095D01*
X51447619Y-50290476D01*
X51542857Y-50242857D01*
X51685714Y-50242857D01*
X51780952Y-50290476D01*
X51828571Y-50338095D01*
X51876190Y-50433333D01*
X51876190Y-50814286D01*
X52352381Y-49290476D02*
X52352381Y-49861905D01*
X52352381Y-49576191D02*
X51352381Y-49576191D01*
X51495238Y-49671429D01*
X51590476Y-49766667D01*
X51638095Y-49861905D01*
X51447619Y-48909524D02*
X51400000Y-48861905D01*
X51352381Y-48766667D01*
X51352381Y-48528571D01*
X51400000Y-48433333D01*
X51447619Y-48385714D01*
X51542857Y-48338095D01*
X51638095Y-48338095D01*
X51780952Y-48385714D01*
X52352381Y-48957143D01*
X52352381Y-48338095D01*
X50661905Y-22252381D02*
X50661905Y-21252381D01*
X51042858Y-21252381D01*
X51138096Y-21300000D01*
X51185715Y-21347619D01*
X51233334Y-21442857D01*
X51233334Y-21585714D01*
X51185715Y-21680952D01*
X51138096Y-21728571D01*
X51042858Y-21776190D01*
X50661905Y-21776190D01*
X51614286Y-21347619D02*
X51661905Y-21300000D01*
X51757143Y-21252381D01*
X51995239Y-21252381D01*
X52090477Y-21300000D01*
X52138096Y-21347619D01*
X52185715Y-21442857D01*
X52185715Y-21538095D01*
X52138096Y-21680952D01*
X51566667Y-22252381D01*
X52185715Y-22252381D01*
X25352381Y-53416666D02*
X24876190Y-53750000D01*
X25352381Y-53988095D02*
X24352381Y-53988095D01*
X24352381Y-53607142D01*
X24400000Y-53511904D01*
X24447619Y-53464285D01*
X24542857Y-53416666D01*
X24685714Y-53416666D01*
X24780952Y-53464285D01*
X24828571Y-53511904D01*
X24876190Y-53607142D01*
X24876190Y-53988095D01*
X24447619Y-53035714D02*
X24400000Y-52988095D01*
X24352381Y-52892857D01*
X24352381Y-52654761D01*
X24400000Y-52559523D01*
X24447619Y-52511904D01*
X24542857Y-52464285D01*
X24638095Y-52464285D01*
X24780952Y-52511904D01*
X25352381Y-53083333D01*
X25352381Y-52464285D01*
X27202381Y-53416666D02*
X26726190Y-53750000D01*
X27202381Y-53988095D02*
X26202381Y-53988095D01*
X26202381Y-53607142D01*
X26250000Y-53511904D01*
X26297619Y-53464285D01*
X26392857Y-53416666D01*
X26535714Y-53416666D01*
X26630952Y-53464285D01*
X26678571Y-53511904D01*
X26726190Y-53607142D01*
X26726190Y-53988095D01*
X26202381Y-53083333D02*
X26202381Y-52464285D01*
X26583333Y-52797619D01*
X26583333Y-52654761D01*
X26630952Y-52559523D01*
X26678571Y-52511904D01*
X26773810Y-52464285D01*
X27011905Y-52464285D01*
X27107143Y-52511904D01*
X27154762Y-52559523D01*
X27202381Y-52654761D01*
X27202381Y-52940476D01*
X27154762Y-53035714D01*
X27107143Y-53083333D01*
X33052381Y-42111905D02*
X33861905Y-42111905D01*
X33957143Y-42064286D01*
X34004762Y-42016667D01*
X34052381Y-41921429D01*
X34052381Y-41730952D01*
X34004762Y-41635714D01*
X33957143Y-41588095D01*
X33861905Y-41540476D01*
X33052381Y-41540476D01*
X34052381Y-40540476D02*
X34052381Y-41111905D01*
X34052381Y-40826191D02*
X33052381Y-40826191D01*
X33195238Y-40921429D01*
X33290476Y-41016667D01*
X33338095Y-41111905D01*
X48057143Y-56466666D02*
X48104762Y-56514285D01*
X48152381Y-56657142D01*
X48152381Y-56752380D01*
X48104762Y-56895238D01*
X48009524Y-56990476D01*
X47914286Y-57038095D01*
X47723810Y-57085714D01*
X47580952Y-57085714D01*
X47390476Y-57038095D01*
X47295238Y-56990476D01*
X47200000Y-56895238D01*
X47152381Y-56752380D01*
X47152381Y-56657142D01*
X47200000Y-56514285D01*
X47247619Y-56466666D01*
X47152381Y-55609523D02*
X47152381Y-55800000D01*
X47200000Y-55895238D01*
X47247619Y-55942857D01*
X47390476Y-56038095D01*
X47580952Y-56085714D01*
X47961905Y-56085714D01*
X48057143Y-56038095D01*
X48104762Y-55990476D01*
X48152381Y-55895238D01*
X48152381Y-55704761D01*
X48104762Y-55609523D01*
X48057143Y-55561904D01*
X47961905Y-55514285D01*
X47723810Y-55514285D01*
X47628571Y-55561904D01*
X47580952Y-55609523D01*
X47533333Y-55704761D01*
X47533333Y-55895238D01*
X47580952Y-55990476D01*
X47628571Y-56038095D01*
X47723810Y-56085714D01*
M02*
