G04 #@! TF.FileFunction,Copper,L2,Bot,Signal*
%FSLAX46Y46*%
G04 Gerber Fmt 4.6, Leading zero omitted, Abs format (unit mm)*
G04 Created by KiCad (PCBNEW 4.0.3-stable) date 09/30/16 23:12:01*
%MOMM*%
%LPD*%
G01*
G04 APERTURE LIST*
%ADD10C,0.100000*%
%ADD11C,1.400000*%
%ADD12C,2.500000*%
%ADD13R,2.032000X1.727200*%
%ADD14O,2.032000X1.727200*%
%ADD15O,1.250000X0.950000*%
%ADD16O,1.000000X1.550000*%
%ADD17C,1.501140*%
%ADD18C,2.999740*%
%ADD19R,1.400000X1.400000*%
%ADD20C,0.600000*%
%ADD21C,0.800000*%
%ADD22C,0.250000*%
%ADD23C,0.500000*%
%ADD24C,0.350000*%
%ADD25C,0.200000*%
%ADD26C,0.750000*%
%ADD27C,0.254000*%
G04 APERTURE END LIST*
D10*
D11*
X55580000Y-60000000D03*
X56600000Y-61780000D03*
X57620000Y-60000000D03*
X58640000Y-61780000D03*
X59660000Y-60000000D03*
X60680000Y-61780000D03*
X61700000Y-60000000D03*
X62720000Y-61780000D03*
D12*
X67350000Y-60760000D03*
X50950000Y-60760000D03*
D13*
X21600000Y-23480000D03*
D14*
X21600000Y-26020000D03*
X21600000Y-28560000D03*
X21600000Y-31100000D03*
X21600000Y-33640000D03*
X21600000Y-36180000D03*
X21600000Y-38720000D03*
X21600000Y-41260000D03*
X21600000Y-43800000D03*
X21600000Y-46340000D03*
X21600000Y-48880000D03*
X21600000Y-51420000D03*
X21600000Y-53960000D03*
X21600000Y-56500000D03*
X21600000Y-59040000D03*
X21600000Y-61580000D03*
D13*
X58346000Y-40868000D03*
D14*
X58346000Y-35788000D03*
X60886000Y-38328000D03*
X58346000Y-38328000D03*
D15*
X43200900Y-24500000D03*
X38200900Y-24500000D03*
D16*
X44200900Y-21800000D03*
X37200900Y-21800000D03*
D17*
X57528000Y-33067000D03*
X60068000Y-33067000D03*
X62100000Y-33067000D03*
X64640000Y-33067000D03*
D18*
X54480000Y-30400000D03*
X68196000Y-30400000D03*
D19*
X24800000Y-27100000D03*
D11*
X24800000Y-29100000D03*
X24800000Y-31100000D03*
X24800000Y-33100000D03*
X24800000Y-35100000D03*
X24800000Y-37100000D03*
X24800000Y-39100000D03*
X24800000Y-41100000D03*
X24800000Y-43100000D03*
X24800000Y-45100000D03*
X24800000Y-47100000D03*
X24800000Y-49100000D03*
X24800000Y-51100000D03*
X24800000Y-53100000D03*
X24800000Y-55100000D03*
X24800000Y-57100000D03*
X49200000Y-57100000D03*
X49200000Y-55100000D03*
X49200000Y-53100000D03*
X49200000Y-51100000D03*
X49200000Y-49100000D03*
X49200000Y-47100000D03*
X49200000Y-45100000D03*
X49200000Y-43100000D03*
X49200000Y-41100000D03*
X49200000Y-39100000D03*
X49200000Y-37100000D03*
X49200000Y-35100000D03*
X49200000Y-33100000D03*
X49200000Y-31100000D03*
X49200000Y-29100000D03*
D19*
X49200000Y-27100000D03*
D13*
X51400000Y-26900000D03*
D14*
X51400000Y-29440000D03*
X51400000Y-31980000D03*
X51400000Y-34520000D03*
X51400000Y-37060000D03*
X51400000Y-39600000D03*
X51400000Y-42140000D03*
D20*
X26900000Y-69000000D03*
X54900000Y-37700000D03*
X45200000Y-20900000D03*
X55400000Y-53500000D03*
X59075001Y-56324999D03*
X67600000Y-54900000D03*
X35500000Y-36200000D03*
X35400000Y-41800000D03*
X36800000Y-47100000D03*
X41900000Y-51400000D03*
X56700000Y-27400000D03*
X59100000Y-30800000D03*
X50443199Y-22292801D03*
X47700000Y-22400000D03*
X37500000Y-68300000D03*
X42100000Y-68900000D03*
X66650000Y-33700000D03*
X65450000Y-34850000D03*
X63300000Y-34850000D03*
X61700000Y-35000000D03*
X47300000Y-37500000D03*
X44760000Y-43980000D03*
X33080000Y-58040000D03*
X49490000Y-66810000D03*
X49510000Y-65900000D03*
X48280000Y-66350000D03*
X45110000Y-67010000D03*
X47410000Y-34020000D03*
X53960000Y-24330000D03*
X38040000Y-47080000D03*
X35800000Y-47620000D03*
X34150000Y-48970000D03*
X30580000Y-31150000D03*
X33740000Y-27220000D03*
X66310000Y-23680000D03*
X63700000Y-29360000D03*
X68730000Y-34640000D03*
X51700000Y-44950000D03*
X51250000Y-46820000D03*
X52680000Y-47690000D03*
X51700000Y-52130000D03*
X54680000Y-55550000D03*
X56790000Y-57180000D03*
X45000000Y-63350000D03*
X59150000Y-23650000D03*
X56200000Y-23150000D03*
X47800000Y-46250000D03*
X37550000Y-27450000D03*
X39775001Y-27732290D03*
X38450000Y-31700000D03*
X42150000Y-37950000D03*
X40000000Y-36050000D03*
X25600000Y-62200000D03*
X29550000Y-49350000D03*
X24400000Y-59100000D03*
X28250000Y-55200000D03*
X46700000Y-52950000D03*
X40333698Y-40868492D03*
X45700000Y-60175000D03*
X44800000Y-56350000D03*
X42000000Y-56200000D03*
X44600000Y-51300000D03*
X42524696Y-50900243D03*
X40000000Y-58300000D03*
X27200000Y-51400000D03*
X33374438Y-54631834D03*
X31605968Y-56203511D03*
X29900000Y-61400000D03*
X40100000Y-66100000D03*
X65200000Y-50500000D03*
X68100000Y-49800000D03*
X57300000Y-50500000D03*
X39500000Y-23000000D03*
X53000000Y-21675000D03*
X28400000Y-39800000D03*
X30100000Y-40800000D03*
X64700000Y-40600000D03*
X69100000Y-42900000D03*
X55800000Y-44400000D03*
X25800000Y-66100000D03*
X34600000Y-67000000D03*
X26200000Y-57300000D03*
D21*
X43500000Y-44100000D03*
D20*
X21200000Y-65600000D03*
X54400000Y-58200000D03*
D21*
X37300000Y-65100000D03*
X42400000Y-59100000D03*
X46300000Y-68900000D03*
D20*
X36800000Y-39100000D03*
X41400000Y-31500000D03*
X40000000Y-28500000D03*
X43300000Y-26700000D03*
X32100000Y-48100000D03*
X26600000Y-46500000D03*
X31300000Y-43800000D03*
X26500000Y-44000000D03*
X32300000Y-58700000D03*
X29200000Y-60400000D03*
X44050000Y-61700000D03*
X34400000Y-62500000D03*
X52600000Y-57600000D03*
X30000000Y-46600000D03*
X37100000Y-55900000D03*
X36100000Y-59100000D03*
X34800000Y-33800000D03*
X34300000Y-43100000D03*
X34300000Y-44600000D03*
D21*
X48600000Y-61300000D03*
D20*
X46930000Y-56850000D03*
X29450000Y-62300000D03*
X47700000Y-54250000D03*
X31300000Y-57975000D03*
X35000000Y-61200000D03*
X64200000Y-41700000D03*
X65300000Y-47400000D03*
X55300000Y-45600000D03*
X67400000Y-41900000D03*
X67400000Y-47300000D03*
X54500000Y-46300000D03*
X57500000Y-44100000D03*
X57600000Y-47000000D03*
X61100000Y-45300000D03*
D21*
X52100000Y-55900000D03*
X47700000Y-58200000D03*
X30000000Y-56300000D03*
D20*
X39850000Y-25675000D03*
X41627411Y-25987101D03*
X41250000Y-21050000D03*
X59600000Y-25850000D03*
X63200000Y-25950000D03*
X29400000Y-65700000D03*
X38300000Y-68700000D03*
X32700000Y-56800000D03*
X37800000Y-51200000D03*
X38700000Y-49600000D03*
X43400000Y-50800000D03*
X28050000Y-45700000D03*
X28600000Y-51000000D03*
X46600000Y-48600000D03*
X38100000Y-52200000D03*
X37800000Y-54800000D03*
X33000000Y-65500000D03*
X47480223Y-21630778D03*
X44800000Y-27400000D03*
X47800000Y-23300000D03*
X46700000Y-27900000D03*
X30800000Y-39200000D03*
X33000000Y-39200000D03*
X65675000Y-56025000D03*
X60600000Y-57000000D03*
X65117158Y-57682842D03*
X61400000Y-57000000D03*
X47079459Y-51535523D03*
X38500000Y-47850000D03*
X36450000Y-48400000D03*
X29050000Y-54250000D03*
D22*
X54330000Y-23030000D02*
X56700000Y-25400000D01*
X50874662Y-22300000D02*
X52240000Y-22300000D01*
X54330000Y-23030000D02*
X52970000Y-23030000D01*
X52970000Y-23030000D02*
X52240000Y-22300000D01*
D23*
X45200000Y-20900000D02*
X45100000Y-20900000D01*
X45100000Y-20900000D02*
X44774990Y-20574990D01*
X44774990Y-20574990D02*
X43025010Y-20574990D01*
X43025010Y-20574990D02*
X42790000Y-20810000D01*
X42790000Y-21360000D02*
X42060000Y-22090000D01*
X42790000Y-20810000D02*
X42790000Y-21360000D01*
X42060000Y-22090000D02*
X38810000Y-22090000D01*
X35799999Y-35900001D02*
X35500000Y-36200000D01*
X38810000Y-22090000D02*
X35799999Y-25100001D01*
X35799999Y-25100001D02*
X35799999Y-35900001D01*
D24*
X59075001Y-56324999D02*
X59625001Y-56324999D01*
X59625001Y-56324999D02*
X60224980Y-55725020D01*
X60224980Y-55725020D02*
X61115213Y-55725020D01*
X61115213Y-55725020D02*
X61640233Y-55200000D01*
X61640233Y-55200000D02*
X66875736Y-55200000D01*
X66875736Y-55200000D02*
X67175736Y-54900000D01*
X67175736Y-54900000D02*
X67600000Y-54900000D01*
D23*
X55000000Y-41500000D02*
X55000000Y-37800000D01*
X55000000Y-37800000D02*
X54900000Y-37700000D01*
X56400000Y-42900000D02*
X55000000Y-41500000D01*
X60000000Y-42900000D02*
X56400000Y-42900000D01*
X61999982Y-44899982D02*
X60000000Y-42900000D01*
X59000000Y-52300000D02*
X61999982Y-49300018D01*
X61999982Y-49300018D02*
X61999982Y-44899982D01*
X54200000Y-52300000D02*
X59000000Y-52300000D01*
D24*
X55400000Y-53500000D02*
X54200000Y-52300000D01*
X35400000Y-41800000D02*
X35400000Y-36300000D01*
X35400000Y-36300000D02*
X35500000Y-36200000D01*
X37400998Y-49300000D02*
X37400998Y-47700998D01*
X37400998Y-47700998D02*
X36800000Y-47100000D01*
X41900000Y-51400000D02*
X39500998Y-51400000D01*
X39500998Y-51400000D02*
X37400998Y-49300000D01*
D22*
X56700000Y-25400000D02*
X56700000Y-27400000D01*
X50443199Y-22292801D02*
X50867463Y-22292801D01*
X50867463Y-22292801D02*
X50874662Y-22300000D01*
D23*
X63434466Y-30800000D02*
X59100000Y-30800000D01*
X64640000Y-33067000D02*
X64640000Y-32005534D01*
X64640000Y-32005534D02*
X63434466Y-30800000D01*
D22*
X47700000Y-22400000D02*
X50336000Y-22400000D01*
X50336000Y-22400000D02*
X50443199Y-22292801D01*
D24*
X37075001Y-69375001D02*
X37500000Y-68950002D01*
X37500000Y-68950002D02*
X37500000Y-68300000D01*
X41575736Y-69000000D02*
X41200735Y-69375001D01*
X41200735Y-69375001D02*
X37075001Y-69375001D01*
X42100000Y-68900000D02*
X41675736Y-68900000D01*
X41675736Y-68900000D02*
X41575736Y-69000000D01*
D25*
X65450000Y-34850000D02*
X65500000Y-34850000D01*
X65500000Y-34850000D02*
X66650000Y-33700000D01*
X61700000Y-35000000D02*
X63150000Y-35000000D01*
X63150000Y-35000000D02*
X63300000Y-34850000D01*
X47800000Y-46250000D02*
X47800000Y-38000000D01*
X47800000Y-38000000D02*
X47300000Y-37500000D01*
D24*
X48280000Y-66350000D02*
X49060000Y-66350000D01*
X49060000Y-66350000D02*
X49510000Y-65900000D01*
D25*
X34150000Y-48970000D02*
X35500000Y-47620000D01*
X35500000Y-47620000D02*
X35800000Y-47620000D01*
X33460000Y-27924264D02*
X33460000Y-28270000D01*
X33460000Y-28270000D02*
X30580000Y-31150000D01*
X33740000Y-27220000D02*
X33740000Y-27644264D01*
X33740000Y-27644264D02*
X33460000Y-27924264D01*
X66330000Y-26730000D02*
X66330000Y-23700000D01*
X66330000Y-23700000D02*
X66310000Y-23680000D01*
X63700000Y-29360000D02*
X66330000Y-26730000D01*
X66680000Y-33014264D02*
X66680000Y-32340000D01*
X66680000Y-32340000D02*
X63700000Y-29360000D01*
X68730000Y-34640000D02*
X68305736Y-34640000D01*
X68305736Y-34640000D02*
X66680000Y-33014264D01*
X52540000Y-47875000D02*
X52305000Y-47875000D01*
X52305000Y-47875000D02*
X51250000Y-46820000D01*
X56815736Y-50440000D02*
X53390000Y-50440000D01*
X53390000Y-50440000D02*
X51700000Y-52130000D01*
X57300000Y-50500000D02*
X56875736Y-50500000D01*
X56875736Y-50500000D02*
X56815736Y-50440000D01*
D22*
X55150000Y-22350000D02*
X56100000Y-23300000D01*
X55150000Y-22350000D02*
X55400000Y-22350000D01*
X55400000Y-22350000D02*
X56200000Y-23150000D01*
X54475000Y-21675000D02*
X55150000Y-22350000D01*
X39650000Y-24925736D02*
X39500000Y-24775736D01*
X39500000Y-24775736D02*
X39500000Y-23000000D01*
X37550000Y-27450000D02*
X37550000Y-27025736D01*
X37550000Y-27025736D02*
X39650000Y-24925736D01*
X39775001Y-27732290D02*
X37832290Y-27732290D01*
X37832290Y-27732290D02*
X37550000Y-27450000D01*
X40333698Y-40868492D02*
X40333698Y-39766302D01*
X40333698Y-39766302D02*
X42150000Y-37950000D01*
X27200000Y-57550000D02*
X25650000Y-59100000D01*
X25650000Y-59100000D02*
X24400000Y-59100000D01*
X27200000Y-56800000D02*
X27200000Y-57550000D01*
X27950001Y-56049999D02*
X27200000Y-56800000D01*
X28250000Y-55200000D02*
X27950001Y-55499999D01*
X27950001Y-55499999D02*
X27950001Y-56049999D01*
X42000000Y-56200000D02*
X44600000Y-56200000D01*
X44600000Y-56200000D02*
X44900000Y-56500000D01*
X42524696Y-50900243D02*
X43049454Y-51425001D01*
X43049454Y-51425001D02*
X44474999Y-51425001D01*
X44474999Y-51425001D02*
X44600000Y-51300000D01*
X31605968Y-56203511D02*
X31802761Y-56203511D01*
X31802761Y-56203511D02*
X33374438Y-54631834D01*
D24*
X68100000Y-49800000D02*
X65900000Y-49800000D01*
X65900000Y-49800000D02*
X65200000Y-50500000D01*
D22*
X53000000Y-21675000D02*
X54475000Y-21675000D01*
D24*
X51400000Y-39600000D02*
X52766000Y-39600000D01*
X54000000Y-40834000D02*
X54000000Y-42600000D01*
X52766000Y-39600000D02*
X54000000Y-40834000D01*
X54000000Y-42600000D02*
X55800000Y-44400000D01*
X33975736Y-67200000D02*
X25800000Y-67200000D01*
X25800000Y-67200000D02*
X22800000Y-67200000D01*
X25800000Y-66100000D02*
X25800000Y-66524264D01*
X25800000Y-66524264D02*
X25800000Y-67200000D01*
X22800000Y-67200000D02*
X21200000Y-65600000D01*
X34600000Y-67000000D02*
X34175736Y-67000000D01*
X34175736Y-67000000D02*
X33975736Y-67200000D01*
X35900000Y-46200000D02*
X26200000Y-55900000D01*
X26200000Y-55900000D02*
X26200000Y-57300000D01*
X40500000Y-46200000D02*
X35900000Y-46200000D01*
X42600000Y-44100000D02*
X40500000Y-46200000D01*
X43500000Y-44100000D02*
X42600000Y-44100000D01*
D23*
X43500000Y-31100000D02*
X43500000Y-44100000D01*
X45500000Y-29100000D02*
X43500000Y-31100000D01*
X49200000Y-29100000D02*
X45500000Y-29100000D01*
X62600000Y-58800000D02*
X65390000Y-58800000D01*
X65390000Y-58800000D02*
X67350000Y-60760000D01*
X62000000Y-58200000D02*
X62600000Y-58800000D01*
X54400000Y-58200000D02*
X62000000Y-58200000D01*
D26*
X46300000Y-68900000D02*
X44000000Y-68900000D01*
X44000000Y-68900000D02*
X42275001Y-67175001D01*
X42275001Y-67175001D02*
X39375001Y-67175001D01*
X39375001Y-67175001D02*
X37699999Y-65499999D01*
X37699999Y-65499999D02*
X37300000Y-65100000D01*
X42400000Y-59100000D02*
X42965685Y-59100000D01*
X42965685Y-59100000D02*
X46300000Y-62434315D01*
X46300000Y-62434315D02*
X46300000Y-68334315D01*
X46300000Y-68334315D02*
X46300000Y-68900000D01*
D23*
X58346000Y-35788000D02*
X56830000Y-35788000D01*
X55980777Y-20880777D02*
X46819223Y-20880777D01*
X56830000Y-35788000D02*
X55800000Y-34758000D01*
X55800000Y-34758000D02*
X55800000Y-32400000D01*
X57600000Y-22500000D02*
X55980777Y-20880777D01*
X44400000Y-23300000D02*
X42300000Y-23300000D01*
X55800000Y-32400000D02*
X57600000Y-30600000D01*
X57600000Y-30600000D02*
X57600000Y-22500000D01*
X46819223Y-20880777D02*
X44400000Y-23300000D01*
X42300000Y-23300000D02*
X42000000Y-23600000D01*
X42000000Y-23600000D02*
X42000000Y-24975736D01*
X42000000Y-24975736D02*
X43300000Y-26275736D01*
X43300000Y-26275736D02*
X43300000Y-26700000D01*
D24*
X31300000Y-43800000D02*
X34600000Y-43800000D01*
X34600000Y-43800000D02*
X36800000Y-41600000D01*
X36800000Y-41600000D02*
X36800000Y-39100000D01*
X38100000Y-34800000D02*
X38100000Y-37800000D01*
X38100000Y-37800000D02*
X36800000Y-39100000D01*
X38600000Y-34300000D02*
X38100000Y-34800000D01*
X39400000Y-33500000D02*
X38600000Y-34300000D01*
X41400000Y-31500000D02*
X39400000Y-33500000D01*
X41900000Y-28100000D02*
X40400000Y-28100000D01*
X40400000Y-28100000D02*
X40000000Y-28500000D01*
X43300000Y-26700000D02*
X41900000Y-28100000D01*
D23*
X32100000Y-48100000D02*
X28200000Y-48100000D01*
X28200000Y-48100000D02*
X26600000Y-46500000D01*
D24*
X26500000Y-44000000D02*
X31100000Y-44000000D01*
X31100000Y-44000000D02*
X31300000Y-43800000D01*
D22*
X31200000Y-59450000D02*
X31550000Y-59450000D01*
X31550000Y-59450000D02*
X32300000Y-58700000D01*
X30250000Y-60400000D02*
X31200000Y-59450000D01*
X29200000Y-60400000D02*
X30250000Y-60400000D01*
X34900000Y-62000000D02*
X43750000Y-62000000D01*
X43750000Y-62000000D02*
X44050000Y-61700000D01*
D24*
X34900000Y-62000000D02*
X34400000Y-62500000D01*
D23*
X52600000Y-57600000D02*
X53024264Y-57600000D01*
X53024264Y-57600000D02*
X53424264Y-57200000D01*
X64000000Y-46334781D02*
X63454008Y-45788789D01*
X53424264Y-57200000D02*
X54700000Y-57200000D01*
X54700000Y-57200000D02*
X56400000Y-55500000D01*
X59599990Y-55100010D02*
X60699990Y-55100010D01*
X56400000Y-55500000D02*
X59200000Y-55500000D01*
X60699990Y-55100010D02*
X64000000Y-51800000D01*
X59200000Y-55500000D02*
X59599990Y-55100010D01*
X64000000Y-51800000D02*
X64000000Y-46334781D01*
X63454008Y-45788789D02*
X63411211Y-45788789D01*
X63411211Y-40700811D02*
X61038400Y-38328000D01*
X61038400Y-38328000D02*
X60886000Y-38328000D01*
X63411211Y-45788789D02*
X63411211Y-40700811D01*
D24*
X33650000Y-46250000D02*
X34300000Y-45600000D01*
X30000000Y-46600000D02*
X33300000Y-46600000D01*
X33300000Y-46600000D02*
X33650000Y-46250000D01*
D23*
X36100000Y-59100000D02*
X36100000Y-56900000D01*
X36100000Y-56900000D02*
X37100000Y-55900000D01*
X34300000Y-43100000D02*
X34300000Y-42675736D01*
X34300000Y-42675736D02*
X33675001Y-42050737D01*
X33675001Y-42050737D02*
X33675001Y-39635001D01*
X34300000Y-34300000D02*
X34800000Y-33800000D01*
X33675001Y-39635001D02*
X34300000Y-39010002D01*
X34300000Y-39010002D02*
X34300000Y-34300000D01*
D24*
X34300000Y-45600000D02*
X34300000Y-44600000D01*
D26*
X49700000Y-58500000D02*
X48600000Y-59600000D01*
X48600000Y-59600000D02*
X48600000Y-61300000D01*
X52300000Y-58500000D02*
X49700000Y-58500000D01*
X53200000Y-59400000D02*
X52300000Y-58500000D01*
X53200000Y-60308998D02*
X53200000Y-59400000D01*
X56600000Y-64000000D02*
X56600000Y-63708998D01*
X56600000Y-63708998D02*
X53200000Y-60308998D01*
X57900000Y-64000000D02*
X56600000Y-64000000D01*
X58640000Y-63260000D02*
X57900000Y-64000000D01*
X58640000Y-61780000D02*
X58640000Y-63260000D01*
X59660000Y-60000000D02*
X59660000Y-60760000D01*
X59660000Y-60760000D02*
X58640000Y-61780000D01*
D22*
X45680515Y-56675491D02*
X46755491Y-56675491D01*
X46755491Y-56675491D02*
X46930000Y-56850000D01*
X31300000Y-57975000D02*
X30125000Y-57975000D01*
X30125000Y-57975000D02*
X28100000Y-60000000D01*
X28100000Y-60000000D02*
X28100000Y-60950000D01*
X28100000Y-60950000D02*
X29450000Y-62300000D01*
X47700000Y-51610051D02*
X47700000Y-54250000D01*
X49200000Y-51100000D02*
X48210051Y-51100000D01*
X48210051Y-51100000D02*
X47700000Y-51610051D01*
X42000000Y-58100000D02*
X38900000Y-61200000D01*
X38900000Y-61200000D02*
X35000000Y-61200000D01*
X45680515Y-56675491D02*
X44256006Y-58100000D01*
X44256006Y-58100000D02*
X42000000Y-58100000D01*
X65887046Y-46234549D02*
X65934549Y-46187046D01*
X65233243Y-46307521D02*
X65300000Y-46300000D01*
X65300000Y-47400000D02*
X65000000Y-47100000D01*
X65000000Y-47100000D02*
X65000000Y-46600000D01*
X65169834Y-46329709D02*
X65233243Y-46307521D01*
X65970290Y-46130165D02*
X65992478Y-46066756D01*
X65000000Y-46600000D02*
X65007521Y-46533243D01*
X65992478Y-45933243D02*
X65970290Y-45869834D01*
X65007521Y-46533243D02*
X65029709Y-46469834D01*
X65766756Y-43307521D02*
X65700000Y-43300000D01*
X65029709Y-46469834D02*
X65065450Y-46412953D01*
X64169835Y-44470290D02*
X64112954Y-44434549D01*
X65065450Y-46412953D02*
X65112953Y-46365450D01*
X65112953Y-46365450D02*
X65169834Y-46329709D01*
X65007521Y-43066756D02*
X65000000Y-43000000D01*
X64169835Y-45670290D02*
X64112954Y-45634549D01*
X64112954Y-45165450D02*
X64169835Y-45129709D01*
X65766756Y-46292478D02*
X65830165Y-46270290D01*
X64112954Y-45634549D02*
X64065451Y-45587046D01*
X65830165Y-43870290D02*
X65887046Y-43834549D01*
X65830165Y-45070290D02*
X65887046Y-45034549D01*
X65300000Y-46300000D02*
X65700000Y-46300000D01*
X65992478Y-44866756D02*
X66000000Y-44800000D01*
X65934549Y-46187046D02*
X65970290Y-46130165D01*
X65700000Y-46300000D02*
X65766756Y-46292478D01*
X64233244Y-45692478D02*
X64169835Y-45670290D01*
X65992478Y-43666756D02*
X66000000Y-43600000D01*
X64300000Y-45700000D02*
X64233244Y-45692478D01*
X65830165Y-46270290D02*
X65887046Y-46234549D01*
X65992478Y-46066756D02*
X66000000Y-46000000D01*
X65766756Y-45092478D02*
X65830165Y-45070290D01*
X66000000Y-46000000D02*
X65992478Y-45933243D01*
X65830165Y-45729709D02*
X65766756Y-45707521D01*
X64300000Y-44500000D02*
X64233244Y-44492478D01*
X65700000Y-45700000D02*
X64300000Y-45700000D01*
X65970290Y-45869834D02*
X65934549Y-45812953D01*
X65934549Y-45812953D02*
X65887046Y-45765450D01*
X65887046Y-45765450D02*
X65830165Y-45729709D01*
X65169834Y-43270290D02*
X65112953Y-43234549D01*
X65766756Y-45707521D02*
X65700000Y-45700000D01*
X65700000Y-44500000D02*
X64300000Y-44500000D01*
X64065451Y-45587046D02*
X64029710Y-45530165D01*
X64029710Y-45530165D02*
X64007522Y-45466756D01*
X64007522Y-45466756D02*
X64000000Y-45400000D01*
X64000000Y-45400000D02*
X64007522Y-45333243D01*
X65970290Y-43469834D02*
X65934549Y-43412953D01*
X64007522Y-45333243D02*
X64029710Y-45269834D01*
X65700000Y-45100000D02*
X65766756Y-45092478D01*
X64029710Y-45269834D02*
X64065451Y-45212953D01*
X64065451Y-45212953D02*
X64112954Y-45165450D01*
X64065451Y-44387046D02*
X64029710Y-44330165D01*
X65970290Y-44669834D02*
X65934549Y-44612953D01*
X64169835Y-45129709D02*
X64233244Y-45107521D01*
X65766756Y-43892478D02*
X65830165Y-43870290D01*
X64233244Y-45107521D02*
X64300000Y-45100000D01*
X64300000Y-45100000D02*
X65700000Y-45100000D01*
X65887046Y-45034549D02*
X65934549Y-44987046D01*
X65934549Y-44987046D02*
X65970290Y-44930165D01*
X65970290Y-44930165D02*
X65992478Y-44866756D01*
X66000000Y-44800000D02*
X65992478Y-44733243D01*
X65992478Y-44733243D02*
X65970290Y-44669834D01*
X65934549Y-44612953D02*
X65887046Y-44565450D01*
X65065450Y-43187046D02*
X65029709Y-43130165D01*
X65887046Y-44565450D02*
X65830165Y-44529709D01*
X65830165Y-44529709D02*
X65766756Y-44507521D01*
X65766756Y-44507521D02*
X65700000Y-44500000D01*
X64233244Y-44492478D02*
X64169835Y-44470290D01*
X65700000Y-43300000D02*
X65300000Y-43300000D01*
X64112954Y-44434549D02*
X64065451Y-44387046D01*
X64029710Y-44330165D02*
X64007522Y-44266756D01*
X64007522Y-44266756D02*
X64000000Y-44200000D01*
X64000000Y-44200000D02*
X64007522Y-44133243D01*
X64007522Y-44133243D02*
X64029710Y-44069834D01*
X64029710Y-44069834D02*
X64065451Y-44012953D01*
X65000000Y-43000000D02*
X65000000Y-42500000D01*
X64065451Y-44012953D02*
X64112954Y-43965450D01*
X64112954Y-43965450D02*
X64169835Y-43929709D01*
X64169835Y-43929709D02*
X64233244Y-43907521D01*
X64233244Y-43907521D02*
X64300000Y-43900000D01*
X64300000Y-43900000D02*
X65700000Y-43900000D01*
X65300000Y-43300000D02*
X65233243Y-43292478D01*
X65700000Y-43900000D02*
X65766756Y-43892478D01*
X65887046Y-43834549D02*
X65934549Y-43787046D01*
X65233243Y-43292478D02*
X65169834Y-43270290D01*
X65934549Y-43787046D02*
X65970290Y-43730165D01*
X65887046Y-43365450D02*
X65830165Y-43329709D01*
X65970290Y-43730165D02*
X65992478Y-43666756D01*
X66000000Y-43600000D02*
X65992478Y-43533243D01*
X64952464Y-42452464D02*
X64200000Y-41700000D01*
X65992478Y-43533243D02*
X65970290Y-43469834D01*
X65934549Y-43412953D02*
X65887046Y-43365450D01*
X65830165Y-43329709D02*
X65766756Y-43307521D01*
X65112953Y-43234549D02*
X65065450Y-43187046D01*
X65029709Y-43130165D02*
X65007521Y-43066756D01*
X65000000Y-42500000D02*
X64952464Y-42452464D01*
X53000000Y-43400000D02*
X55200000Y-45600000D01*
X55200000Y-45600000D02*
X55300000Y-45600000D01*
X50489949Y-43400000D02*
X53000000Y-43400000D01*
X49200000Y-43100000D02*
X50189949Y-43100000D01*
X50189949Y-43100000D02*
X50489949Y-43400000D01*
X67400000Y-47300000D02*
X67400000Y-46900000D01*
X66683244Y-44792478D02*
X66619835Y-44770290D01*
X68334549Y-46487046D02*
X68370290Y-46430165D01*
X67633243Y-46607521D02*
X67700000Y-46600000D01*
X66750000Y-46000000D02*
X66683244Y-45992478D01*
X67100000Y-44200000D02*
X67166757Y-44192478D01*
X66683244Y-45407521D02*
X66750000Y-45400000D01*
X68287046Y-44865450D02*
X68230165Y-44829709D01*
X66457522Y-45766756D02*
X66450000Y-45700000D01*
X68100000Y-45400000D02*
X68166756Y-45392478D01*
X67400000Y-46900000D02*
X67407521Y-46833243D01*
X67230166Y-44170290D02*
X67287047Y-44134549D01*
X66479710Y-44369834D02*
X66515451Y-44312953D01*
X68370290Y-46430165D02*
X68392478Y-46366756D01*
X67407521Y-46833243D02*
X67429709Y-46769834D01*
X67465450Y-46712953D02*
X67512953Y-46665450D01*
X68166756Y-46007521D02*
X68100000Y-46000000D01*
X67166757Y-44192478D02*
X67230166Y-44170290D01*
X68392478Y-46366756D02*
X68400000Y-46300000D01*
X67429709Y-46769834D02*
X67465450Y-46712953D01*
X68166756Y-46592478D02*
X68230165Y-46570290D01*
X66562954Y-45465450D02*
X66619835Y-45429709D01*
X67512953Y-46665450D02*
X67569834Y-46629709D01*
X68230165Y-46570290D02*
X68287046Y-46534549D01*
X66619835Y-44229709D02*
X66683244Y-44207521D01*
X67569834Y-46629709D02*
X67633243Y-46607521D01*
X67700000Y-46600000D02*
X68100000Y-46600000D01*
X66562954Y-45934549D02*
X66515451Y-45887046D01*
X68100000Y-46600000D02*
X68166756Y-46592478D01*
X68100000Y-46000000D02*
X66750000Y-46000000D01*
X68392478Y-45033243D02*
X68370290Y-44969834D01*
X68287046Y-46534549D02*
X68334549Y-46487046D01*
X68230165Y-44829709D02*
X68166756Y-44807521D01*
X66619835Y-44770290D02*
X66562954Y-44734549D01*
X68287046Y-46065450D02*
X68230165Y-46029709D01*
X68400000Y-46300000D02*
X68392478Y-46233243D01*
X66450000Y-45700000D02*
X66457522Y-45633243D01*
X68392478Y-46233243D02*
X68370290Y-46169834D01*
X67400000Y-43136643D02*
X67400000Y-41900000D01*
X68370290Y-46169834D02*
X68334549Y-46112953D01*
X68334549Y-46112953D02*
X68287046Y-46065450D01*
X68100000Y-44800000D02*
X66750000Y-44800000D01*
X68230165Y-46029709D02*
X68166756Y-46007521D01*
X66457522Y-44566756D02*
X66450000Y-44500000D01*
X66683244Y-45992478D02*
X66619835Y-45970290D01*
X66750000Y-44800000D02*
X66683244Y-44792478D01*
X66619835Y-45970290D02*
X66562954Y-45934549D01*
X66515451Y-45887046D02*
X66479710Y-45830165D01*
X66479710Y-45830165D02*
X66457522Y-45766756D01*
X66457522Y-45633243D02*
X66479710Y-45569834D01*
X66750000Y-45400000D02*
X68100000Y-45400000D01*
X66479710Y-45569834D02*
X66515451Y-45512953D01*
X66515451Y-45512953D02*
X66562954Y-45465450D01*
X67370291Y-44030165D02*
X67392479Y-43966756D01*
X66619835Y-45429709D02*
X66683244Y-45407521D01*
X68166756Y-45392478D02*
X68230165Y-45370290D01*
X68230165Y-45370290D02*
X68287046Y-45334549D01*
X66479710Y-44630165D02*
X66457522Y-44566756D01*
X66515451Y-44687046D02*
X66479710Y-44630165D01*
X68287046Y-45334549D02*
X68334549Y-45287046D01*
X68334549Y-45287046D02*
X68370290Y-45230165D01*
X68370290Y-45230165D02*
X68392478Y-45166756D01*
X68392478Y-45166756D02*
X68400000Y-45100000D01*
X68400000Y-45100000D02*
X68392478Y-45033243D01*
X68370290Y-44969834D02*
X68334549Y-44912953D01*
X68334549Y-44912953D02*
X68287046Y-44865450D01*
X68166756Y-44807521D02*
X68100000Y-44800000D01*
X66562954Y-44734549D02*
X66515451Y-44687046D01*
X66450000Y-44500000D02*
X66457522Y-44433243D01*
X66457522Y-44433243D02*
X66479710Y-44369834D01*
X66515451Y-44312953D02*
X66562954Y-44265450D01*
X66562954Y-44265450D02*
X66619835Y-44229709D01*
X66683244Y-44207521D02*
X66750000Y-44200000D01*
X66750000Y-44200000D02*
X67100000Y-44200000D01*
X67287047Y-44134549D02*
X67334550Y-44087046D01*
X67334550Y-44087046D02*
X67370291Y-44030165D01*
X67392479Y-43966756D02*
X67400000Y-43900000D01*
X67400000Y-43900000D02*
X67400000Y-43136643D01*
X50000000Y-45900000D02*
X54100000Y-45900000D01*
X54100000Y-45900000D02*
X54500000Y-46300000D01*
X49200000Y-45100000D02*
X50000000Y-45900000D01*
X56900000Y-44700000D02*
X56833243Y-44707521D01*
X58300000Y-45900000D02*
X57900000Y-45900000D01*
X57500000Y-44100000D02*
X57600000Y-44200000D01*
X57600000Y-44200000D02*
X57600000Y-44400000D01*
X57366756Y-44692478D02*
X57300000Y-44700000D01*
X57600000Y-44400000D02*
X57592478Y-44466756D01*
X58534550Y-45412953D02*
X58570291Y-45469834D01*
X57592478Y-44466756D02*
X57570290Y-44530165D01*
X56833243Y-44707521D02*
X56769834Y-44729709D01*
X56712953Y-44765450D02*
X56665450Y-44812953D01*
X57570290Y-44530165D02*
X57534549Y-44587046D01*
X57534549Y-44587046D02*
X57487046Y-44634549D01*
X57665451Y-46012953D02*
X57629710Y-46069834D01*
X56769834Y-45270290D02*
X56833243Y-45292478D01*
X57487046Y-44634549D02*
X57430165Y-44670290D01*
X58592479Y-45533243D02*
X58600000Y-45600000D01*
X57430165Y-44670290D02*
X57366756Y-44692478D01*
X57629710Y-46069834D02*
X57607522Y-46133243D01*
X56665450Y-44812953D02*
X56629709Y-44869834D01*
X57900000Y-45900000D02*
X57833244Y-45907521D01*
X56629709Y-45130165D02*
X56665450Y-45187046D01*
X56665450Y-45187046D02*
X56712953Y-45234549D01*
X57300000Y-44700000D02*
X56900000Y-44700000D01*
X56769834Y-44729709D02*
X56712953Y-44765450D01*
X56629709Y-44869834D02*
X56607521Y-44933243D01*
X56900000Y-45300000D02*
X58300000Y-45300000D01*
X56607521Y-44933243D02*
X56600000Y-45000000D01*
X56600000Y-45000000D02*
X56607521Y-45066756D01*
X58592479Y-45666756D02*
X58570291Y-45730165D01*
X56607521Y-45066756D02*
X56629709Y-45130165D01*
X58430166Y-45329709D02*
X58487047Y-45365450D01*
X56712953Y-45234549D02*
X56769834Y-45270290D01*
X56833243Y-45292478D02*
X56900000Y-45300000D01*
X57600000Y-46200000D02*
X57600000Y-47000000D01*
X58300000Y-45300000D02*
X58366757Y-45307521D01*
X58570291Y-45469834D02*
X58592479Y-45533243D01*
X58366757Y-45307521D02*
X58430166Y-45329709D01*
X58430166Y-45870290D02*
X58366757Y-45892478D01*
X58487047Y-45365450D02*
X58534550Y-45412953D01*
X58600000Y-45600000D02*
X58592479Y-45666756D01*
X58570291Y-45730165D02*
X58534550Y-45787046D01*
X58534550Y-45787046D02*
X58487047Y-45834549D01*
X58487047Y-45834549D02*
X58430166Y-45870290D01*
X57712954Y-45965450D02*
X57665451Y-46012953D01*
X58366757Y-45892478D02*
X58300000Y-45900000D01*
X57833244Y-45907521D02*
X57769835Y-45929709D01*
X57769835Y-45929709D02*
X57712954Y-45965450D01*
X57607522Y-46133243D02*
X57600000Y-46200000D01*
X61100000Y-45300000D02*
X61200000Y-45400000D01*
X60026742Y-46388898D02*
X60068628Y-46441421D01*
X59982646Y-46195699D02*
X59982646Y-46262878D01*
X61200000Y-46300000D02*
X61147477Y-46341885D01*
X61144562Y-47609913D02*
X61144561Y-47677093D01*
X60828258Y-46341885D02*
X60775735Y-46300000D01*
X61129612Y-47544420D02*
X61144562Y-47609913D01*
X60379843Y-45946124D02*
X60314349Y-45931175D01*
X61129613Y-47742586D02*
X61100465Y-47803112D01*
X61200000Y-45400000D02*
X61200000Y-46300000D01*
X59982646Y-46262878D02*
X59997595Y-46328372D01*
X61147477Y-46341885D02*
X61086951Y-46371032D01*
X61086951Y-46371032D02*
X61021457Y-46385981D01*
X61021457Y-46385981D02*
X60954278Y-46385981D01*
X60954278Y-46385981D02*
X60888784Y-46371032D01*
X60492892Y-46017157D02*
X60440369Y-45975272D01*
X60888784Y-46371032D02*
X60828258Y-46341885D01*
X60775735Y-46300000D02*
X60492892Y-46017157D01*
X60440369Y-45975272D02*
X60379843Y-45946124D01*
X60068628Y-46441421D02*
X61058579Y-47431371D01*
X60314349Y-45931175D02*
X60247170Y-45931175D01*
X59927209Y-47572793D02*
X59828305Y-47671695D01*
X60247170Y-45931175D02*
X60181676Y-45946124D01*
X59000000Y-48500000D02*
X50789949Y-48500000D01*
X61058579Y-47431371D02*
X61100464Y-47483894D01*
X61100465Y-47803112D02*
X61058579Y-47855635D01*
X60181676Y-45946124D02*
X60121150Y-45975272D01*
X59997595Y-46130205D02*
X59982646Y-46195699D01*
X60121150Y-45975272D02*
X60068628Y-46017157D01*
X60068628Y-46017157D02*
X60026742Y-46069679D01*
X59979732Y-47530907D02*
X59927209Y-47572793D01*
X60026742Y-46069679D02*
X59997595Y-46130205D01*
X61006057Y-47897521D02*
X60945532Y-47926667D01*
X60880037Y-47941617D02*
X60812859Y-47941616D01*
X60298950Y-47530908D02*
X60238424Y-47501760D01*
X59997595Y-46328372D02*
X60026742Y-46388898D01*
X60105751Y-47486811D02*
X60040258Y-47501759D01*
X61100464Y-47483894D02*
X61129612Y-47544420D01*
X60747364Y-47926668D02*
X60686839Y-47897520D01*
X61144561Y-47677093D02*
X61129613Y-47742586D01*
X61058579Y-47855635D02*
X61006057Y-47897521D01*
X60945532Y-47926667D02*
X60880037Y-47941617D01*
X60812859Y-47941616D02*
X60747364Y-47926668D01*
X60686839Y-47897520D02*
X60634315Y-47855635D01*
X60634315Y-47855635D02*
X60351473Y-47572793D01*
X60351473Y-47572793D02*
X60298950Y-47530908D01*
X60238424Y-47501760D02*
X60172931Y-47486810D01*
X60172931Y-47486810D02*
X60105751Y-47486811D01*
X60040258Y-47501759D02*
X59979732Y-47530907D01*
X59828305Y-47671695D02*
X59000000Y-48500000D01*
X50789949Y-48500000D02*
X50189949Y-49100000D01*
X50189949Y-49100000D02*
X49200000Y-49100000D01*
D23*
X62950000Y-51250000D02*
X59800000Y-54400000D01*
X62950000Y-51250000D02*
X62950000Y-46750000D01*
X62950000Y-46750000D02*
X62699992Y-46499992D01*
X58346000Y-40868000D02*
X61068000Y-40868000D01*
X61068000Y-40868000D02*
X62711201Y-42511201D01*
X62711201Y-42511201D02*
X62711201Y-42588799D01*
X62711201Y-42588799D02*
X62699992Y-42600008D01*
X62699992Y-42600008D02*
X62699992Y-46499992D01*
X59800000Y-54400000D02*
X53600000Y-54400000D01*
X53600000Y-54400000D02*
X52100000Y-55900000D01*
X30000000Y-56300000D02*
X32800000Y-53500000D01*
X43000000Y-53500000D02*
X44200000Y-54700000D01*
X32800000Y-53500000D02*
X43000000Y-53500000D01*
X44200000Y-54700000D02*
X46650000Y-54700000D01*
X46650000Y-54700000D02*
X47700000Y-55750000D01*
X47700000Y-55750000D02*
X47700000Y-58200000D01*
D22*
X39850000Y-25700000D02*
X41340310Y-25700000D01*
X41340310Y-25700000D02*
X41440310Y-25800000D01*
X41440310Y-25800000D02*
X41627411Y-25987101D01*
X37200900Y-21800000D02*
X37950900Y-21800000D01*
X37950900Y-21800000D02*
X38700900Y-21050000D01*
X38700900Y-21050000D02*
X41250000Y-21050000D01*
D23*
X63200000Y-25950000D02*
X59700000Y-25950000D01*
X59700000Y-25950000D02*
X59600000Y-25850000D01*
D24*
X26900000Y-59300000D02*
X26900000Y-63800000D01*
X29400000Y-65700000D02*
X29100001Y-65400001D01*
X29100001Y-65400001D02*
X28500001Y-65400001D01*
X28500001Y-65400001D02*
X26900000Y-63800000D01*
X36600000Y-66200000D02*
X29900000Y-66200000D01*
X29900000Y-66200000D02*
X29400000Y-65700000D01*
X38300000Y-67900000D02*
X36600000Y-66200000D01*
X38300000Y-68700000D02*
X38300000Y-67900000D01*
X30750000Y-56900000D02*
X30350000Y-57300000D01*
X30350000Y-57300000D02*
X29852998Y-57300000D01*
X32175736Y-56900000D02*
X30750000Y-56900000D01*
X32700000Y-56800000D02*
X32275736Y-56800000D01*
X32275736Y-56800000D02*
X32175736Y-56900000D01*
X37800000Y-51200000D02*
X36300000Y-52700000D01*
X28900000Y-57300000D02*
X26900000Y-59300000D01*
X29852998Y-57300000D02*
X28900000Y-57300000D01*
X28800000Y-56000000D02*
X28800000Y-56247002D01*
X28800000Y-56247002D02*
X29852998Y-57300000D01*
X32100000Y-52700000D02*
X28800000Y-56000000D01*
X36300000Y-52700000D02*
X32100000Y-52700000D01*
D22*
X42400000Y-49800000D02*
X38900000Y-49800000D01*
X38900000Y-49800000D02*
X38700000Y-49600000D01*
X43400000Y-50800000D02*
X42400000Y-49800000D01*
X27024998Y-45150000D02*
X27500000Y-45150000D01*
X27500000Y-45150000D02*
X28050000Y-45700000D01*
X28600000Y-51000000D02*
X28600000Y-49425002D01*
X28600000Y-49425002D02*
X25974999Y-46800001D01*
X25974999Y-46800001D02*
X25974999Y-46199999D01*
X25974999Y-46199999D02*
X27024998Y-45150000D01*
D24*
X44800000Y-52200000D02*
X46600000Y-50400000D01*
X46600000Y-50400000D02*
X46600000Y-48600000D01*
X38100000Y-52200000D02*
X44800000Y-52200000D01*
X34900000Y-56300000D02*
X36400000Y-54800000D01*
X36400000Y-54800000D02*
X37800000Y-54800000D01*
X34900000Y-60100000D02*
X34900000Y-56300000D01*
X33000000Y-62000000D02*
X34900000Y-60100000D01*
X33000000Y-65500000D02*
X33000000Y-62000000D01*
D22*
X44800000Y-27400000D02*
X44800000Y-24300000D01*
X47480223Y-21630778D02*
X44811001Y-24300000D01*
X44811001Y-24300000D02*
X44800000Y-24300000D01*
X47800000Y-23300000D02*
X46600000Y-23300000D01*
X46424838Y-27614201D02*
X46466724Y-27666724D01*
X46968826Y-24252829D02*
X46953876Y-24318324D01*
X46600000Y-23300000D02*
X46558115Y-23352523D01*
X46882844Y-24431371D02*
X46830322Y-24473257D01*
X46123215Y-24106644D02*
X46062689Y-24077496D01*
X46558115Y-23352523D02*
X46528969Y-23413048D01*
X46511102Y-24473258D02*
X46458580Y-24431371D01*
X46528969Y-23413048D02*
X46514019Y-23478543D01*
X46395691Y-27355509D02*
X46380741Y-27421002D01*
X46600001Y-23724264D02*
X46882844Y-24007107D01*
X46835548Y-26713896D02*
X46835547Y-26781074D01*
X46953876Y-24318324D02*
X46924728Y-24378850D01*
X46571024Y-26449371D02*
X46636519Y-26464321D01*
X45279057Y-26738393D02*
X45264483Y-26768656D01*
X46514019Y-23478543D02*
X46514020Y-23545721D01*
X46636519Y-26464321D02*
X46697045Y-26493469D01*
X46514020Y-23545721D02*
X46528968Y-23611216D01*
X46458580Y-24431371D02*
X46175738Y-24148529D01*
X46528968Y-23611216D02*
X46558116Y-23671741D01*
X45803995Y-24106645D02*
X45751473Y-24148528D01*
X46438351Y-26464320D02*
X46503846Y-26449372D01*
X46637122Y-24517354D02*
X46571629Y-24502404D01*
X46571629Y-24502404D02*
X46511102Y-24473258D01*
X46924728Y-24378850D02*
X46882844Y-24431371D01*
X46558116Y-23671741D02*
X46600001Y-23724264D01*
X46882844Y-24007107D02*
X46924729Y-24059630D01*
X46924729Y-24059630D02*
X46953877Y-24120156D01*
X46953877Y-24120156D02*
X46968825Y-24185651D01*
X46175738Y-24148529D02*
X46123215Y-24106644D01*
X46968825Y-24185651D02*
X46968826Y-24252829D01*
X45320942Y-26526261D02*
X45335516Y-26556524D01*
X46830322Y-24473257D02*
X46769795Y-24502405D01*
X46062689Y-24077496D02*
X45997194Y-24062548D01*
X45335516Y-26556524D02*
X45342990Y-26589271D01*
X46769795Y-24502405D02*
X46704302Y-24517353D01*
X46704302Y-24517353D02*
X46637122Y-24517354D01*
X45997194Y-24062548D02*
X45930016Y-24062547D01*
X45667739Y-27171912D02*
X45698002Y-27157338D01*
X45751473Y-24148528D02*
X45645408Y-24254592D01*
X45930016Y-24062547D02*
X45864521Y-24077497D01*
X45864521Y-24077497D02*
X45803995Y-24106645D01*
X45335516Y-26655607D02*
X45320942Y-26685870D01*
X45645408Y-24254592D02*
X45300000Y-24600000D01*
X45300000Y-24600000D02*
X45300000Y-26500000D01*
X45264483Y-26867739D02*
X45279057Y-26898002D01*
X45300000Y-26500000D02*
X45320942Y-26526261D01*
X45342990Y-26589271D02*
X45342990Y-26622860D01*
X46835547Y-26781074D02*
X46820599Y-26846569D01*
X45342990Y-26622860D02*
X45335516Y-26655607D01*
X45320942Y-26685870D02*
X45279057Y-26738393D01*
X45264483Y-26768656D02*
X45257009Y-26801403D01*
X45257009Y-26801403D02*
X45257009Y-26834992D01*
X45257009Y-26834992D02*
X45264483Y-26867739D01*
X45698002Y-27157338D02*
X45724264Y-27136396D01*
X45279057Y-26898002D02*
X45300000Y-26924264D01*
X46325304Y-26535355D02*
X46377825Y-26493468D01*
X45300000Y-26924264D02*
X45512132Y-27136396D01*
X45512132Y-27136396D02*
X45538393Y-27157338D01*
X45634992Y-27179386D02*
X45667739Y-27171912D01*
X45538393Y-27157338D02*
X45568656Y-27171912D01*
X46820598Y-26648401D02*
X46835548Y-26713896D01*
X45568656Y-27171912D02*
X45601403Y-27179386D01*
X46042462Y-26818197D02*
X46325304Y-26535355D01*
X45601403Y-27179386D02*
X45634992Y-27179386D01*
X45724264Y-27136396D02*
X46042462Y-26818197D01*
X46377825Y-26493468D02*
X46438351Y-26464320D01*
X46503846Y-26449372D02*
X46571024Y-26449371D01*
X46697045Y-26493469D02*
X46749566Y-26535353D01*
X46395690Y-27553675D02*
X46424838Y-27614201D01*
X46749566Y-26535353D02*
X46791452Y-26587876D01*
X46791452Y-26587876D02*
X46820598Y-26648401D01*
X46820599Y-26846569D02*
X46791451Y-26907094D01*
X46791451Y-26907094D02*
X46749566Y-26959617D01*
X46380742Y-27488182D02*
X46395690Y-27553675D01*
X46749566Y-26959617D02*
X46466724Y-27242460D01*
X46466724Y-27242460D02*
X46424839Y-27294983D01*
X46424839Y-27294983D02*
X46395691Y-27355509D01*
X46380741Y-27421002D02*
X46380742Y-27488182D01*
X46466724Y-27666724D02*
X46700000Y-27900000D01*
X33000000Y-39200000D02*
X30800000Y-39200000D01*
D25*
X62525000Y-56600000D02*
X62809553Y-56600000D01*
X62809553Y-56600000D02*
X62945612Y-56463941D01*
X63550000Y-55975000D02*
X63543105Y-55913807D01*
X65675000Y-56025000D02*
X65250736Y-56025000D01*
X62415889Y-56561820D02*
X62388179Y-56534110D01*
X63336193Y-55706895D02*
X63275000Y-55700000D01*
X65250736Y-56025000D02*
X65025736Y-56250000D01*
X65025736Y-56250000D02*
X64325000Y-56250000D01*
X63446459Y-55759997D02*
X63394318Y-55727234D01*
X60600000Y-56911998D02*
X60600000Y-57000000D01*
X63163806Y-55706895D02*
X63105681Y-55727234D01*
X64325000Y-56250000D02*
X64286058Y-56254387D01*
X63009996Y-55803541D02*
X62977233Y-55855682D01*
X64286058Y-56254387D02*
X64249070Y-56267330D01*
X64249070Y-56267330D02*
X64215889Y-56288179D01*
X64188179Y-56315889D02*
X64167330Y-56349070D01*
X63053540Y-55759997D02*
X63009996Y-55803541D01*
X64215889Y-56288179D02*
X64188179Y-56315889D01*
X63225000Y-55700000D02*
X63163806Y-55706895D01*
X64167330Y-56349070D02*
X63629070Y-56349070D01*
X63629070Y-56349070D02*
X63550000Y-56270000D01*
X63550000Y-56270000D02*
X63550000Y-55975000D01*
X63543105Y-55913807D02*
X63522766Y-55855682D01*
X63522766Y-55855682D02*
X63490003Y-55803541D01*
X63490003Y-55803541D02*
X63446459Y-55759997D01*
X62284110Y-56288179D02*
X62250929Y-56267330D01*
X63394318Y-55727234D02*
X63336193Y-55706895D01*
X63275000Y-55700000D02*
X63225000Y-55700000D01*
X63105681Y-55727234D02*
X63053540Y-55759997D01*
X62977233Y-55855682D02*
X62956894Y-55913807D01*
X62950000Y-56425000D02*
X62945612Y-56463941D01*
X62956894Y-55913807D02*
X62950000Y-55975000D01*
X62950000Y-55975000D02*
X62950000Y-56425000D01*
X62332669Y-56349070D02*
X62311820Y-56315889D01*
X62388179Y-56534110D02*
X62367330Y-56500929D01*
X62367330Y-56500929D02*
X62354387Y-56463941D01*
X62250929Y-56267330D02*
X62213941Y-56254387D01*
X62525000Y-56600000D02*
X62486058Y-56595612D01*
X62486058Y-56595612D02*
X62449070Y-56582669D01*
X62449070Y-56582669D02*
X62415889Y-56561820D01*
X62354387Y-56463941D02*
X62345612Y-56386058D01*
X62345612Y-56386058D02*
X62332669Y-56349070D01*
X62311820Y-56315889D02*
X62284110Y-56288179D01*
X62213941Y-56254387D02*
X62175000Y-56250000D01*
X62175000Y-56250000D02*
X62050000Y-56125000D01*
X62050000Y-56125000D02*
X61386998Y-56125000D01*
X61386998Y-56125000D02*
X60600000Y-56911998D01*
X61400000Y-57000000D02*
X61750000Y-57000000D01*
X61920766Y-57100766D02*
X61820000Y-57000000D01*
X61820000Y-57000000D02*
X61750000Y-57000000D01*
X62760000Y-57100766D02*
X62892478Y-57233244D01*
X62760000Y-57100766D02*
X61920766Y-57100766D01*
X65117158Y-57439448D02*
X65082860Y-57405150D01*
X65117158Y-57682842D02*
X65117158Y-57439448D01*
X65082860Y-57405150D02*
X65082860Y-57365702D01*
X63012953Y-57934550D02*
X62965450Y-57887047D01*
X63470290Y-57830166D02*
X63434549Y-57887047D01*
X63133243Y-57992479D02*
X63069834Y-57970291D01*
X65082860Y-57365702D02*
X64717158Y-57000000D01*
X63434549Y-57887047D02*
X63387046Y-57934550D01*
X63565450Y-57112954D02*
X63529709Y-57169835D01*
X63507521Y-57233244D02*
X63500000Y-57300000D01*
X64717158Y-57000000D02*
X63800000Y-57000000D01*
X63800000Y-57000000D02*
X63733243Y-57007522D01*
X63733243Y-57007522D02*
X63669834Y-57029710D01*
X63669834Y-57029710D02*
X63612953Y-57065451D01*
X63529709Y-57169835D02*
X63507521Y-57233244D01*
X63612953Y-57065451D02*
X63565450Y-57112954D01*
X63500000Y-57300000D02*
X63500000Y-57700000D01*
X63500000Y-57700000D02*
X63492478Y-57766757D01*
X63492478Y-57766757D02*
X63470290Y-57830166D01*
X63069834Y-57970291D02*
X63012953Y-57934550D01*
X63387046Y-57934550D02*
X63330165Y-57970291D01*
X63330165Y-57970291D02*
X63266756Y-57992479D01*
X62965450Y-57887047D02*
X62929709Y-57830166D01*
X62929709Y-57830166D02*
X62907521Y-57766757D01*
X63266756Y-57992479D02*
X63200000Y-58000000D01*
X62900000Y-57700000D02*
X62900000Y-57300000D01*
X63200000Y-58000000D02*
X63133243Y-57992479D01*
X62907521Y-57766757D02*
X62900000Y-57700000D01*
X62900000Y-57300000D02*
X62892478Y-57233244D01*
D22*
X47450000Y-48524998D02*
X47450000Y-51164982D01*
X47450000Y-51164982D02*
X47079459Y-51535523D01*
X44300000Y-47600000D02*
X46525002Y-47600000D01*
X46525002Y-47600000D02*
X47450000Y-48524998D01*
X44050000Y-47850000D02*
X44300000Y-47600000D01*
X38500000Y-47850000D02*
X44050000Y-47850000D01*
X32450000Y-50850000D02*
X34000000Y-50850000D01*
X34000000Y-50850000D02*
X36450000Y-48400000D01*
X29050000Y-54250000D02*
X32450000Y-50850000D01*
D27*
G36*
X20972372Y-66517884D02*
X22227244Y-67772757D01*
X22490027Y-67948343D01*
X22800000Y-68010000D01*
X33204755Y-68010000D01*
X33036200Y-68079646D01*
X32730718Y-68384595D01*
X32565189Y-68783233D01*
X32564812Y-69214873D01*
X32595854Y-69290000D01*
X22569931Y-69290000D01*
X21820319Y-69140893D01*
X21244114Y-68755885D01*
X20859107Y-68179682D01*
X20710000Y-67430069D01*
X20710000Y-66408937D01*
X20972372Y-66517884D01*
X20972372Y-66517884D01*
G37*
X20972372Y-66517884D02*
X22227244Y-67772757D01*
X22490027Y-67948343D01*
X22800000Y-68010000D01*
X33204755Y-68010000D01*
X33036200Y-68079646D01*
X32730718Y-68384595D01*
X32565189Y-68783233D01*
X32564812Y-69214873D01*
X32595854Y-69290000D01*
X22569931Y-69290000D01*
X21820319Y-69140893D01*
X21244114Y-68755885D01*
X20859107Y-68179682D01*
X20710000Y-67430069D01*
X20710000Y-66408937D01*
X20972372Y-66517884D01*
G36*
X39375001Y-68185002D02*
X39375006Y-68185001D01*
X41856645Y-68185001D01*
X42961644Y-69290000D01*
X39032415Y-69290000D01*
X39092192Y-69230327D01*
X39234838Y-68886799D01*
X39235162Y-68514833D01*
X39110000Y-68211917D01*
X39110000Y-68132289D01*
X39375001Y-68185002D01*
X39375001Y-68185002D01*
G37*
X39375001Y-68185002D02*
X39375006Y-68185001D01*
X41856645Y-68185001D01*
X42961644Y-69290000D01*
X39032415Y-69290000D01*
X39092192Y-69230327D01*
X39234838Y-68886799D01*
X39235162Y-68514833D01*
X39110000Y-68211917D01*
X39110000Y-68132289D01*
X39375001Y-68185002D01*
G36*
X68179682Y-20859107D02*
X68755885Y-21244114D01*
X69140893Y-21820319D01*
X69290000Y-22569931D01*
X69290000Y-28542665D01*
X68622515Y-28265501D01*
X67773211Y-28264760D01*
X66988273Y-28589090D01*
X66387200Y-29189114D01*
X66061501Y-29973485D01*
X66060760Y-30822789D01*
X66385090Y-31607727D01*
X66985114Y-32208800D01*
X67769485Y-32534499D01*
X68618789Y-32535240D01*
X69290000Y-32257901D01*
X69290000Y-67430069D01*
X69140893Y-68179681D01*
X68755885Y-68755886D01*
X68179682Y-69140893D01*
X67430069Y-69290000D01*
X47258739Y-69290000D01*
X47334820Y-69106777D01*
X47335179Y-68695029D01*
X47310000Y-68634091D01*
X47310000Y-62434315D01*
X47259004Y-62177942D01*
X47233118Y-62047804D01*
X47135793Y-61902148D01*
X47014178Y-61720137D01*
X47014175Y-61720135D01*
X44154041Y-58860000D01*
X44256006Y-58860000D01*
X44546845Y-58802148D01*
X44793407Y-58637401D01*
X45995317Y-57435491D01*
X46193332Y-57435491D01*
X46399673Y-57642192D01*
X46743201Y-57784838D01*
X46751706Y-57784845D01*
X46665180Y-57993223D01*
X46664821Y-58404971D01*
X46822058Y-58785515D01*
X47112954Y-59076919D01*
X47493223Y-59234820D01*
X47662610Y-59234968D01*
X47590000Y-59600000D01*
X47590000Y-61033450D01*
X47565180Y-61093223D01*
X47564821Y-61504971D01*
X47722058Y-61885515D01*
X48012954Y-62176919D01*
X48393223Y-62334820D01*
X48804971Y-62335179D01*
X49185515Y-62177942D01*
X49444208Y-61919700D01*
X49880839Y-62357093D01*
X50573405Y-62644672D01*
X51101946Y-62645133D01*
X50779274Y-62967242D01*
X50415415Y-63843513D01*
X50414587Y-64792325D01*
X50776916Y-65669229D01*
X51447242Y-66340726D01*
X52323513Y-66704585D01*
X53272325Y-66705413D01*
X54149229Y-66343084D01*
X54820726Y-65672758D01*
X55184585Y-64796487D01*
X55185413Y-63847675D01*
X55097461Y-63634815D01*
X55621623Y-64158977D01*
X55666882Y-64386510D01*
X55885822Y-64714178D01*
X56213490Y-64933118D01*
X56600000Y-65010000D01*
X57900000Y-65010000D01*
X58286510Y-64933118D01*
X58614178Y-64714178D01*
X59354178Y-63974178D01*
X59573118Y-63646510D01*
X59650000Y-63260000D01*
X59650000Y-62658091D01*
X59660133Y-62647976D01*
X59922796Y-62911098D01*
X60413287Y-63114768D01*
X60944383Y-63115231D01*
X61435229Y-62912418D01*
X61700133Y-62647976D01*
X61962796Y-62911098D01*
X62453287Y-63114768D01*
X62984383Y-63115231D01*
X63475229Y-62912418D01*
X63851098Y-62537204D01*
X64054768Y-62046713D01*
X64055231Y-61515617D01*
X63852418Y-61024771D01*
X63477204Y-60648902D01*
X62986713Y-60445232D01*
X62960650Y-60445209D01*
X63034768Y-60266713D01*
X63035231Y-59735617D01*
X63014317Y-59685000D01*
X65023420Y-59685000D01*
X65540586Y-60202165D01*
X65465328Y-60383405D01*
X65464674Y-61133305D01*
X65751043Y-61826372D01*
X65859794Y-61935313D01*
X65027675Y-61934587D01*
X64150771Y-62296916D01*
X63479274Y-62967242D01*
X63115415Y-63843513D01*
X63114587Y-64792325D01*
X63476916Y-65669229D01*
X64147242Y-66340726D01*
X65023513Y-66704585D01*
X65972325Y-66705413D01*
X66849229Y-66343084D01*
X67520726Y-65672758D01*
X67884585Y-64796487D01*
X67885413Y-63847675D01*
X67523084Y-62970771D01*
X67197749Y-62644868D01*
X67723305Y-62645326D01*
X68416372Y-62358957D01*
X68947093Y-61829161D01*
X69234672Y-61136595D01*
X69235326Y-60386695D01*
X68948957Y-59693628D01*
X68419161Y-59162907D01*
X67726595Y-58875328D01*
X66976695Y-58874674D01*
X66792402Y-58950822D01*
X66015790Y-58174210D01*
X65998413Y-58162599D01*
X65945132Y-58126998D01*
X66051996Y-57869641D01*
X66052320Y-57497675D01*
X65910275Y-57153899D01*
X65716751Y-56960037D01*
X65860167Y-56960162D01*
X66203943Y-56818117D01*
X66467192Y-56555327D01*
X66609838Y-56211799D01*
X66610014Y-56010000D01*
X66875736Y-56010000D01*
X67185710Y-55948342D01*
X67377664Y-55820082D01*
X67413201Y-55834838D01*
X67785167Y-55835162D01*
X68128943Y-55693117D01*
X68392192Y-55430327D01*
X68534838Y-55086799D01*
X68535162Y-54714833D01*
X68393117Y-54371057D01*
X68130327Y-54107808D01*
X67786799Y-53965162D01*
X67414833Y-53964838D01*
X67071057Y-54106883D01*
X67066129Y-54111802D01*
X66865762Y-54151658D01*
X66752640Y-54227244D01*
X66602979Y-54327244D01*
X66540223Y-54390000D01*
X62661580Y-54390000D01*
X64625787Y-52425792D01*
X64625790Y-52425790D01*
X64817633Y-52138675D01*
X64842267Y-52014833D01*
X64885001Y-51800000D01*
X64885000Y-51799995D01*
X64885000Y-48240080D01*
X65113201Y-48334838D01*
X65485167Y-48335162D01*
X65828943Y-48193117D01*
X66092192Y-47930327D01*
X66234838Y-47586799D01*
X66235162Y-47214833D01*
X66129533Y-46959191D01*
X66134385Y-46957645D01*
X66139848Y-46953032D01*
X66154728Y-46944254D01*
X66170871Y-46938092D01*
X66177885Y-46936697D01*
X66182361Y-46933706D01*
X66234512Y-46913799D01*
X66291393Y-46878058D01*
X66331953Y-46839711D01*
X66336590Y-46836976D01*
X66340890Y-46831262D01*
X66353446Y-46819391D01*
X66367809Y-46809794D01*
X66374337Y-46806873D01*
X66378035Y-46802961D01*
X66424447Y-46771950D01*
X66471950Y-46724447D01*
X66477452Y-46716213D01*
X66487499Y-46717632D01*
X66492527Y-46719551D01*
X66499674Y-46719351D01*
X66516786Y-46721766D01*
X66598146Y-46747699D01*
X66626608Y-46750906D01*
X66607808Y-46769673D01*
X66465162Y-47113201D01*
X66464838Y-47485167D01*
X66606883Y-47828943D01*
X66869673Y-48092192D01*
X67213201Y-48234838D01*
X67585167Y-48235162D01*
X67928943Y-48093117D01*
X68192192Y-47830327D01*
X68334838Y-47486799D01*
X68334982Y-47321517D01*
X68350326Y-47319351D01*
X68357473Y-47319551D01*
X68362501Y-47317632D01*
X68417770Y-47309829D01*
X68481179Y-47287640D01*
X68529256Y-47259280D01*
X68534385Y-47257645D01*
X68539848Y-47253032D01*
X68554728Y-47244254D01*
X68570871Y-47238092D01*
X68577885Y-47236697D01*
X68582361Y-47233706D01*
X68634512Y-47213799D01*
X68691393Y-47178058D01*
X68731953Y-47139711D01*
X68736590Y-47136976D01*
X68740890Y-47131262D01*
X68753446Y-47119391D01*
X68767809Y-47109794D01*
X68774337Y-47106873D01*
X68778035Y-47102961D01*
X68824447Y-47071950D01*
X68871950Y-47024447D01*
X68902962Y-46978035D01*
X68906873Y-46974337D01*
X68909794Y-46967810D01*
X68919392Y-46953446D01*
X68931262Y-46940890D01*
X68936976Y-46936590D01*
X68939711Y-46931953D01*
X68978058Y-46891393D01*
X69013799Y-46834512D01*
X69033705Y-46782363D01*
X69036697Y-46777886D01*
X69038093Y-46770870D01*
X69044253Y-46754731D01*
X69053032Y-46739848D01*
X69057645Y-46734386D01*
X69059279Y-46729258D01*
X69087641Y-46681179D01*
X69109829Y-46617770D01*
X69117632Y-46562501D01*
X69119551Y-46557473D01*
X69119351Y-46550326D01*
X69121766Y-46533214D01*
X69127016Y-46516744D01*
X69130298Y-46510391D01*
X69130750Y-46505028D01*
X69147699Y-46451854D01*
X69155221Y-46385098D01*
X69150529Y-46329475D01*
X69151282Y-46324145D01*
X69149496Y-46317221D01*
X69148043Y-46300000D01*
X69149496Y-46282777D01*
X69151282Y-46275854D01*
X69150530Y-46270524D01*
X69155221Y-46214903D01*
X69147699Y-46148147D01*
X69130750Y-46094972D01*
X69130298Y-46089610D01*
X69127017Y-46083258D01*
X69121766Y-46066786D01*
X69119351Y-46049673D01*
X69119551Y-46042526D01*
X69117632Y-46037498D01*
X69109829Y-45982229D01*
X69087641Y-45918820D01*
X69059281Y-45870743D01*
X69057646Y-45865614D01*
X69053032Y-45860150D01*
X69044253Y-45845268D01*
X69038093Y-45829129D01*
X69036697Y-45822113D01*
X69033705Y-45817636D01*
X69013799Y-45765487D01*
X68978058Y-45708606D01*
X68969921Y-45700000D01*
X68978058Y-45691393D01*
X69013799Y-45634512D01*
X69033705Y-45582363D01*
X69036697Y-45577886D01*
X69038093Y-45570870D01*
X69044253Y-45554731D01*
X69053032Y-45539848D01*
X69057645Y-45534386D01*
X69059279Y-45529258D01*
X69087641Y-45481179D01*
X69109829Y-45417770D01*
X69117632Y-45362501D01*
X69119551Y-45357473D01*
X69119351Y-45350326D01*
X69121766Y-45333214D01*
X69127016Y-45316744D01*
X69130298Y-45310391D01*
X69130750Y-45305028D01*
X69147699Y-45251854D01*
X69155221Y-45185098D01*
X69150529Y-45129475D01*
X69151282Y-45124145D01*
X69149496Y-45117221D01*
X69148043Y-45100000D01*
X69149496Y-45082777D01*
X69151282Y-45075854D01*
X69150530Y-45070524D01*
X69155221Y-45014903D01*
X69147699Y-44948147D01*
X69130750Y-44894972D01*
X69130298Y-44889610D01*
X69127017Y-44883258D01*
X69121766Y-44866786D01*
X69119351Y-44849673D01*
X69119551Y-44842526D01*
X69117632Y-44837498D01*
X69109829Y-44782229D01*
X69087641Y-44718820D01*
X69059281Y-44670743D01*
X69057646Y-44665614D01*
X69053032Y-44660150D01*
X69044253Y-44645268D01*
X69038093Y-44629129D01*
X69036697Y-44622113D01*
X69033705Y-44617636D01*
X69013799Y-44565487D01*
X68978058Y-44508606D01*
X68939711Y-44468046D01*
X68936976Y-44463409D01*
X68931262Y-44459109D01*
X68919392Y-44446553D01*
X68909794Y-44432189D01*
X68906873Y-44425662D01*
X68902962Y-44421964D01*
X68871950Y-44375552D01*
X68824447Y-44328049D01*
X68778035Y-44297038D01*
X68774337Y-44293126D01*
X68767809Y-44290205D01*
X68753446Y-44280608D01*
X68740890Y-44268737D01*
X68736590Y-44263023D01*
X68731953Y-44260288D01*
X68691393Y-44221941D01*
X68634512Y-44186200D01*
X68582361Y-44166293D01*
X68577885Y-44163302D01*
X68570871Y-44161907D01*
X68554728Y-44155745D01*
X68539842Y-44146964D01*
X68534376Y-44142348D01*
X68529245Y-44140713D01*
X68481179Y-44112359D01*
X68417770Y-44090170D01*
X68362501Y-44082367D01*
X68357473Y-44080448D01*
X68350326Y-44080648D01*
X68333208Y-44078232D01*
X68251842Y-44052299D01*
X68185086Y-44044778D01*
X68148146Y-44047894D01*
X68155222Y-43985087D01*
X68151605Y-43942206D01*
X68160000Y-43900000D01*
X68160000Y-42462463D01*
X68192192Y-42430327D01*
X68334838Y-42086799D01*
X68335162Y-41714833D01*
X68193117Y-41371057D01*
X67930327Y-41107808D01*
X67586799Y-40965162D01*
X67214833Y-40964838D01*
X66871057Y-41106883D01*
X66607808Y-41369673D01*
X66465162Y-41713201D01*
X66464838Y-42085167D01*
X66606883Y-42428943D01*
X66640000Y-42462118D01*
X66640000Y-43134126D01*
X66638093Y-43129129D01*
X66636697Y-43122113D01*
X66633705Y-43117636D01*
X66613799Y-43065487D01*
X66578058Y-43008606D01*
X66539711Y-42968046D01*
X66536976Y-42963409D01*
X66531262Y-42959109D01*
X66519392Y-42946553D01*
X66509794Y-42932189D01*
X66506873Y-42925662D01*
X66502962Y-42921964D01*
X66471950Y-42875552D01*
X66424447Y-42828049D01*
X66378035Y-42797038D01*
X66374337Y-42793126D01*
X66367809Y-42790205D01*
X66353446Y-42780608D01*
X66340890Y-42768737D01*
X66336590Y-42763023D01*
X66331953Y-42760288D01*
X66291393Y-42721941D01*
X66234512Y-42686200D01*
X66182361Y-42666293D01*
X66177885Y-42663302D01*
X66170871Y-42661907D01*
X66154728Y-42655745D01*
X66139842Y-42646964D01*
X66134376Y-42642348D01*
X66129245Y-42640713D01*
X66081179Y-42612359D01*
X66017770Y-42590170D01*
X65962501Y-42582367D01*
X65957473Y-42580448D01*
X65950326Y-42580648D01*
X65933208Y-42578232D01*
X65851842Y-42552299D01*
X65785086Y-42544778D01*
X65760000Y-42546894D01*
X65760000Y-42500000D01*
X65702148Y-42209161D01*
X65537401Y-41962599D01*
X65135122Y-41560320D01*
X65135162Y-41514833D01*
X64993117Y-41171057D01*
X64730327Y-40907808D01*
X64386799Y-40765162D01*
X64296211Y-40765083D01*
X64296211Y-40700811D01*
X64228844Y-40362136D01*
X64037001Y-40075021D01*
X64036998Y-40075019D01*
X62522995Y-38561016D01*
X62569345Y-38328000D01*
X62455271Y-37754511D01*
X62130415Y-37268330D01*
X61644234Y-36943474D01*
X61070745Y-36829400D01*
X60701255Y-36829400D01*
X60127766Y-36943474D01*
X59641585Y-37268330D01*
X59616000Y-37306621D01*
X59590415Y-37268330D01*
X59275634Y-37058000D01*
X59590415Y-36847670D01*
X59915271Y-36361489D01*
X60029345Y-35788000D01*
X59915271Y-35214511D01*
X59590415Y-34728330D01*
X59104234Y-34403474D01*
X58530745Y-34289400D01*
X58229405Y-34289400D01*
X58252265Y-34279931D01*
X58320325Y-34038930D01*
X57528000Y-33246605D01*
X57513858Y-33260748D01*
X57334253Y-33081143D01*
X57348395Y-33067000D01*
X57334253Y-33052858D01*
X57513858Y-32873253D01*
X57528000Y-32887395D01*
X58320325Y-32095070D01*
X58252265Y-31854069D01*
X57769384Y-31682195D01*
X58225787Y-31225792D01*
X58225790Y-31225790D01*
X58249561Y-31190214D01*
X58306883Y-31328943D01*
X58569673Y-31592192D01*
X58913201Y-31734838D01*
X59285167Y-31735162D01*
X59406569Y-31685000D01*
X59784381Y-31685000D01*
X59284163Y-31891686D01*
X58894056Y-32281113D01*
X58804621Y-32496496D01*
X58740931Y-32342735D01*
X58499930Y-32274675D01*
X57707605Y-33067000D01*
X58499930Y-33859325D01*
X58740931Y-33791265D01*
X58799769Y-33625960D01*
X58892686Y-33850837D01*
X59282113Y-34240944D01*
X59791184Y-34452329D01*
X60342398Y-34452810D01*
X60851837Y-34242314D01*
X61084063Y-34010493D01*
X61314113Y-34240944D01*
X61823184Y-34452329D01*
X62374398Y-34452810D01*
X62883837Y-34242314D01*
X63273944Y-33852887D01*
X63369975Y-33621619D01*
X63464686Y-33850837D01*
X63854113Y-34240944D01*
X64363184Y-34452329D01*
X64914398Y-34452810D01*
X65423837Y-34242314D01*
X65813944Y-33852887D01*
X66025329Y-33343816D01*
X66025810Y-32792602D01*
X65815314Y-32283163D01*
X65521724Y-31989061D01*
X65457634Y-31666860D01*
X65393975Y-31571588D01*
X65265790Y-31379744D01*
X65265787Y-31379742D01*
X64060256Y-30174210D01*
X63859889Y-30040330D01*
X63773141Y-29982367D01*
X63698812Y-29967582D01*
X63434466Y-29914999D01*
X63434461Y-29915000D01*
X59406822Y-29915000D01*
X59286799Y-29865162D01*
X58914833Y-29864838D01*
X58571057Y-30006883D01*
X58485000Y-30092790D01*
X58485000Y-26035167D01*
X58664838Y-26035167D01*
X58806883Y-26378943D01*
X59069673Y-26642192D01*
X59344183Y-26756179D01*
X59361325Y-26767633D01*
X59381368Y-26771620D01*
X59413201Y-26784838D01*
X59447972Y-26784868D01*
X59700000Y-26835000D01*
X62893178Y-26835000D01*
X63013201Y-26884838D01*
X63385167Y-26885162D01*
X63728943Y-26743117D01*
X63992192Y-26480327D01*
X64134838Y-26136799D01*
X64135162Y-25764833D01*
X63993117Y-25421057D01*
X63730327Y-25157808D01*
X63386799Y-25015162D01*
X63014833Y-25014838D01*
X62893431Y-25065000D01*
X60137506Y-25065000D01*
X60130327Y-25057808D01*
X59786799Y-24915162D01*
X59414833Y-24914838D01*
X59071057Y-25056883D01*
X58807808Y-25319673D01*
X58665162Y-25663201D01*
X58664838Y-26035167D01*
X58485000Y-26035167D01*
X58485000Y-22500005D01*
X58485001Y-22500000D01*
X58417633Y-22161325D01*
X58403484Y-22140150D01*
X58225790Y-21874210D01*
X58225787Y-21874208D01*
X57061580Y-20710000D01*
X67430069Y-20710000D01*
X68179682Y-20859107D01*
X68179682Y-20859107D01*
G37*
X68179682Y-20859107D02*
X68755885Y-21244114D01*
X69140893Y-21820319D01*
X69290000Y-22569931D01*
X69290000Y-28542665D01*
X68622515Y-28265501D01*
X67773211Y-28264760D01*
X66988273Y-28589090D01*
X66387200Y-29189114D01*
X66061501Y-29973485D01*
X66060760Y-30822789D01*
X66385090Y-31607727D01*
X66985114Y-32208800D01*
X67769485Y-32534499D01*
X68618789Y-32535240D01*
X69290000Y-32257901D01*
X69290000Y-67430069D01*
X69140893Y-68179681D01*
X68755885Y-68755886D01*
X68179682Y-69140893D01*
X67430069Y-69290000D01*
X47258739Y-69290000D01*
X47334820Y-69106777D01*
X47335179Y-68695029D01*
X47310000Y-68634091D01*
X47310000Y-62434315D01*
X47259004Y-62177942D01*
X47233118Y-62047804D01*
X47135793Y-61902148D01*
X47014178Y-61720137D01*
X47014175Y-61720135D01*
X44154041Y-58860000D01*
X44256006Y-58860000D01*
X44546845Y-58802148D01*
X44793407Y-58637401D01*
X45995317Y-57435491D01*
X46193332Y-57435491D01*
X46399673Y-57642192D01*
X46743201Y-57784838D01*
X46751706Y-57784845D01*
X46665180Y-57993223D01*
X46664821Y-58404971D01*
X46822058Y-58785515D01*
X47112954Y-59076919D01*
X47493223Y-59234820D01*
X47662610Y-59234968D01*
X47590000Y-59600000D01*
X47590000Y-61033450D01*
X47565180Y-61093223D01*
X47564821Y-61504971D01*
X47722058Y-61885515D01*
X48012954Y-62176919D01*
X48393223Y-62334820D01*
X48804971Y-62335179D01*
X49185515Y-62177942D01*
X49444208Y-61919700D01*
X49880839Y-62357093D01*
X50573405Y-62644672D01*
X51101946Y-62645133D01*
X50779274Y-62967242D01*
X50415415Y-63843513D01*
X50414587Y-64792325D01*
X50776916Y-65669229D01*
X51447242Y-66340726D01*
X52323513Y-66704585D01*
X53272325Y-66705413D01*
X54149229Y-66343084D01*
X54820726Y-65672758D01*
X55184585Y-64796487D01*
X55185413Y-63847675D01*
X55097461Y-63634815D01*
X55621623Y-64158977D01*
X55666882Y-64386510D01*
X55885822Y-64714178D01*
X56213490Y-64933118D01*
X56600000Y-65010000D01*
X57900000Y-65010000D01*
X58286510Y-64933118D01*
X58614178Y-64714178D01*
X59354178Y-63974178D01*
X59573118Y-63646510D01*
X59650000Y-63260000D01*
X59650000Y-62658091D01*
X59660133Y-62647976D01*
X59922796Y-62911098D01*
X60413287Y-63114768D01*
X60944383Y-63115231D01*
X61435229Y-62912418D01*
X61700133Y-62647976D01*
X61962796Y-62911098D01*
X62453287Y-63114768D01*
X62984383Y-63115231D01*
X63475229Y-62912418D01*
X63851098Y-62537204D01*
X64054768Y-62046713D01*
X64055231Y-61515617D01*
X63852418Y-61024771D01*
X63477204Y-60648902D01*
X62986713Y-60445232D01*
X62960650Y-60445209D01*
X63034768Y-60266713D01*
X63035231Y-59735617D01*
X63014317Y-59685000D01*
X65023420Y-59685000D01*
X65540586Y-60202165D01*
X65465328Y-60383405D01*
X65464674Y-61133305D01*
X65751043Y-61826372D01*
X65859794Y-61935313D01*
X65027675Y-61934587D01*
X64150771Y-62296916D01*
X63479274Y-62967242D01*
X63115415Y-63843513D01*
X63114587Y-64792325D01*
X63476916Y-65669229D01*
X64147242Y-66340726D01*
X65023513Y-66704585D01*
X65972325Y-66705413D01*
X66849229Y-66343084D01*
X67520726Y-65672758D01*
X67884585Y-64796487D01*
X67885413Y-63847675D01*
X67523084Y-62970771D01*
X67197749Y-62644868D01*
X67723305Y-62645326D01*
X68416372Y-62358957D01*
X68947093Y-61829161D01*
X69234672Y-61136595D01*
X69235326Y-60386695D01*
X68948957Y-59693628D01*
X68419161Y-59162907D01*
X67726595Y-58875328D01*
X66976695Y-58874674D01*
X66792402Y-58950822D01*
X66015790Y-58174210D01*
X65998413Y-58162599D01*
X65945132Y-58126998D01*
X66051996Y-57869641D01*
X66052320Y-57497675D01*
X65910275Y-57153899D01*
X65716751Y-56960037D01*
X65860167Y-56960162D01*
X66203943Y-56818117D01*
X66467192Y-56555327D01*
X66609838Y-56211799D01*
X66610014Y-56010000D01*
X66875736Y-56010000D01*
X67185710Y-55948342D01*
X67377664Y-55820082D01*
X67413201Y-55834838D01*
X67785167Y-55835162D01*
X68128943Y-55693117D01*
X68392192Y-55430327D01*
X68534838Y-55086799D01*
X68535162Y-54714833D01*
X68393117Y-54371057D01*
X68130327Y-54107808D01*
X67786799Y-53965162D01*
X67414833Y-53964838D01*
X67071057Y-54106883D01*
X67066129Y-54111802D01*
X66865762Y-54151658D01*
X66752640Y-54227244D01*
X66602979Y-54327244D01*
X66540223Y-54390000D01*
X62661580Y-54390000D01*
X64625787Y-52425792D01*
X64625790Y-52425790D01*
X64817633Y-52138675D01*
X64842267Y-52014833D01*
X64885001Y-51800000D01*
X64885000Y-51799995D01*
X64885000Y-48240080D01*
X65113201Y-48334838D01*
X65485167Y-48335162D01*
X65828943Y-48193117D01*
X66092192Y-47930327D01*
X66234838Y-47586799D01*
X66235162Y-47214833D01*
X66129533Y-46959191D01*
X66134385Y-46957645D01*
X66139848Y-46953032D01*
X66154728Y-46944254D01*
X66170871Y-46938092D01*
X66177885Y-46936697D01*
X66182361Y-46933706D01*
X66234512Y-46913799D01*
X66291393Y-46878058D01*
X66331953Y-46839711D01*
X66336590Y-46836976D01*
X66340890Y-46831262D01*
X66353446Y-46819391D01*
X66367809Y-46809794D01*
X66374337Y-46806873D01*
X66378035Y-46802961D01*
X66424447Y-46771950D01*
X66471950Y-46724447D01*
X66477452Y-46716213D01*
X66487499Y-46717632D01*
X66492527Y-46719551D01*
X66499674Y-46719351D01*
X66516786Y-46721766D01*
X66598146Y-46747699D01*
X66626608Y-46750906D01*
X66607808Y-46769673D01*
X66465162Y-47113201D01*
X66464838Y-47485167D01*
X66606883Y-47828943D01*
X66869673Y-48092192D01*
X67213201Y-48234838D01*
X67585167Y-48235162D01*
X67928943Y-48093117D01*
X68192192Y-47830327D01*
X68334838Y-47486799D01*
X68334982Y-47321517D01*
X68350326Y-47319351D01*
X68357473Y-47319551D01*
X68362501Y-47317632D01*
X68417770Y-47309829D01*
X68481179Y-47287640D01*
X68529256Y-47259280D01*
X68534385Y-47257645D01*
X68539848Y-47253032D01*
X68554728Y-47244254D01*
X68570871Y-47238092D01*
X68577885Y-47236697D01*
X68582361Y-47233706D01*
X68634512Y-47213799D01*
X68691393Y-47178058D01*
X68731953Y-47139711D01*
X68736590Y-47136976D01*
X68740890Y-47131262D01*
X68753446Y-47119391D01*
X68767809Y-47109794D01*
X68774337Y-47106873D01*
X68778035Y-47102961D01*
X68824447Y-47071950D01*
X68871950Y-47024447D01*
X68902962Y-46978035D01*
X68906873Y-46974337D01*
X68909794Y-46967810D01*
X68919392Y-46953446D01*
X68931262Y-46940890D01*
X68936976Y-46936590D01*
X68939711Y-46931953D01*
X68978058Y-46891393D01*
X69013799Y-46834512D01*
X69033705Y-46782363D01*
X69036697Y-46777886D01*
X69038093Y-46770870D01*
X69044253Y-46754731D01*
X69053032Y-46739848D01*
X69057645Y-46734386D01*
X69059279Y-46729258D01*
X69087641Y-46681179D01*
X69109829Y-46617770D01*
X69117632Y-46562501D01*
X69119551Y-46557473D01*
X69119351Y-46550326D01*
X69121766Y-46533214D01*
X69127016Y-46516744D01*
X69130298Y-46510391D01*
X69130750Y-46505028D01*
X69147699Y-46451854D01*
X69155221Y-46385098D01*
X69150529Y-46329475D01*
X69151282Y-46324145D01*
X69149496Y-46317221D01*
X69148043Y-46300000D01*
X69149496Y-46282777D01*
X69151282Y-46275854D01*
X69150530Y-46270524D01*
X69155221Y-46214903D01*
X69147699Y-46148147D01*
X69130750Y-46094972D01*
X69130298Y-46089610D01*
X69127017Y-46083258D01*
X69121766Y-46066786D01*
X69119351Y-46049673D01*
X69119551Y-46042526D01*
X69117632Y-46037498D01*
X69109829Y-45982229D01*
X69087641Y-45918820D01*
X69059281Y-45870743D01*
X69057646Y-45865614D01*
X69053032Y-45860150D01*
X69044253Y-45845268D01*
X69038093Y-45829129D01*
X69036697Y-45822113D01*
X69033705Y-45817636D01*
X69013799Y-45765487D01*
X68978058Y-45708606D01*
X68969921Y-45700000D01*
X68978058Y-45691393D01*
X69013799Y-45634512D01*
X69033705Y-45582363D01*
X69036697Y-45577886D01*
X69038093Y-45570870D01*
X69044253Y-45554731D01*
X69053032Y-45539848D01*
X69057645Y-45534386D01*
X69059279Y-45529258D01*
X69087641Y-45481179D01*
X69109829Y-45417770D01*
X69117632Y-45362501D01*
X69119551Y-45357473D01*
X69119351Y-45350326D01*
X69121766Y-45333214D01*
X69127016Y-45316744D01*
X69130298Y-45310391D01*
X69130750Y-45305028D01*
X69147699Y-45251854D01*
X69155221Y-45185098D01*
X69150529Y-45129475D01*
X69151282Y-45124145D01*
X69149496Y-45117221D01*
X69148043Y-45100000D01*
X69149496Y-45082777D01*
X69151282Y-45075854D01*
X69150530Y-45070524D01*
X69155221Y-45014903D01*
X69147699Y-44948147D01*
X69130750Y-44894972D01*
X69130298Y-44889610D01*
X69127017Y-44883258D01*
X69121766Y-44866786D01*
X69119351Y-44849673D01*
X69119551Y-44842526D01*
X69117632Y-44837498D01*
X69109829Y-44782229D01*
X69087641Y-44718820D01*
X69059281Y-44670743D01*
X69057646Y-44665614D01*
X69053032Y-44660150D01*
X69044253Y-44645268D01*
X69038093Y-44629129D01*
X69036697Y-44622113D01*
X69033705Y-44617636D01*
X69013799Y-44565487D01*
X68978058Y-44508606D01*
X68939711Y-44468046D01*
X68936976Y-44463409D01*
X68931262Y-44459109D01*
X68919392Y-44446553D01*
X68909794Y-44432189D01*
X68906873Y-44425662D01*
X68902962Y-44421964D01*
X68871950Y-44375552D01*
X68824447Y-44328049D01*
X68778035Y-44297038D01*
X68774337Y-44293126D01*
X68767809Y-44290205D01*
X68753446Y-44280608D01*
X68740890Y-44268737D01*
X68736590Y-44263023D01*
X68731953Y-44260288D01*
X68691393Y-44221941D01*
X68634512Y-44186200D01*
X68582361Y-44166293D01*
X68577885Y-44163302D01*
X68570871Y-44161907D01*
X68554728Y-44155745D01*
X68539842Y-44146964D01*
X68534376Y-44142348D01*
X68529245Y-44140713D01*
X68481179Y-44112359D01*
X68417770Y-44090170D01*
X68362501Y-44082367D01*
X68357473Y-44080448D01*
X68350326Y-44080648D01*
X68333208Y-44078232D01*
X68251842Y-44052299D01*
X68185086Y-44044778D01*
X68148146Y-44047894D01*
X68155222Y-43985087D01*
X68151605Y-43942206D01*
X68160000Y-43900000D01*
X68160000Y-42462463D01*
X68192192Y-42430327D01*
X68334838Y-42086799D01*
X68335162Y-41714833D01*
X68193117Y-41371057D01*
X67930327Y-41107808D01*
X67586799Y-40965162D01*
X67214833Y-40964838D01*
X66871057Y-41106883D01*
X66607808Y-41369673D01*
X66465162Y-41713201D01*
X66464838Y-42085167D01*
X66606883Y-42428943D01*
X66640000Y-42462118D01*
X66640000Y-43134126D01*
X66638093Y-43129129D01*
X66636697Y-43122113D01*
X66633705Y-43117636D01*
X66613799Y-43065487D01*
X66578058Y-43008606D01*
X66539711Y-42968046D01*
X66536976Y-42963409D01*
X66531262Y-42959109D01*
X66519392Y-42946553D01*
X66509794Y-42932189D01*
X66506873Y-42925662D01*
X66502962Y-42921964D01*
X66471950Y-42875552D01*
X66424447Y-42828049D01*
X66378035Y-42797038D01*
X66374337Y-42793126D01*
X66367809Y-42790205D01*
X66353446Y-42780608D01*
X66340890Y-42768737D01*
X66336590Y-42763023D01*
X66331953Y-42760288D01*
X66291393Y-42721941D01*
X66234512Y-42686200D01*
X66182361Y-42666293D01*
X66177885Y-42663302D01*
X66170871Y-42661907D01*
X66154728Y-42655745D01*
X66139842Y-42646964D01*
X66134376Y-42642348D01*
X66129245Y-42640713D01*
X66081179Y-42612359D01*
X66017770Y-42590170D01*
X65962501Y-42582367D01*
X65957473Y-42580448D01*
X65950326Y-42580648D01*
X65933208Y-42578232D01*
X65851842Y-42552299D01*
X65785086Y-42544778D01*
X65760000Y-42546894D01*
X65760000Y-42500000D01*
X65702148Y-42209161D01*
X65537401Y-41962599D01*
X65135122Y-41560320D01*
X65135162Y-41514833D01*
X64993117Y-41171057D01*
X64730327Y-40907808D01*
X64386799Y-40765162D01*
X64296211Y-40765083D01*
X64296211Y-40700811D01*
X64228844Y-40362136D01*
X64037001Y-40075021D01*
X64036998Y-40075019D01*
X62522995Y-38561016D01*
X62569345Y-38328000D01*
X62455271Y-37754511D01*
X62130415Y-37268330D01*
X61644234Y-36943474D01*
X61070745Y-36829400D01*
X60701255Y-36829400D01*
X60127766Y-36943474D01*
X59641585Y-37268330D01*
X59616000Y-37306621D01*
X59590415Y-37268330D01*
X59275634Y-37058000D01*
X59590415Y-36847670D01*
X59915271Y-36361489D01*
X60029345Y-35788000D01*
X59915271Y-35214511D01*
X59590415Y-34728330D01*
X59104234Y-34403474D01*
X58530745Y-34289400D01*
X58229405Y-34289400D01*
X58252265Y-34279931D01*
X58320325Y-34038930D01*
X57528000Y-33246605D01*
X57513858Y-33260748D01*
X57334253Y-33081143D01*
X57348395Y-33067000D01*
X57334253Y-33052858D01*
X57513858Y-32873253D01*
X57528000Y-32887395D01*
X58320325Y-32095070D01*
X58252265Y-31854069D01*
X57769384Y-31682195D01*
X58225787Y-31225792D01*
X58225790Y-31225790D01*
X58249561Y-31190214D01*
X58306883Y-31328943D01*
X58569673Y-31592192D01*
X58913201Y-31734838D01*
X59285167Y-31735162D01*
X59406569Y-31685000D01*
X59784381Y-31685000D01*
X59284163Y-31891686D01*
X58894056Y-32281113D01*
X58804621Y-32496496D01*
X58740931Y-32342735D01*
X58499930Y-32274675D01*
X57707605Y-33067000D01*
X58499930Y-33859325D01*
X58740931Y-33791265D01*
X58799769Y-33625960D01*
X58892686Y-33850837D01*
X59282113Y-34240944D01*
X59791184Y-34452329D01*
X60342398Y-34452810D01*
X60851837Y-34242314D01*
X61084063Y-34010493D01*
X61314113Y-34240944D01*
X61823184Y-34452329D01*
X62374398Y-34452810D01*
X62883837Y-34242314D01*
X63273944Y-33852887D01*
X63369975Y-33621619D01*
X63464686Y-33850837D01*
X63854113Y-34240944D01*
X64363184Y-34452329D01*
X64914398Y-34452810D01*
X65423837Y-34242314D01*
X65813944Y-33852887D01*
X66025329Y-33343816D01*
X66025810Y-32792602D01*
X65815314Y-32283163D01*
X65521724Y-31989061D01*
X65457634Y-31666860D01*
X65393975Y-31571588D01*
X65265790Y-31379744D01*
X65265787Y-31379742D01*
X64060256Y-30174210D01*
X63859889Y-30040330D01*
X63773141Y-29982367D01*
X63698812Y-29967582D01*
X63434466Y-29914999D01*
X63434461Y-29915000D01*
X59406822Y-29915000D01*
X59286799Y-29865162D01*
X58914833Y-29864838D01*
X58571057Y-30006883D01*
X58485000Y-30092790D01*
X58485000Y-26035167D01*
X58664838Y-26035167D01*
X58806883Y-26378943D01*
X59069673Y-26642192D01*
X59344183Y-26756179D01*
X59361325Y-26767633D01*
X59381368Y-26771620D01*
X59413201Y-26784838D01*
X59447972Y-26784868D01*
X59700000Y-26835000D01*
X62893178Y-26835000D01*
X63013201Y-26884838D01*
X63385167Y-26885162D01*
X63728943Y-26743117D01*
X63992192Y-26480327D01*
X64134838Y-26136799D01*
X64135162Y-25764833D01*
X63993117Y-25421057D01*
X63730327Y-25157808D01*
X63386799Y-25015162D01*
X63014833Y-25014838D01*
X62893431Y-25065000D01*
X60137506Y-25065000D01*
X60130327Y-25057808D01*
X59786799Y-24915162D01*
X59414833Y-24914838D01*
X59071057Y-25056883D01*
X58807808Y-25319673D01*
X58665162Y-25663201D01*
X58664838Y-26035167D01*
X58485000Y-26035167D01*
X58485000Y-22500005D01*
X58485001Y-22500000D01*
X58417633Y-22161325D01*
X58403484Y-22140150D01*
X58225790Y-21874210D01*
X58225787Y-21874208D01*
X57061580Y-20710000D01*
X67430069Y-20710000D01*
X68179682Y-20859107D01*
G36*
X45290000Y-62852670D02*
X45290000Y-67890000D01*
X44418356Y-67890000D01*
X42989179Y-66460823D01*
X42661511Y-66241883D01*
X42275001Y-66165001D01*
X39793357Y-66165001D01*
X38202658Y-64574302D01*
X38177942Y-64514485D01*
X37887046Y-64223081D01*
X37506777Y-64065180D01*
X37095029Y-64064821D01*
X36714485Y-64222058D01*
X36423081Y-64512954D01*
X36265180Y-64893223D01*
X36264821Y-65304971D01*
X36299954Y-65390000D01*
X33935097Y-65390000D01*
X33935162Y-65314833D01*
X33810000Y-65011917D01*
X33810000Y-63232415D01*
X33869673Y-63292192D01*
X34213201Y-63434838D01*
X34585167Y-63435162D01*
X34928943Y-63293117D01*
X35192192Y-63030327D01*
X35304442Y-62760000D01*
X43750000Y-62760000D01*
X44040839Y-62702148D01*
X44141213Y-62635080D01*
X44235167Y-62635162D01*
X44578943Y-62493117D01*
X44754848Y-62317518D01*
X45290000Y-62852670D01*
X45290000Y-62852670D01*
G37*
X45290000Y-62852670D02*
X45290000Y-67890000D01*
X44418356Y-67890000D01*
X42989179Y-66460823D01*
X42661511Y-66241883D01*
X42275001Y-66165001D01*
X39793357Y-66165001D01*
X38202658Y-64574302D01*
X38177942Y-64514485D01*
X37887046Y-64223081D01*
X37506777Y-64065180D01*
X37095029Y-64064821D01*
X36714485Y-64222058D01*
X36423081Y-64512954D01*
X36265180Y-64893223D01*
X36264821Y-65304971D01*
X36299954Y-65390000D01*
X33935097Y-65390000D01*
X33935162Y-65314833D01*
X33810000Y-65011917D01*
X33810000Y-63232415D01*
X33869673Y-63292192D01*
X34213201Y-63434838D01*
X34585167Y-63435162D01*
X34928943Y-63293117D01*
X35192192Y-63030327D01*
X35304442Y-62760000D01*
X43750000Y-62760000D01*
X44040839Y-62702148D01*
X44141213Y-62635080D01*
X44235167Y-62635162D01*
X44578943Y-62493117D01*
X44754848Y-62317518D01*
X45290000Y-62852670D01*
G36*
X36152297Y-21063030D02*
X36065900Y-21497376D01*
X36065900Y-22102624D01*
X36152297Y-22536970D01*
X36398334Y-22905190D01*
X36605084Y-23043336D01*
X35174209Y-24474211D01*
X34982366Y-24761326D01*
X34982366Y-24761327D01*
X34914998Y-25100001D01*
X34914999Y-25100006D01*
X34914999Y-32865099D01*
X34614833Y-32864838D01*
X34271057Y-33006883D01*
X34007808Y-33269673D01*
X33957434Y-33390987D01*
X33674210Y-33674210D01*
X33482367Y-33961325D01*
X33480860Y-33968902D01*
X33414999Y-34300000D01*
X33415000Y-34300005D01*
X33415000Y-38359920D01*
X33186799Y-38265162D01*
X32814833Y-38264838D01*
X32471057Y-38406883D01*
X32437882Y-38440000D01*
X31362463Y-38440000D01*
X31330327Y-38407808D01*
X30986799Y-38265162D01*
X30614833Y-38264838D01*
X30271057Y-38406883D01*
X30007808Y-38669673D01*
X29865162Y-39013201D01*
X29864838Y-39385167D01*
X30006883Y-39728943D01*
X30269673Y-39992192D01*
X30613201Y-40134838D01*
X30985167Y-40135162D01*
X31328943Y-39993117D01*
X31362118Y-39960000D01*
X32437537Y-39960000D01*
X32469673Y-39992192D01*
X32790001Y-40125204D01*
X32790001Y-42050732D01*
X32790000Y-42050737D01*
X32843090Y-42317633D01*
X32857368Y-42389412D01*
X33027829Y-42644526D01*
X33049211Y-42676527D01*
X33362685Y-42990000D01*
X31787441Y-42990000D01*
X31486799Y-42865162D01*
X31114833Y-42864838D01*
X30771057Y-43006883D01*
X30587620Y-43190000D01*
X26987441Y-43190000D01*
X26686799Y-43065162D01*
X26314833Y-43064838D01*
X26134966Y-43139157D01*
X26135231Y-42835617D01*
X25932418Y-42344771D01*
X25687976Y-42099902D01*
X25931098Y-41857204D01*
X26134768Y-41366713D01*
X26135231Y-40835617D01*
X25932418Y-40344771D01*
X25687976Y-40099902D01*
X25931098Y-39857204D01*
X26134768Y-39366713D01*
X26135231Y-38835617D01*
X25932418Y-38344771D01*
X25687976Y-38099902D01*
X25931098Y-37857204D01*
X26134768Y-37366713D01*
X26135231Y-36835617D01*
X25932418Y-36344771D01*
X25687976Y-36099902D01*
X25931098Y-35857204D01*
X26134768Y-35366713D01*
X26135231Y-34835617D01*
X25932418Y-34344771D01*
X25687976Y-34099902D01*
X25931098Y-33857204D01*
X26134768Y-33366713D01*
X26135231Y-32835617D01*
X25932418Y-32344771D01*
X25687976Y-32099902D01*
X25931098Y-31857204D01*
X26134768Y-31366713D01*
X26135231Y-30835617D01*
X25932418Y-30344771D01*
X25687976Y-30099902D01*
X25931098Y-29857204D01*
X26134768Y-29366713D01*
X26135231Y-28835617D01*
X25932418Y-28344771D01*
X25892871Y-28305155D01*
X26038327Y-28159699D01*
X26135000Y-27926310D01*
X26135000Y-27385750D01*
X25976250Y-27227000D01*
X24927000Y-27227000D01*
X24927000Y-27247000D01*
X24673000Y-27247000D01*
X24673000Y-27227000D01*
X23623750Y-27227000D01*
X23465000Y-27385750D01*
X23465000Y-27926310D01*
X23561673Y-28159699D01*
X23706869Y-28304895D01*
X23668902Y-28342796D01*
X23465232Y-28833287D01*
X23464769Y-29364383D01*
X23667582Y-29855229D01*
X23912024Y-30100098D01*
X23668902Y-30342796D01*
X23465232Y-30833287D01*
X23464769Y-31364383D01*
X23667582Y-31855229D01*
X23912024Y-32100098D01*
X23668902Y-32342796D01*
X23465232Y-32833287D01*
X23464769Y-33364383D01*
X23667582Y-33855229D01*
X23912024Y-34100098D01*
X23668902Y-34342796D01*
X23465232Y-34833287D01*
X23464769Y-35364383D01*
X23667582Y-35855229D01*
X23912024Y-36100098D01*
X23668902Y-36342796D01*
X23465232Y-36833287D01*
X23464769Y-37364383D01*
X23667582Y-37855229D01*
X23912024Y-38100098D01*
X23668902Y-38342796D01*
X23465232Y-38833287D01*
X23464769Y-39364383D01*
X23667582Y-39855229D01*
X23912024Y-40100098D01*
X23668902Y-40342796D01*
X23465232Y-40833287D01*
X23464769Y-41364383D01*
X23667582Y-41855229D01*
X23912024Y-42100098D01*
X23668902Y-42342796D01*
X23465232Y-42833287D01*
X23464769Y-43364383D01*
X23667582Y-43855229D01*
X23912024Y-44100098D01*
X23668902Y-44342796D01*
X23465232Y-44833287D01*
X23464769Y-45364383D01*
X23667582Y-45855229D01*
X23912024Y-46100098D01*
X23668902Y-46342796D01*
X23465232Y-46833287D01*
X23464769Y-47364383D01*
X23667582Y-47855229D01*
X23912024Y-48100098D01*
X23668902Y-48342796D01*
X23465232Y-48833287D01*
X23464769Y-49364383D01*
X23667582Y-49855229D01*
X23912024Y-50100098D01*
X23668902Y-50342796D01*
X23465232Y-50833287D01*
X23464769Y-51364383D01*
X23667582Y-51855229D01*
X23912024Y-52100098D01*
X23668902Y-52342796D01*
X23465232Y-52833287D01*
X23464769Y-53364383D01*
X23667582Y-53855229D01*
X23912024Y-54100098D01*
X23668902Y-54342796D01*
X23465232Y-54833287D01*
X23464769Y-55364383D01*
X23667582Y-55855229D01*
X23912024Y-56100098D01*
X23668902Y-56342796D01*
X23465232Y-56833287D01*
X23464769Y-57364383D01*
X23667582Y-57855229D01*
X24042796Y-58231098D01*
X24533287Y-58434768D01*
X25064383Y-58435231D01*
X25555229Y-58232418D01*
X25688054Y-58099824D01*
X26013201Y-58234838D01*
X26385167Y-58235162D01*
X26728943Y-58093117D01*
X26992192Y-57830327D01*
X27134838Y-57486799D01*
X27135162Y-57114833D01*
X27010000Y-56811917D01*
X27010000Y-56235512D01*
X28361635Y-54883878D01*
X28519673Y-55042192D01*
X28585120Y-55069368D01*
X28227244Y-55427244D01*
X28051658Y-55690026D01*
X27990000Y-56000000D01*
X27990000Y-56247002D01*
X28051658Y-56556976D01*
X28187315Y-56760000D01*
X28227244Y-56819758D01*
X28230987Y-56823501D01*
X26327244Y-58727244D01*
X26151658Y-58990026D01*
X26090000Y-59300000D01*
X26090000Y-63800000D01*
X26151658Y-64109974D01*
X26327244Y-64372756D01*
X27927244Y-65972757D01*
X27982942Y-66009973D01*
X28190027Y-66148343D01*
X28500001Y-66210001D01*
X28599056Y-66210001D01*
X28606883Y-66228943D01*
X28767659Y-66390000D01*
X26691985Y-66390000D01*
X26734838Y-66286799D01*
X26735162Y-65914833D01*
X26593117Y-65571057D01*
X26330327Y-65307808D01*
X25986799Y-65165162D01*
X25614833Y-65164838D01*
X25271057Y-65306883D01*
X25007808Y-65569673D01*
X24865162Y-65913201D01*
X24864838Y-66285167D01*
X24908154Y-66390000D01*
X23135513Y-66390000D01*
X22117430Y-65371918D01*
X21993117Y-65071057D01*
X21730327Y-64807808D01*
X21386799Y-64665162D01*
X21014833Y-64664838D01*
X20710000Y-64790792D01*
X20710000Y-62876483D01*
X20841766Y-62964526D01*
X21415255Y-63078600D01*
X21784745Y-63078600D01*
X22358234Y-62964526D01*
X22844415Y-62639670D01*
X23169271Y-62153489D01*
X23283345Y-61580000D01*
X23169271Y-61006511D01*
X22844415Y-60520330D01*
X22529634Y-60310000D01*
X22844415Y-60099670D01*
X23169271Y-59613489D01*
X23283345Y-59040000D01*
X23169271Y-58466511D01*
X22844415Y-57980330D01*
X22529634Y-57770000D01*
X22844415Y-57559670D01*
X23169271Y-57073489D01*
X23283345Y-56500000D01*
X23169271Y-55926511D01*
X22844415Y-55440330D01*
X22529634Y-55230000D01*
X22844415Y-55019670D01*
X23169271Y-54533489D01*
X23283345Y-53960000D01*
X23169271Y-53386511D01*
X22844415Y-52900330D01*
X22529634Y-52690000D01*
X22844415Y-52479670D01*
X23169271Y-51993489D01*
X23283345Y-51420000D01*
X23169271Y-50846511D01*
X22844415Y-50360330D01*
X22529634Y-50150000D01*
X22844415Y-49939670D01*
X23169271Y-49453489D01*
X23283345Y-48880000D01*
X23169271Y-48306511D01*
X22844415Y-47820330D01*
X22529634Y-47610000D01*
X22844415Y-47399670D01*
X23169271Y-46913489D01*
X23283345Y-46340000D01*
X23169271Y-45766511D01*
X22844415Y-45280330D01*
X22529634Y-45070000D01*
X22844415Y-44859670D01*
X23169271Y-44373489D01*
X23283345Y-43800000D01*
X23169271Y-43226511D01*
X22844415Y-42740330D01*
X22529634Y-42530000D01*
X22844415Y-42319670D01*
X23169271Y-41833489D01*
X23283345Y-41260000D01*
X23169271Y-40686511D01*
X22844415Y-40200330D01*
X22529634Y-39990000D01*
X22844415Y-39779670D01*
X23169271Y-39293489D01*
X23283345Y-38720000D01*
X23169271Y-38146511D01*
X22844415Y-37660330D01*
X22529634Y-37450000D01*
X22844415Y-37239670D01*
X23169271Y-36753489D01*
X23283345Y-36180000D01*
X23169271Y-35606511D01*
X22844415Y-35120330D01*
X22529634Y-34910000D01*
X22844415Y-34699670D01*
X23169271Y-34213489D01*
X23283345Y-33640000D01*
X23169271Y-33066511D01*
X22844415Y-32580330D01*
X22529634Y-32370000D01*
X22844415Y-32159670D01*
X23169271Y-31673489D01*
X23283345Y-31100000D01*
X23169271Y-30526511D01*
X22844415Y-30040330D01*
X22529634Y-29830000D01*
X22844415Y-29619670D01*
X23169271Y-29133489D01*
X23283345Y-28560000D01*
X23169271Y-27986511D01*
X22844415Y-27500330D01*
X22529634Y-27290000D01*
X22844415Y-27079670D01*
X23169271Y-26593489D01*
X23232882Y-26273690D01*
X23465000Y-26273690D01*
X23465000Y-26814250D01*
X23623750Y-26973000D01*
X24673000Y-26973000D01*
X24673000Y-25923750D01*
X24927000Y-25923750D01*
X24927000Y-26973000D01*
X25976250Y-26973000D01*
X26135000Y-26814250D01*
X26135000Y-26273690D01*
X26038327Y-26040301D01*
X25859698Y-25861673D01*
X25626309Y-25765000D01*
X25085750Y-25765000D01*
X24927000Y-25923750D01*
X24673000Y-25923750D01*
X24514250Y-25765000D01*
X23973691Y-25765000D01*
X23740302Y-25861673D01*
X23561673Y-26040301D01*
X23465000Y-26273690D01*
X23232882Y-26273690D01*
X23283345Y-26020000D01*
X23169271Y-25446511D01*
X22844415Y-24960330D01*
X22822220Y-24945500D01*
X22975698Y-24881927D01*
X23154327Y-24703299D01*
X23251000Y-24469910D01*
X23251000Y-23765750D01*
X23092250Y-23607000D01*
X21727000Y-23607000D01*
X21727000Y-23627000D01*
X21473000Y-23627000D01*
X21473000Y-23607000D01*
X21453000Y-23607000D01*
X21453000Y-23353000D01*
X21473000Y-23353000D01*
X21473000Y-22140150D01*
X21727000Y-22140150D01*
X21727000Y-23353000D01*
X23092250Y-23353000D01*
X23251000Y-23194250D01*
X23251000Y-22490090D01*
X23154327Y-22256701D01*
X22975698Y-22078073D01*
X22742309Y-21981400D01*
X21885750Y-21981400D01*
X21727000Y-22140150D01*
X21473000Y-22140150D01*
X21314250Y-21981400D01*
X20827066Y-21981400D01*
X20859107Y-21820318D01*
X21244114Y-21244115D01*
X21820319Y-20859107D01*
X22569931Y-20710000D01*
X36388184Y-20710000D01*
X36152297Y-21063030D01*
X36152297Y-21063030D01*
G37*
X36152297Y-21063030D02*
X36065900Y-21497376D01*
X36065900Y-22102624D01*
X36152297Y-22536970D01*
X36398334Y-22905190D01*
X36605084Y-23043336D01*
X35174209Y-24474211D01*
X34982366Y-24761326D01*
X34982366Y-24761327D01*
X34914998Y-25100001D01*
X34914999Y-25100006D01*
X34914999Y-32865099D01*
X34614833Y-32864838D01*
X34271057Y-33006883D01*
X34007808Y-33269673D01*
X33957434Y-33390987D01*
X33674210Y-33674210D01*
X33482367Y-33961325D01*
X33480860Y-33968902D01*
X33414999Y-34300000D01*
X33415000Y-34300005D01*
X33415000Y-38359920D01*
X33186799Y-38265162D01*
X32814833Y-38264838D01*
X32471057Y-38406883D01*
X32437882Y-38440000D01*
X31362463Y-38440000D01*
X31330327Y-38407808D01*
X30986799Y-38265162D01*
X30614833Y-38264838D01*
X30271057Y-38406883D01*
X30007808Y-38669673D01*
X29865162Y-39013201D01*
X29864838Y-39385167D01*
X30006883Y-39728943D01*
X30269673Y-39992192D01*
X30613201Y-40134838D01*
X30985167Y-40135162D01*
X31328943Y-39993117D01*
X31362118Y-39960000D01*
X32437537Y-39960000D01*
X32469673Y-39992192D01*
X32790001Y-40125204D01*
X32790001Y-42050732D01*
X32790000Y-42050737D01*
X32843090Y-42317633D01*
X32857368Y-42389412D01*
X33027829Y-42644526D01*
X33049211Y-42676527D01*
X33362685Y-42990000D01*
X31787441Y-42990000D01*
X31486799Y-42865162D01*
X31114833Y-42864838D01*
X30771057Y-43006883D01*
X30587620Y-43190000D01*
X26987441Y-43190000D01*
X26686799Y-43065162D01*
X26314833Y-43064838D01*
X26134966Y-43139157D01*
X26135231Y-42835617D01*
X25932418Y-42344771D01*
X25687976Y-42099902D01*
X25931098Y-41857204D01*
X26134768Y-41366713D01*
X26135231Y-40835617D01*
X25932418Y-40344771D01*
X25687976Y-40099902D01*
X25931098Y-39857204D01*
X26134768Y-39366713D01*
X26135231Y-38835617D01*
X25932418Y-38344771D01*
X25687976Y-38099902D01*
X25931098Y-37857204D01*
X26134768Y-37366713D01*
X26135231Y-36835617D01*
X25932418Y-36344771D01*
X25687976Y-36099902D01*
X25931098Y-35857204D01*
X26134768Y-35366713D01*
X26135231Y-34835617D01*
X25932418Y-34344771D01*
X25687976Y-34099902D01*
X25931098Y-33857204D01*
X26134768Y-33366713D01*
X26135231Y-32835617D01*
X25932418Y-32344771D01*
X25687976Y-32099902D01*
X25931098Y-31857204D01*
X26134768Y-31366713D01*
X26135231Y-30835617D01*
X25932418Y-30344771D01*
X25687976Y-30099902D01*
X25931098Y-29857204D01*
X26134768Y-29366713D01*
X26135231Y-28835617D01*
X25932418Y-28344771D01*
X25892871Y-28305155D01*
X26038327Y-28159699D01*
X26135000Y-27926310D01*
X26135000Y-27385750D01*
X25976250Y-27227000D01*
X24927000Y-27227000D01*
X24927000Y-27247000D01*
X24673000Y-27247000D01*
X24673000Y-27227000D01*
X23623750Y-27227000D01*
X23465000Y-27385750D01*
X23465000Y-27926310D01*
X23561673Y-28159699D01*
X23706869Y-28304895D01*
X23668902Y-28342796D01*
X23465232Y-28833287D01*
X23464769Y-29364383D01*
X23667582Y-29855229D01*
X23912024Y-30100098D01*
X23668902Y-30342796D01*
X23465232Y-30833287D01*
X23464769Y-31364383D01*
X23667582Y-31855229D01*
X23912024Y-32100098D01*
X23668902Y-32342796D01*
X23465232Y-32833287D01*
X23464769Y-33364383D01*
X23667582Y-33855229D01*
X23912024Y-34100098D01*
X23668902Y-34342796D01*
X23465232Y-34833287D01*
X23464769Y-35364383D01*
X23667582Y-35855229D01*
X23912024Y-36100098D01*
X23668902Y-36342796D01*
X23465232Y-36833287D01*
X23464769Y-37364383D01*
X23667582Y-37855229D01*
X23912024Y-38100098D01*
X23668902Y-38342796D01*
X23465232Y-38833287D01*
X23464769Y-39364383D01*
X23667582Y-39855229D01*
X23912024Y-40100098D01*
X23668902Y-40342796D01*
X23465232Y-40833287D01*
X23464769Y-41364383D01*
X23667582Y-41855229D01*
X23912024Y-42100098D01*
X23668902Y-42342796D01*
X23465232Y-42833287D01*
X23464769Y-43364383D01*
X23667582Y-43855229D01*
X23912024Y-44100098D01*
X23668902Y-44342796D01*
X23465232Y-44833287D01*
X23464769Y-45364383D01*
X23667582Y-45855229D01*
X23912024Y-46100098D01*
X23668902Y-46342796D01*
X23465232Y-46833287D01*
X23464769Y-47364383D01*
X23667582Y-47855229D01*
X23912024Y-48100098D01*
X23668902Y-48342796D01*
X23465232Y-48833287D01*
X23464769Y-49364383D01*
X23667582Y-49855229D01*
X23912024Y-50100098D01*
X23668902Y-50342796D01*
X23465232Y-50833287D01*
X23464769Y-51364383D01*
X23667582Y-51855229D01*
X23912024Y-52100098D01*
X23668902Y-52342796D01*
X23465232Y-52833287D01*
X23464769Y-53364383D01*
X23667582Y-53855229D01*
X23912024Y-54100098D01*
X23668902Y-54342796D01*
X23465232Y-54833287D01*
X23464769Y-55364383D01*
X23667582Y-55855229D01*
X23912024Y-56100098D01*
X23668902Y-56342796D01*
X23465232Y-56833287D01*
X23464769Y-57364383D01*
X23667582Y-57855229D01*
X24042796Y-58231098D01*
X24533287Y-58434768D01*
X25064383Y-58435231D01*
X25555229Y-58232418D01*
X25688054Y-58099824D01*
X26013201Y-58234838D01*
X26385167Y-58235162D01*
X26728943Y-58093117D01*
X26992192Y-57830327D01*
X27134838Y-57486799D01*
X27135162Y-57114833D01*
X27010000Y-56811917D01*
X27010000Y-56235512D01*
X28361635Y-54883878D01*
X28519673Y-55042192D01*
X28585120Y-55069368D01*
X28227244Y-55427244D01*
X28051658Y-55690026D01*
X27990000Y-56000000D01*
X27990000Y-56247002D01*
X28051658Y-56556976D01*
X28187315Y-56760000D01*
X28227244Y-56819758D01*
X28230987Y-56823501D01*
X26327244Y-58727244D01*
X26151658Y-58990026D01*
X26090000Y-59300000D01*
X26090000Y-63800000D01*
X26151658Y-64109974D01*
X26327244Y-64372756D01*
X27927244Y-65972757D01*
X27982942Y-66009973D01*
X28190027Y-66148343D01*
X28500001Y-66210001D01*
X28599056Y-66210001D01*
X28606883Y-66228943D01*
X28767659Y-66390000D01*
X26691985Y-66390000D01*
X26734838Y-66286799D01*
X26735162Y-65914833D01*
X26593117Y-65571057D01*
X26330327Y-65307808D01*
X25986799Y-65165162D01*
X25614833Y-65164838D01*
X25271057Y-65306883D01*
X25007808Y-65569673D01*
X24865162Y-65913201D01*
X24864838Y-66285167D01*
X24908154Y-66390000D01*
X23135513Y-66390000D01*
X22117430Y-65371918D01*
X21993117Y-65071057D01*
X21730327Y-64807808D01*
X21386799Y-64665162D01*
X21014833Y-64664838D01*
X20710000Y-64790792D01*
X20710000Y-62876483D01*
X20841766Y-62964526D01*
X21415255Y-63078600D01*
X21784745Y-63078600D01*
X22358234Y-62964526D01*
X22844415Y-62639670D01*
X23169271Y-62153489D01*
X23283345Y-61580000D01*
X23169271Y-61006511D01*
X22844415Y-60520330D01*
X22529634Y-60310000D01*
X22844415Y-60099670D01*
X23169271Y-59613489D01*
X23283345Y-59040000D01*
X23169271Y-58466511D01*
X22844415Y-57980330D01*
X22529634Y-57770000D01*
X22844415Y-57559670D01*
X23169271Y-57073489D01*
X23283345Y-56500000D01*
X23169271Y-55926511D01*
X22844415Y-55440330D01*
X22529634Y-55230000D01*
X22844415Y-55019670D01*
X23169271Y-54533489D01*
X23283345Y-53960000D01*
X23169271Y-53386511D01*
X22844415Y-52900330D01*
X22529634Y-52690000D01*
X22844415Y-52479670D01*
X23169271Y-51993489D01*
X23283345Y-51420000D01*
X23169271Y-50846511D01*
X22844415Y-50360330D01*
X22529634Y-50150000D01*
X22844415Y-49939670D01*
X23169271Y-49453489D01*
X23283345Y-48880000D01*
X23169271Y-48306511D01*
X22844415Y-47820330D01*
X22529634Y-47610000D01*
X22844415Y-47399670D01*
X23169271Y-46913489D01*
X23283345Y-46340000D01*
X23169271Y-45766511D01*
X22844415Y-45280330D01*
X22529634Y-45070000D01*
X22844415Y-44859670D01*
X23169271Y-44373489D01*
X23283345Y-43800000D01*
X23169271Y-43226511D01*
X22844415Y-42740330D01*
X22529634Y-42530000D01*
X22844415Y-42319670D01*
X23169271Y-41833489D01*
X23283345Y-41260000D01*
X23169271Y-40686511D01*
X22844415Y-40200330D01*
X22529634Y-39990000D01*
X22844415Y-39779670D01*
X23169271Y-39293489D01*
X23283345Y-38720000D01*
X23169271Y-38146511D01*
X22844415Y-37660330D01*
X22529634Y-37450000D01*
X22844415Y-37239670D01*
X23169271Y-36753489D01*
X23283345Y-36180000D01*
X23169271Y-35606511D01*
X22844415Y-35120330D01*
X22529634Y-34910000D01*
X22844415Y-34699670D01*
X23169271Y-34213489D01*
X23283345Y-33640000D01*
X23169271Y-33066511D01*
X22844415Y-32580330D01*
X22529634Y-32370000D01*
X22844415Y-32159670D01*
X23169271Y-31673489D01*
X23283345Y-31100000D01*
X23169271Y-30526511D01*
X22844415Y-30040330D01*
X22529634Y-29830000D01*
X22844415Y-29619670D01*
X23169271Y-29133489D01*
X23283345Y-28560000D01*
X23169271Y-27986511D01*
X22844415Y-27500330D01*
X22529634Y-27290000D01*
X22844415Y-27079670D01*
X23169271Y-26593489D01*
X23232882Y-26273690D01*
X23465000Y-26273690D01*
X23465000Y-26814250D01*
X23623750Y-26973000D01*
X24673000Y-26973000D01*
X24673000Y-25923750D01*
X24927000Y-25923750D01*
X24927000Y-26973000D01*
X25976250Y-26973000D01*
X26135000Y-26814250D01*
X26135000Y-26273690D01*
X26038327Y-26040301D01*
X25859698Y-25861673D01*
X25626309Y-25765000D01*
X25085750Y-25765000D01*
X24927000Y-25923750D01*
X24673000Y-25923750D01*
X24514250Y-25765000D01*
X23973691Y-25765000D01*
X23740302Y-25861673D01*
X23561673Y-26040301D01*
X23465000Y-26273690D01*
X23232882Y-26273690D01*
X23283345Y-26020000D01*
X23169271Y-25446511D01*
X22844415Y-24960330D01*
X22822220Y-24945500D01*
X22975698Y-24881927D01*
X23154327Y-24703299D01*
X23251000Y-24469910D01*
X23251000Y-23765750D01*
X23092250Y-23607000D01*
X21727000Y-23607000D01*
X21727000Y-23627000D01*
X21473000Y-23627000D01*
X21473000Y-23607000D01*
X21453000Y-23607000D01*
X21453000Y-23353000D01*
X21473000Y-23353000D01*
X21473000Y-22140150D01*
X21727000Y-22140150D01*
X21727000Y-23353000D01*
X23092250Y-23353000D01*
X23251000Y-23194250D01*
X23251000Y-22490090D01*
X23154327Y-22256701D01*
X22975698Y-22078073D01*
X22742309Y-21981400D01*
X21885750Y-21981400D01*
X21727000Y-22140150D01*
X21473000Y-22140150D01*
X21314250Y-21981400D01*
X20827066Y-21981400D01*
X20859107Y-21820318D01*
X21244114Y-21244115D01*
X21820319Y-20859107D01*
X22569931Y-20710000D01*
X36388184Y-20710000D01*
X36152297Y-21063030D01*
G36*
X34327244Y-55727244D02*
X34151658Y-55990026D01*
X34090000Y-56300000D01*
X34090000Y-59764487D01*
X32427245Y-61427243D01*
X32427244Y-61427244D01*
X32251658Y-61690026D01*
X32190000Y-62000000D01*
X32190000Y-65012559D01*
X32065162Y-65313201D01*
X32065095Y-65390000D01*
X30283582Y-65390000D01*
X30193117Y-65171057D01*
X29930327Y-64907808D01*
X29586799Y-64765162D01*
X29579835Y-64765156D01*
X29409975Y-64651659D01*
X29100001Y-64590001D01*
X28835514Y-64590001D01*
X27710000Y-63464488D01*
X27710000Y-61634802D01*
X28514878Y-62439680D01*
X28514838Y-62485167D01*
X28656883Y-62828943D01*
X28919673Y-63092192D01*
X29263201Y-63234838D01*
X29635167Y-63235162D01*
X29978943Y-63093117D01*
X30242192Y-62830327D01*
X30384838Y-62486799D01*
X30385162Y-62114833D01*
X30243117Y-61771057D01*
X29980327Y-61507808D01*
X29636799Y-61365162D01*
X29589923Y-61365121D01*
X29508857Y-61284055D01*
X29728943Y-61193117D01*
X29762118Y-61160000D01*
X30250000Y-61160000D01*
X30540839Y-61102148D01*
X30787401Y-60937401D01*
X31514802Y-60210000D01*
X31550000Y-60210000D01*
X31840839Y-60152148D01*
X32087401Y-59987401D01*
X32439680Y-59635122D01*
X32485167Y-59635162D01*
X32828943Y-59493117D01*
X33092192Y-59230327D01*
X33234838Y-58886799D01*
X33235162Y-58514833D01*
X33093117Y-58171057D01*
X32830327Y-57907808D01*
X32486799Y-57765162D01*
X32224874Y-57764934D01*
X32200168Y-57705140D01*
X32363459Y-57672659D01*
X32513201Y-57734838D01*
X32885167Y-57735162D01*
X33228943Y-57593117D01*
X33492192Y-57330327D01*
X33634838Y-56986799D01*
X33635162Y-56614833D01*
X33493117Y-56271057D01*
X33230327Y-56007808D01*
X32886799Y-55865162D01*
X32514833Y-55864838D01*
X32171057Y-56006883D01*
X32166129Y-56011802D01*
X31965762Y-56051658D01*
X31908379Y-56090000D01*
X31461580Y-56090000D01*
X33166579Y-54385000D01*
X35669487Y-54385000D01*
X34327244Y-55727244D01*
X34327244Y-55727244D01*
G37*
X34327244Y-55727244D02*
X34151658Y-55990026D01*
X34090000Y-56300000D01*
X34090000Y-59764487D01*
X32427245Y-61427243D01*
X32427244Y-61427244D01*
X32251658Y-61690026D01*
X32190000Y-62000000D01*
X32190000Y-65012559D01*
X32065162Y-65313201D01*
X32065095Y-65390000D01*
X30283582Y-65390000D01*
X30193117Y-65171057D01*
X29930327Y-64907808D01*
X29586799Y-64765162D01*
X29579835Y-64765156D01*
X29409975Y-64651659D01*
X29100001Y-64590001D01*
X28835514Y-64590001D01*
X27710000Y-63464488D01*
X27710000Y-61634802D01*
X28514878Y-62439680D01*
X28514838Y-62485167D01*
X28656883Y-62828943D01*
X28919673Y-63092192D01*
X29263201Y-63234838D01*
X29635167Y-63235162D01*
X29978943Y-63093117D01*
X30242192Y-62830327D01*
X30384838Y-62486799D01*
X30385162Y-62114833D01*
X30243117Y-61771057D01*
X29980327Y-61507808D01*
X29636799Y-61365162D01*
X29589923Y-61365121D01*
X29508857Y-61284055D01*
X29728943Y-61193117D01*
X29762118Y-61160000D01*
X30250000Y-61160000D01*
X30540839Y-61102148D01*
X30787401Y-60937401D01*
X31514802Y-60210000D01*
X31550000Y-60210000D01*
X31840839Y-60152148D01*
X32087401Y-59987401D01*
X32439680Y-59635122D01*
X32485167Y-59635162D01*
X32828943Y-59493117D01*
X33092192Y-59230327D01*
X33234838Y-58886799D01*
X33235162Y-58514833D01*
X33093117Y-58171057D01*
X32830327Y-57907808D01*
X32486799Y-57765162D01*
X32224874Y-57764934D01*
X32200168Y-57705140D01*
X32363459Y-57672659D01*
X32513201Y-57734838D01*
X32885167Y-57735162D01*
X33228943Y-57593117D01*
X33492192Y-57330327D01*
X33634838Y-56986799D01*
X33635162Y-56614833D01*
X33493117Y-56271057D01*
X33230327Y-56007808D01*
X32886799Y-55865162D01*
X32514833Y-55864838D01*
X32171057Y-56006883D01*
X32166129Y-56011802D01*
X31965762Y-56051658D01*
X31908379Y-56090000D01*
X31461580Y-56090000D01*
X33166579Y-54385000D01*
X35669487Y-54385000D01*
X34327244Y-55727244D01*
G36*
X56793748Y-61765858D02*
X56779605Y-61780000D01*
X57488392Y-62488786D01*
X57507582Y-62535229D01*
X57630000Y-62657861D01*
X57630000Y-62841644D01*
X57481644Y-62990000D01*
X57309358Y-62990000D01*
X57277263Y-62957905D01*
X57293831Y-62951042D01*
X57355669Y-62715275D01*
X56600000Y-61959605D01*
X56585858Y-61973748D01*
X56406252Y-61794142D01*
X56420395Y-61780000D01*
X56406253Y-61765858D01*
X56585858Y-61586253D01*
X56600000Y-61600395D01*
X56614142Y-61586252D01*
X56793748Y-61765858D01*
X56793748Y-61765858D01*
G37*
X56793748Y-61765858D02*
X56779605Y-61780000D01*
X57488392Y-62488786D01*
X57507582Y-62535229D01*
X57630000Y-62657861D01*
X57630000Y-62841644D01*
X57481644Y-62990000D01*
X57309358Y-62990000D01*
X57277263Y-62957905D01*
X57293831Y-62951042D01*
X57355669Y-62715275D01*
X56600000Y-61959605D01*
X56585858Y-61973748D01*
X56406252Y-61794142D01*
X56420395Y-61780000D01*
X56406253Y-61765858D01*
X56585858Y-61586253D01*
X56600000Y-61600395D01*
X56614142Y-61586252D01*
X56793748Y-61765858D01*
G36*
X43574208Y-55325787D02*
X43574210Y-55325790D01*
X43803095Y-55478725D01*
X43861325Y-55517633D01*
X44200000Y-55585001D01*
X44200005Y-55585000D01*
X46283420Y-55585000D01*
X46613912Y-55915491D01*
X45680515Y-55915491D01*
X45389676Y-55973343D01*
X45143114Y-56138090D01*
X43941204Y-57340000D01*
X42000000Y-57340000D01*
X41709161Y-57397852D01*
X41462599Y-57562599D01*
X38585198Y-60440000D01*
X35628280Y-60440000D01*
X35648343Y-60409973D01*
X35677147Y-60265162D01*
X35710000Y-60100000D01*
X35710000Y-59950461D01*
X35913201Y-60034838D01*
X36285167Y-60035162D01*
X36628943Y-59893117D01*
X36892192Y-59630327D01*
X37034838Y-59286799D01*
X37035162Y-58914833D01*
X36985000Y-58793431D01*
X36985000Y-57266580D01*
X37508835Y-56742745D01*
X37628943Y-56693117D01*
X37892192Y-56430327D01*
X38034838Y-56086799D01*
X38035162Y-55714833D01*
X38035046Y-55714552D01*
X38328943Y-55593117D01*
X38592192Y-55330327D01*
X38734838Y-54986799D01*
X38735162Y-54614833D01*
X38640197Y-54385000D01*
X42633420Y-54385000D01*
X43574208Y-55325787D01*
X43574208Y-55325787D01*
G37*
X43574208Y-55325787D02*
X43574210Y-55325790D01*
X43803095Y-55478725D01*
X43861325Y-55517633D01*
X44200000Y-55585001D01*
X44200005Y-55585000D01*
X46283420Y-55585000D01*
X46613912Y-55915491D01*
X45680515Y-55915491D01*
X45389676Y-55973343D01*
X45143114Y-56138090D01*
X43941204Y-57340000D01*
X42000000Y-57340000D01*
X41709161Y-57397852D01*
X41462599Y-57562599D01*
X38585198Y-60440000D01*
X35628280Y-60440000D01*
X35648343Y-60409973D01*
X35677147Y-60265162D01*
X35710000Y-60100000D01*
X35710000Y-59950461D01*
X35913201Y-60034838D01*
X36285167Y-60035162D01*
X36628943Y-59893117D01*
X36892192Y-59630327D01*
X37034838Y-59286799D01*
X37035162Y-58914833D01*
X36985000Y-58793431D01*
X36985000Y-57266580D01*
X37508835Y-56742745D01*
X37628943Y-56693117D01*
X37892192Y-56430327D01*
X38034838Y-56086799D01*
X38035162Y-55714833D01*
X38035046Y-55714552D01*
X38328943Y-55593117D01*
X38592192Y-55330327D01*
X38734838Y-54986799D01*
X38735162Y-54614833D01*
X38640197Y-54385000D01*
X42633420Y-54385000D01*
X43574208Y-55325787D01*
G36*
X55773748Y-59985858D02*
X55759605Y-60000000D01*
X55773748Y-60014143D01*
X55594143Y-60193748D01*
X55580000Y-60179605D01*
X55565858Y-60193748D01*
X55386252Y-60014142D01*
X55400395Y-60000000D01*
X55386252Y-59985858D01*
X55565858Y-59806252D01*
X55580000Y-59820395D01*
X55594142Y-59806252D01*
X55773748Y-59985858D01*
X55773748Y-59985858D01*
G37*
X55773748Y-59985858D02*
X55759605Y-60000000D01*
X55773748Y-60014143D01*
X55594143Y-60193748D01*
X55580000Y-60179605D01*
X55565858Y-60193748D01*
X55386252Y-60014142D01*
X55400395Y-60000000D01*
X55386252Y-59985858D01*
X55565858Y-59806252D01*
X55580000Y-59820395D01*
X55594142Y-59806252D01*
X55773748Y-59985858D01*
G36*
X60160473Y-48449835D02*
X60212997Y-48491720D01*
X60288858Y-48530909D01*
X60302670Y-48541304D01*
X60307582Y-48546499D01*
X60312493Y-48548697D01*
X60357081Y-48582253D01*
X60417606Y-48611401D01*
X60471671Y-48625348D01*
X60476457Y-48627820D01*
X60483586Y-48628421D01*
X60500302Y-48632733D01*
X60516061Y-48639785D01*
X60522010Y-48643760D01*
X60527294Y-48644811D01*
X60578257Y-48667615D01*
X60643752Y-48682563D01*
X60699534Y-48684127D01*
X60704743Y-48685471D01*
X60711820Y-48684472D01*
X60729103Y-48684957D01*
X60746065Y-48688331D01*
X60752746Y-48690881D01*
X60758125Y-48690730D01*
X60812848Y-48701616D01*
X60880026Y-48701617D01*
X60934787Y-48690725D01*
X60940172Y-48690876D01*
X60946856Y-48688325D01*
X60963793Y-48684956D01*
X60981046Y-48684471D01*
X60988132Y-48685472D01*
X60993350Y-48684126D01*
X61049166Y-48682559D01*
X61114661Y-48667609D01*
X61114982Y-48667465D01*
X61114982Y-48933439D01*
X58633420Y-51415000D01*
X54200000Y-51415000D01*
X53861325Y-51482367D01*
X53574210Y-51674210D01*
X53382367Y-51961325D01*
X53315000Y-52300000D01*
X53382367Y-52638675D01*
X53574210Y-52925790D01*
X53861325Y-53117633D01*
X53874801Y-53120314D01*
X54269487Y-53515000D01*
X53600000Y-53515000D01*
X53261325Y-53582367D01*
X52974210Y-53774210D01*
X52974208Y-53774213D01*
X51875551Y-54872869D01*
X51514485Y-55022058D01*
X51223081Y-55312954D01*
X51065180Y-55693223D01*
X51064821Y-56104971D01*
X51222058Y-56485515D01*
X51512954Y-56776919D01*
X51893223Y-56934820D01*
X51942853Y-56934863D01*
X51807808Y-57069673D01*
X51665162Y-57413201D01*
X51665095Y-57490000D01*
X50483575Y-57490000D01*
X50534768Y-57366713D01*
X50535231Y-56835617D01*
X50332418Y-56344771D01*
X50087976Y-56099902D01*
X50331098Y-55857204D01*
X50534768Y-55366713D01*
X50535231Y-54835617D01*
X50332418Y-54344771D01*
X50087976Y-54099902D01*
X50331098Y-53857204D01*
X50534768Y-53366713D01*
X50535231Y-52835617D01*
X50332418Y-52344771D01*
X50087976Y-52099902D01*
X50331098Y-51857204D01*
X50534768Y-51366713D01*
X50535231Y-50835617D01*
X50332418Y-50344771D01*
X50087976Y-50099902D01*
X50331098Y-49857204D01*
X50342541Y-49829647D01*
X50480788Y-49802148D01*
X50727350Y-49637401D01*
X51104751Y-49260000D01*
X59000000Y-49260000D01*
X59290839Y-49202148D01*
X59537401Y-49037401D01*
X60144217Y-48430585D01*
X60160473Y-48449835D01*
X60160473Y-48449835D01*
G37*
X60160473Y-48449835D02*
X60212997Y-48491720D01*
X60288858Y-48530909D01*
X60302670Y-48541304D01*
X60307582Y-48546499D01*
X60312493Y-48548697D01*
X60357081Y-48582253D01*
X60417606Y-48611401D01*
X60471671Y-48625348D01*
X60476457Y-48627820D01*
X60483586Y-48628421D01*
X60500302Y-48632733D01*
X60516061Y-48639785D01*
X60522010Y-48643760D01*
X60527294Y-48644811D01*
X60578257Y-48667615D01*
X60643752Y-48682563D01*
X60699534Y-48684127D01*
X60704743Y-48685471D01*
X60711820Y-48684472D01*
X60729103Y-48684957D01*
X60746065Y-48688331D01*
X60752746Y-48690881D01*
X60758125Y-48690730D01*
X60812848Y-48701616D01*
X60880026Y-48701617D01*
X60934787Y-48690725D01*
X60940172Y-48690876D01*
X60946856Y-48688325D01*
X60963793Y-48684956D01*
X60981046Y-48684471D01*
X60988132Y-48685472D01*
X60993350Y-48684126D01*
X61049166Y-48682559D01*
X61114661Y-48667609D01*
X61114982Y-48667465D01*
X61114982Y-48933439D01*
X58633420Y-51415000D01*
X54200000Y-51415000D01*
X53861325Y-51482367D01*
X53574210Y-51674210D01*
X53382367Y-51961325D01*
X53315000Y-52300000D01*
X53382367Y-52638675D01*
X53574210Y-52925790D01*
X53861325Y-53117633D01*
X53874801Y-53120314D01*
X54269487Y-53515000D01*
X53600000Y-53515000D01*
X53261325Y-53582367D01*
X52974210Y-53774210D01*
X52974208Y-53774213D01*
X51875551Y-54872869D01*
X51514485Y-55022058D01*
X51223081Y-55312954D01*
X51065180Y-55693223D01*
X51064821Y-56104971D01*
X51222058Y-56485515D01*
X51512954Y-56776919D01*
X51893223Y-56934820D01*
X51942853Y-56934863D01*
X51807808Y-57069673D01*
X51665162Y-57413201D01*
X51665095Y-57490000D01*
X50483575Y-57490000D01*
X50534768Y-57366713D01*
X50535231Y-56835617D01*
X50332418Y-56344771D01*
X50087976Y-56099902D01*
X50331098Y-55857204D01*
X50534768Y-55366713D01*
X50535231Y-54835617D01*
X50332418Y-54344771D01*
X50087976Y-54099902D01*
X50331098Y-53857204D01*
X50534768Y-53366713D01*
X50535231Y-52835617D01*
X50332418Y-52344771D01*
X50087976Y-52099902D01*
X50331098Y-51857204D01*
X50534768Y-51366713D01*
X50535231Y-50835617D01*
X50332418Y-50344771D01*
X50087976Y-50099902D01*
X50331098Y-49857204D01*
X50342541Y-49829647D01*
X50480788Y-49802148D01*
X50727350Y-49637401D01*
X51104751Y-49260000D01*
X59000000Y-49260000D01*
X59290839Y-49202148D01*
X59537401Y-49037401D01*
X60144217Y-48430585D01*
X60160473Y-48449835D01*
G36*
X58139839Y-56510166D02*
X58281884Y-56853942D01*
X58544674Y-57117191D01*
X58888202Y-57259837D01*
X59260168Y-57260161D01*
X59563084Y-57134999D01*
X59625001Y-57134999D01*
X59664889Y-57127065D01*
X59664838Y-57185167D01*
X59718484Y-57315000D01*
X55836580Y-57315000D01*
X56766579Y-56385000D01*
X58139948Y-56385000D01*
X58139839Y-56510166D01*
X58139839Y-56510166D01*
G37*
X58139839Y-56510166D02*
X58281884Y-56853942D01*
X58544674Y-57117191D01*
X58888202Y-57259837D01*
X59260168Y-57260161D01*
X59563084Y-57134999D01*
X59625001Y-57134999D01*
X59664889Y-57127065D01*
X59664838Y-57185167D01*
X59718484Y-57315000D01*
X55836580Y-57315000D01*
X56766579Y-56385000D01*
X58139948Y-56385000D01*
X58139839Y-56510166D01*
G36*
X54333420Y-56315000D02*
X53424264Y-56315000D01*
X53085589Y-56382367D01*
X52995348Y-56442664D01*
X53127731Y-56123848D01*
X53966579Y-55285000D01*
X55363421Y-55285000D01*
X54333420Y-56315000D01*
X54333420Y-56315000D01*
G37*
X54333420Y-56315000D02*
X53424264Y-56315000D01*
X53085589Y-56382367D01*
X52995348Y-56442664D01*
X53127731Y-56123848D01*
X53966579Y-55285000D01*
X55363421Y-55285000D01*
X54333420Y-56315000D01*
G36*
X27840000Y-49739804D02*
X27840000Y-50437537D01*
X27807808Y-50469673D01*
X27665162Y-50813201D01*
X27664838Y-51185167D01*
X27806883Y-51528943D01*
X28069673Y-51792192D01*
X28413201Y-51934838D01*
X28785167Y-51935162D01*
X29128943Y-51793117D01*
X29392192Y-51530327D01*
X29534838Y-51186799D01*
X29535162Y-50814833D01*
X29393117Y-50471057D01*
X29360000Y-50437882D01*
X29360000Y-49425002D01*
X29302148Y-49134163D01*
X29202481Y-48985000D01*
X31793178Y-48985000D01*
X31913201Y-49034838D01*
X31919644Y-49034844D01*
X26130448Y-54824040D01*
X25932418Y-54344771D01*
X25687976Y-54099902D01*
X25931098Y-53857204D01*
X26134768Y-53366713D01*
X26135231Y-52835617D01*
X25932418Y-52344771D01*
X25687976Y-52099902D01*
X25931098Y-51857204D01*
X26134768Y-51366713D01*
X26135231Y-50835617D01*
X25932418Y-50344771D01*
X25687976Y-50099902D01*
X25931098Y-49857204D01*
X26134768Y-49366713D01*
X26135231Y-48835617D01*
X25932418Y-48344771D01*
X25687976Y-48099902D01*
X25931098Y-47857204D01*
X25938815Y-47838619D01*
X27840000Y-49739804D01*
X27840000Y-49739804D01*
G37*
X27840000Y-49739804D02*
X27840000Y-50437537D01*
X27807808Y-50469673D01*
X27665162Y-50813201D01*
X27664838Y-51185167D01*
X27806883Y-51528943D01*
X28069673Y-51792192D01*
X28413201Y-51934838D01*
X28785167Y-51935162D01*
X29128943Y-51793117D01*
X29392192Y-51530327D01*
X29534838Y-51186799D01*
X29535162Y-50814833D01*
X29393117Y-50471057D01*
X29360000Y-50437882D01*
X29360000Y-49425002D01*
X29302148Y-49134163D01*
X29202481Y-48985000D01*
X31793178Y-48985000D01*
X31913201Y-49034838D01*
X31919644Y-49034844D01*
X26130448Y-54824040D01*
X25932418Y-54344771D01*
X25687976Y-54099902D01*
X25931098Y-53857204D01*
X26134768Y-53366713D01*
X26135231Y-52835617D01*
X25932418Y-52344771D01*
X25687976Y-52099902D01*
X25931098Y-51857204D01*
X26134768Y-51366713D01*
X26135231Y-50835617D01*
X25932418Y-50344771D01*
X25687976Y-50099902D01*
X25931098Y-49857204D01*
X26134768Y-49366713D01*
X26135231Y-48835617D01*
X25932418Y-48344771D01*
X25687976Y-48099902D01*
X25931098Y-47857204D01*
X25938815Y-47838619D01*
X27840000Y-49739804D01*
G36*
X46286342Y-52064466D02*
X46549132Y-52327715D01*
X46892660Y-52470361D01*
X46940000Y-52470402D01*
X46940000Y-53687537D01*
X46907808Y-53719673D01*
X46851575Y-53855096D01*
X46650000Y-53814999D01*
X46649995Y-53815000D01*
X44566579Y-53815000D01*
X43761580Y-53010000D01*
X44800000Y-53010000D01*
X45109974Y-52948342D01*
X45372756Y-52772756D01*
X46226317Y-51919195D01*
X46286342Y-52064466D01*
X46286342Y-52064466D01*
G37*
X46286342Y-52064466D02*
X46549132Y-52327715D01*
X46892660Y-52470361D01*
X46940000Y-52470402D01*
X46940000Y-53687537D01*
X46907808Y-53719673D01*
X46851575Y-53855096D01*
X46650000Y-53814999D01*
X46649995Y-53815000D01*
X44566579Y-53815000D01*
X43761580Y-53010000D01*
X44800000Y-53010000D01*
X45109974Y-52948342D01*
X45372756Y-52772756D01*
X46226317Y-51919195D01*
X46286342Y-52064466D01*
G36*
X35986581Y-47579809D02*
X35921057Y-47606883D01*
X35657808Y-47869673D01*
X35515162Y-48213201D01*
X35515121Y-48260077D01*
X33685198Y-50090000D01*
X33155513Y-50090000D01*
X35892763Y-47352750D01*
X35986581Y-47579809D01*
X35986581Y-47579809D01*
G37*
X35986581Y-47579809D02*
X35921057Y-47606883D01*
X35657808Y-47869673D01*
X35515162Y-48213201D01*
X35515121Y-48260077D01*
X33685198Y-50090000D01*
X33155513Y-50090000D01*
X35892763Y-47352750D01*
X35986581Y-47579809D01*
G36*
X48312024Y-30100098D02*
X48068902Y-30342796D01*
X47865232Y-30833287D01*
X47864769Y-31364383D01*
X48067582Y-31855229D01*
X48312024Y-32100098D01*
X48068902Y-32342796D01*
X47865232Y-32833287D01*
X47864769Y-33364383D01*
X48067582Y-33855229D01*
X48312024Y-34100098D01*
X48068902Y-34342796D01*
X47865232Y-34833287D01*
X47864769Y-35364383D01*
X48067582Y-35855229D01*
X48312024Y-36100098D01*
X48068902Y-36342796D01*
X47865232Y-36833287D01*
X47864769Y-37364383D01*
X48067582Y-37855229D01*
X48312024Y-38100098D01*
X48068902Y-38342796D01*
X47865232Y-38833287D01*
X47864769Y-39364383D01*
X48067582Y-39855229D01*
X48312024Y-40100098D01*
X48068902Y-40342796D01*
X47865232Y-40833287D01*
X47864769Y-41364383D01*
X48067582Y-41855229D01*
X48312024Y-42100098D01*
X48068902Y-42342796D01*
X47865232Y-42833287D01*
X47864769Y-43364383D01*
X48067582Y-43855229D01*
X48312024Y-44100098D01*
X48068902Y-44342796D01*
X47865232Y-44833287D01*
X47864769Y-45364383D01*
X48067582Y-45855229D01*
X48312024Y-46100098D01*
X48068902Y-46342796D01*
X47865232Y-46833287D01*
X47864769Y-47364383D01*
X48067582Y-47855229D01*
X48312024Y-48100098D01*
X48156386Y-48255464D01*
X48152148Y-48234159D01*
X47987401Y-47987597D01*
X47062403Y-47062599D01*
X46815841Y-46897852D01*
X46525002Y-46840000D01*
X44300000Y-46840000D01*
X44009160Y-46897852D01*
X43762599Y-47062599D01*
X43735198Y-47090000D01*
X39062463Y-47090000D01*
X39030327Y-47057808D01*
X38915193Y-47010000D01*
X40500000Y-47010000D01*
X40809974Y-46948342D01*
X41072756Y-46772756D01*
X42890793Y-44954720D01*
X42912954Y-44976919D01*
X43293223Y-45134820D01*
X43704971Y-45135179D01*
X44085515Y-44977942D01*
X44376919Y-44687046D01*
X44534820Y-44306777D01*
X44535179Y-43895029D01*
X44385000Y-43531567D01*
X44385000Y-31466580D01*
X45866579Y-29985000D01*
X48197127Y-29985000D01*
X48312024Y-30100098D01*
X48312024Y-30100098D01*
G37*
X48312024Y-30100098D02*
X48068902Y-30342796D01*
X47865232Y-30833287D01*
X47864769Y-31364383D01*
X48067582Y-31855229D01*
X48312024Y-32100098D01*
X48068902Y-32342796D01*
X47865232Y-32833287D01*
X47864769Y-33364383D01*
X48067582Y-33855229D01*
X48312024Y-34100098D01*
X48068902Y-34342796D01*
X47865232Y-34833287D01*
X47864769Y-35364383D01*
X48067582Y-35855229D01*
X48312024Y-36100098D01*
X48068902Y-36342796D01*
X47865232Y-36833287D01*
X47864769Y-37364383D01*
X48067582Y-37855229D01*
X48312024Y-38100098D01*
X48068902Y-38342796D01*
X47865232Y-38833287D01*
X47864769Y-39364383D01*
X48067582Y-39855229D01*
X48312024Y-40100098D01*
X48068902Y-40342796D01*
X47865232Y-40833287D01*
X47864769Y-41364383D01*
X48067582Y-41855229D01*
X48312024Y-42100098D01*
X48068902Y-42342796D01*
X47865232Y-42833287D01*
X47864769Y-43364383D01*
X48067582Y-43855229D01*
X48312024Y-44100098D01*
X48068902Y-44342796D01*
X47865232Y-44833287D01*
X47864769Y-45364383D01*
X48067582Y-45855229D01*
X48312024Y-46100098D01*
X48068902Y-46342796D01*
X47865232Y-46833287D01*
X47864769Y-47364383D01*
X48067582Y-47855229D01*
X48312024Y-48100098D01*
X48156386Y-48255464D01*
X48152148Y-48234159D01*
X47987401Y-47987597D01*
X47062403Y-47062599D01*
X46815841Y-46897852D01*
X46525002Y-46840000D01*
X44300000Y-46840000D01*
X44009160Y-46897852D01*
X43762599Y-47062599D01*
X43735198Y-47090000D01*
X39062463Y-47090000D01*
X39030327Y-47057808D01*
X38915193Y-47010000D01*
X40500000Y-47010000D01*
X40809974Y-46948342D01*
X41072756Y-46772756D01*
X42890793Y-44954720D01*
X42912954Y-44976919D01*
X43293223Y-45134820D01*
X43704971Y-45135179D01*
X44085515Y-44977942D01*
X44376919Y-44687046D01*
X44534820Y-44306777D01*
X44535179Y-43895029D01*
X44385000Y-43531567D01*
X44385000Y-31466580D01*
X45866579Y-29985000D01*
X48197127Y-29985000D01*
X48312024Y-30100098D01*
G36*
X56232189Y-45809794D02*
X56246553Y-45819392D01*
X56259109Y-45831262D01*
X56263409Y-45836976D01*
X56268046Y-45839711D01*
X56308606Y-45878058D01*
X56365487Y-45913799D01*
X56417636Y-45933705D01*
X56422113Y-45936697D01*
X56429129Y-45938093D01*
X56445268Y-45944253D01*
X56460150Y-45953032D01*
X56465614Y-45957646D01*
X56470743Y-45959281D01*
X56518820Y-45987641D01*
X56582229Y-46009829D01*
X56637498Y-46017632D01*
X56642526Y-46019551D01*
X56649673Y-46019351D01*
X56666786Y-46021766D01*
X56748147Y-46047699D01*
X56814903Y-46055221D01*
X56851855Y-46052104D01*
X56844779Y-46114904D01*
X56848396Y-46157790D01*
X56840000Y-46200000D01*
X56840000Y-46437537D01*
X56807808Y-46469673D01*
X56665162Y-46813201D01*
X56664838Y-47185167D01*
X56806883Y-47528943D01*
X57017572Y-47740000D01*
X50789949Y-47740000D01*
X50499110Y-47797852D01*
X50252548Y-47962599D01*
X50101598Y-48113549D01*
X50087976Y-48099902D01*
X50331098Y-47857204D01*
X50534768Y-47366713D01*
X50535231Y-46835617D01*
X50462668Y-46660000D01*
X53637077Y-46660000D01*
X53706883Y-46828943D01*
X53969673Y-47092192D01*
X54313201Y-47234838D01*
X54685167Y-47235162D01*
X55028943Y-47093117D01*
X55292192Y-46830327D01*
X55414781Y-46535101D01*
X55485167Y-46535162D01*
X55828943Y-46393117D01*
X56092192Y-46130327D01*
X56226371Y-45807190D01*
X56232189Y-45809794D01*
X56232189Y-45809794D01*
G37*
X56232189Y-45809794D02*
X56246553Y-45819392D01*
X56259109Y-45831262D01*
X56263409Y-45836976D01*
X56268046Y-45839711D01*
X56308606Y-45878058D01*
X56365487Y-45913799D01*
X56417636Y-45933705D01*
X56422113Y-45936697D01*
X56429129Y-45938093D01*
X56445268Y-45944253D01*
X56460150Y-45953032D01*
X56465614Y-45957646D01*
X56470743Y-45959281D01*
X56518820Y-45987641D01*
X56582229Y-46009829D01*
X56637498Y-46017632D01*
X56642526Y-46019551D01*
X56649673Y-46019351D01*
X56666786Y-46021766D01*
X56748147Y-46047699D01*
X56814903Y-46055221D01*
X56851855Y-46052104D01*
X56844779Y-46114904D01*
X56848396Y-46157790D01*
X56840000Y-46200000D01*
X56840000Y-46437537D01*
X56807808Y-46469673D01*
X56665162Y-46813201D01*
X56664838Y-47185167D01*
X56806883Y-47528943D01*
X57017572Y-47740000D01*
X50789949Y-47740000D01*
X50499110Y-47797852D01*
X50252548Y-47962599D01*
X50101598Y-48113549D01*
X50087976Y-48099902D01*
X50331098Y-47857204D01*
X50534768Y-47366713D01*
X50535231Y-46835617D01*
X50462668Y-46660000D01*
X53637077Y-46660000D01*
X53706883Y-46828943D01*
X53969673Y-47092192D01*
X54313201Y-47234838D01*
X54685167Y-47235162D01*
X55028943Y-47093117D01*
X55292192Y-46830327D01*
X55414781Y-46535101D01*
X55485167Y-46535162D01*
X55828943Y-46393117D01*
X56092192Y-46130327D01*
X56226371Y-45807190D01*
X56232189Y-45809794D01*
G36*
X37241326Y-25284889D02*
X37601436Y-25525506D01*
X38026215Y-25610000D01*
X38375585Y-25610000D01*
X38800364Y-25525506D01*
X38937805Y-25433671D01*
X38915162Y-25488201D01*
X38914838Y-25860167D01*
X39056883Y-26203943D01*
X39319673Y-26467192D01*
X39663201Y-26609838D01*
X40035167Y-26610162D01*
X40378943Y-26468117D01*
X40387074Y-26460000D01*
X40811137Y-26460000D01*
X40834294Y-26516044D01*
X41097084Y-26779293D01*
X41440612Y-26921939D01*
X41812578Y-26922263D01*
X42016471Y-26838016D01*
X41564488Y-27290000D01*
X40400000Y-27290000D01*
X40090026Y-27351658D01*
X39976916Y-27427236D01*
X39827243Y-27527244D01*
X39771916Y-27582571D01*
X39471057Y-27706883D01*
X39207808Y-27969673D01*
X39065162Y-28313201D01*
X39064838Y-28685167D01*
X39206883Y-29028943D01*
X39469673Y-29292192D01*
X39813201Y-29434838D01*
X40185167Y-29435162D01*
X40528943Y-29293117D01*
X40792192Y-29030327D01*
X40842156Y-28910000D01*
X41900000Y-28910000D01*
X42209974Y-28848342D01*
X42472756Y-28672756D01*
X43528083Y-27617429D01*
X43828943Y-27493117D01*
X43864949Y-27457173D01*
X43864838Y-27585167D01*
X44006883Y-27928943D01*
X44269673Y-28192192D01*
X44613201Y-28334838D01*
X44985167Y-28335162D01*
X45328943Y-28193117D01*
X45586155Y-27936353D01*
X45601403Y-27939386D01*
X45634992Y-27939386D01*
X45691769Y-27928092D01*
X45710355Y-27930716D01*
X45719393Y-27928385D01*
X45728714Y-27928646D01*
X45732107Y-27927351D01*
X45740103Y-27943955D01*
X45764932Y-27976947D01*
X45764838Y-28085167D01*
X45818484Y-28215000D01*
X45500005Y-28215000D01*
X45500000Y-28214999D01*
X45192077Y-28276250D01*
X45161325Y-28282367D01*
X44874210Y-28474210D01*
X44874208Y-28474213D01*
X42874210Y-30474210D01*
X42682367Y-30761325D01*
X42682367Y-30761326D01*
X42614999Y-31100000D01*
X42615000Y-31100005D01*
X42615000Y-43290000D01*
X42600000Y-43290000D01*
X42290026Y-43351658D01*
X42176904Y-43427244D01*
X42027243Y-43527244D01*
X40164488Y-45390000D01*
X35900000Y-45390000D01*
X35590027Y-45451657D01*
X35327244Y-45627243D01*
X35049294Y-45905193D01*
X35077405Y-45763865D01*
X35110000Y-45600000D01*
X35110000Y-45087441D01*
X35234838Y-44786799D01*
X35235162Y-44414833D01*
X35204613Y-44340899D01*
X37372757Y-42172756D01*
X37548343Y-41909973D01*
X37587158Y-41714833D01*
X37610000Y-41600000D01*
X37610000Y-39587441D01*
X37717884Y-39327628D01*
X38672757Y-38372756D01*
X38848343Y-38109973D01*
X38910000Y-37800000D01*
X38910000Y-35135512D01*
X39172757Y-34872756D01*
X39172759Y-34872753D01*
X39972757Y-34072756D01*
X39972759Y-34072753D01*
X41628084Y-32417429D01*
X41928943Y-32293117D01*
X42192192Y-32030327D01*
X42334838Y-31686799D01*
X42335162Y-31314833D01*
X42193117Y-30971057D01*
X41930327Y-30707808D01*
X41586799Y-30565162D01*
X41214833Y-30564838D01*
X40871057Y-30706883D01*
X40607808Y-30969673D01*
X40482116Y-31272371D01*
X38827247Y-32927241D01*
X38827244Y-32927243D01*
X38027247Y-33727241D01*
X38027244Y-33727243D01*
X37527244Y-34227244D01*
X37351658Y-34490026D01*
X37290000Y-34800000D01*
X37290000Y-37464487D01*
X36571917Y-38182570D01*
X36271057Y-38306883D01*
X36210000Y-38367834D01*
X36210000Y-36812376D01*
X36292192Y-36730327D01*
X36342566Y-36609013D01*
X36425786Y-36525793D01*
X36425789Y-36525791D01*
X36617632Y-36238676D01*
X36639911Y-36126674D01*
X36685000Y-35900001D01*
X36684999Y-35899996D01*
X36684999Y-25466581D01*
X37091268Y-25060311D01*
X37241326Y-25284889D01*
X37241326Y-25284889D01*
G37*
X37241326Y-25284889D02*
X37601436Y-25525506D01*
X38026215Y-25610000D01*
X38375585Y-25610000D01*
X38800364Y-25525506D01*
X38937805Y-25433671D01*
X38915162Y-25488201D01*
X38914838Y-25860167D01*
X39056883Y-26203943D01*
X39319673Y-26467192D01*
X39663201Y-26609838D01*
X40035167Y-26610162D01*
X40378943Y-26468117D01*
X40387074Y-26460000D01*
X40811137Y-26460000D01*
X40834294Y-26516044D01*
X41097084Y-26779293D01*
X41440612Y-26921939D01*
X41812578Y-26922263D01*
X42016471Y-26838016D01*
X41564488Y-27290000D01*
X40400000Y-27290000D01*
X40090026Y-27351658D01*
X39976916Y-27427236D01*
X39827243Y-27527244D01*
X39771916Y-27582571D01*
X39471057Y-27706883D01*
X39207808Y-27969673D01*
X39065162Y-28313201D01*
X39064838Y-28685167D01*
X39206883Y-29028943D01*
X39469673Y-29292192D01*
X39813201Y-29434838D01*
X40185167Y-29435162D01*
X40528943Y-29293117D01*
X40792192Y-29030327D01*
X40842156Y-28910000D01*
X41900000Y-28910000D01*
X42209974Y-28848342D01*
X42472756Y-28672756D01*
X43528083Y-27617429D01*
X43828943Y-27493117D01*
X43864949Y-27457173D01*
X43864838Y-27585167D01*
X44006883Y-27928943D01*
X44269673Y-28192192D01*
X44613201Y-28334838D01*
X44985167Y-28335162D01*
X45328943Y-28193117D01*
X45586155Y-27936353D01*
X45601403Y-27939386D01*
X45634992Y-27939386D01*
X45691769Y-27928092D01*
X45710355Y-27930716D01*
X45719393Y-27928385D01*
X45728714Y-27928646D01*
X45732107Y-27927351D01*
X45740103Y-27943955D01*
X45764932Y-27976947D01*
X45764838Y-28085167D01*
X45818484Y-28215000D01*
X45500005Y-28215000D01*
X45500000Y-28214999D01*
X45192077Y-28276250D01*
X45161325Y-28282367D01*
X44874210Y-28474210D01*
X44874208Y-28474213D01*
X42874210Y-30474210D01*
X42682367Y-30761325D01*
X42682367Y-30761326D01*
X42614999Y-31100000D01*
X42615000Y-31100005D01*
X42615000Y-43290000D01*
X42600000Y-43290000D01*
X42290026Y-43351658D01*
X42176904Y-43427244D01*
X42027243Y-43527244D01*
X40164488Y-45390000D01*
X35900000Y-45390000D01*
X35590027Y-45451657D01*
X35327244Y-45627243D01*
X35049294Y-45905193D01*
X35077405Y-45763865D01*
X35110000Y-45600000D01*
X35110000Y-45087441D01*
X35234838Y-44786799D01*
X35235162Y-44414833D01*
X35204613Y-44340899D01*
X37372757Y-42172756D01*
X37548343Y-41909973D01*
X37587158Y-41714833D01*
X37610000Y-41600000D01*
X37610000Y-39587441D01*
X37717884Y-39327628D01*
X38672757Y-38372756D01*
X38848343Y-38109973D01*
X38910000Y-37800000D01*
X38910000Y-35135512D01*
X39172757Y-34872756D01*
X39172759Y-34872753D01*
X39972757Y-34072756D01*
X39972759Y-34072753D01*
X41628084Y-32417429D01*
X41928943Y-32293117D01*
X42192192Y-32030327D01*
X42334838Y-31686799D01*
X42335162Y-31314833D01*
X42193117Y-30971057D01*
X41930327Y-30707808D01*
X41586799Y-30565162D01*
X41214833Y-30564838D01*
X40871057Y-30706883D01*
X40607808Y-30969673D01*
X40482116Y-31272371D01*
X38827247Y-32927241D01*
X38827244Y-32927243D01*
X38027247Y-33727241D01*
X38027244Y-33727243D01*
X37527244Y-34227244D01*
X37351658Y-34490026D01*
X37290000Y-34800000D01*
X37290000Y-37464487D01*
X36571917Y-38182570D01*
X36271057Y-38306883D01*
X36210000Y-38367834D01*
X36210000Y-36812376D01*
X36292192Y-36730327D01*
X36342566Y-36609013D01*
X36425786Y-36525793D01*
X36425789Y-36525791D01*
X36617632Y-36238676D01*
X36639911Y-36126674D01*
X36685000Y-35900001D01*
X36684999Y-35899996D01*
X36684999Y-25466581D01*
X37091268Y-25060311D01*
X37241326Y-25284889D01*
G36*
X50199110Y-44102148D02*
X50489949Y-44160000D01*
X52685198Y-44160000D01*
X53665198Y-45140000D01*
X50534966Y-45140000D01*
X50535231Y-44835617D01*
X50332418Y-44344771D01*
X50087976Y-44099902D01*
X50131189Y-44056765D01*
X50199110Y-44102148D01*
X50199110Y-44102148D01*
G37*
X50199110Y-44102148D02*
X50489949Y-44160000D01*
X52685198Y-44160000D01*
X53665198Y-45140000D01*
X50534966Y-45140000D01*
X50535231Y-44835617D01*
X50332418Y-44344771D01*
X50087976Y-44099902D01*
X50131189Y-44056765D01*
X50199110Y-44102148D01*
G36*
X52432599Y-23567401D02*
X52679161Y-23732148D01*
X52970000Y-23790000D01*
X54015198Y-23790000D01*
X55940000Y-25714802D01*
X55940000Y-26837537D01*
X55907808Y-26869673D01*
X55765162Y-27213201D01*
X55764838Y-27585167D01*
X55906883Y-27928943D01*
X56169673Y-28192192D01*
X56513201Y-28334838D01*
X56715000Y-28335014D01*
X56715000Y-30233421D01*
X56614929Y-30333492D01*
X56615240Y-29977211D01*
X56290910Y-29192273D01*
X55690886Y-28591200D01*
X54906515Y-28265501D01*
X54057211Y-28264760D01*
X53272273Y-28589090D01*
X52973429Y-28887413D01*
X52969271Y-28866511D01*
X52644415Y-28380330D01*
X52622220Y-28365500D01*
X52775698Y-28301927D01*
X52954327Y-28123299D01*
X53051000Y-27889910D01*
X53051000Y-27185750D01*
X52892250Y-27027000D01*
X51527000Y-27027000D01*
X51527000Y-27047000D01*
X51273000Y-27047000D01*
X51273000Y-27027000D01*
X51253000Y-27027000D01*
X51253000Y-26773000D01*
X51273000Y-26773000D01*
X51273000Y-25560150D01*
X51527000Y-25560150D01*
X51527000Y-26773000D01*
X52892250Y-26773000D01*
X53051000Y-26614250D01*
X53051000Y-25910090D01*
X52954327Y-25676701D01*
X52775698Y-25498073D01*
X52542309Y-25401400D01*
X51685750Y-25401400D01*
X51527000Y-25560150D01*
X51273000Y-25560150D01*
X51114250Y-25401400D01*
X50257691Y-25401400D01*
X50024302Y-25498073D01*
X49845673Y-25676701D01*
X49809098Y-25765000D01*
X49485750Y-25765000D01*
X49327000Y-25923750D01*
X49327000Y-26973000D01*
X49347000Y-26973000D01*
X49347000Y-27227000D01*
X49327000Y-27227000D01*
X49327000Y-27247000D01*
X49073000Y-27247000D01*
X49073000Y-27227000D01*
X48023750Y-27227000D01*
X47865000Y-27385750D01*
X47865000Y-27926310D01*
X47961673Y-28159699D01*
X48016974Y-28215000D01*
X47581604Y-28215000D01*
X47634838Y-28086799D01*
X47635162Y-27714833D01*
X47493117Y-27371057D01*
X47425876Y-27303698D01*
X47435235Y-27291263D01*
X47440430Y-27286351D01*
X47442628Y-27281440D01*
X47476184Y-27236852D01*
X47505332Y-27176327D01*
X47519277Y-27122268D01*
X47521749Y-27117483D01*
X47522350Y-27110355D01*
X47526664Y-27093631D01*
X47533716Y-27077872D01*
X47537691Y-27071923D01*
X47538742Y-27066639D01*
X47561546Y-27015676D01*
X47576494Y-26950181D01*
X47578058Y-26894399D01*
X47579402Y-26889190D01*
X47578403Y-26882113D01*
X47578888Y-26864830D01*
X47582262Y-26847870D01*
X47584812Y-26841188D01*
X47584661Y-26835808D01*
X47595547Y-26781085D01*
X47595548Y-26713907D01*
X47584656Y-26659146D01*
X47584807Y-26653761D01*
X47582256Y-26647077D01*
X47578887Y-26630140D01*
X47578402Y-26612881D01*
X47579402Y-26605800D01*
X47578057Y-26600586D01*
X47576490Y-26544768D01*
X47561540Y-26479272D01*
X47538749Y-26428343D01*
X47537700Y-26423067D01*
X47533729Y-26417124D01*
X47526665Y-26401338D01*
X47522349Y-26384606D01*
X47521748Y-26377479D01*
X47519278Y-26372697D01*
X47505340Y-26318661D01*
X47483685Y-26273690D01*
X47865000Y-26273690D01*
X47865000Y-26814250D01*
X48023750Y-26973000D01*
X49073000Y-26973000D01*
X49073000Y-25923750D01*
X48914250Y-25765000D01*
X48373691Y-25765000D01*
X48140302Y-25861673D01*
X47961673Y-26040301D01*
X47865000Y-26273690D01*
X47483685Y-26273690D01*
X47476194Y-26258136D01*
X47442616Y-26213517D01*
X47440416Y-26208601D01*
X47435219Y-26203687D01*
X47424839Y-26189895D01*
X47416907Y-26174541D01*
X47414735Y-26167726D01*
X47411261Y-26163612D01*
X47385642Y-26114022D01*
X47343756Y-26061499D01*
X47301121Y-26025497D01*
X47297885Y-26021197D01*
X47291726Y-26017564D01*
X47278513Y-26006406D01*
X47267368Y-25993208D01*
X47263734Y-25987048D01*
X47259432Y-25983811D01*
X47223418Y-25941161D01*
X47170897Y-25899277D01*
X47121307Y-25873658D01*
X47117190Y-25870182D01*
X47110371Y-25868009D01*
X47095029Y-25860083D01*
X47081235Y-25849701D01*
X47076320Y-25844503D01*
X47071404Y-25842303D01*
X47026799Y-25808734D01*
X46966273Y-25779586D01*
X46912223Y-25765643D01*
X46907439Y-25763172D01*
X46900311Y-25762571D01*
X46883589Y-25758257D01*
X46867796Y-25751190D01*
X46861853Y-25747219D01*
X46856578Y-25746170D01*
X46805648Y-25723379D01*
X46740153Y-25708429D01*
X46684350Y-25706862D01*
X46679135Y-25705517D01*
X46672051Y-25706517D01*
X46654780Y-25706032D01*
X46637843Y-25702663D01*
X46631159Y-25700112D01*
X46625774Y-25700263D01*
X46571013Y-25689371D01*
X46503835Y-25689372D01*
X46449112Y-25700258D01*
X46443733Y-25700107D01*
X46437052Y-25702657D01*
X46420090Y-25706031D01*
X46402817Y-25706516D01*
X46395735Y-25705516D01*
X46390523Y-25706861D01*
X46334739Y-25708425D01*
X46269244Y-25723373D01*
X46218281Y-25746177D01*
X46212997Y-25747228D01*
X46207048Y-25751203D01*
X46191292Y-25758253D01*
X46174532Y-25762577D01*
X46167406Y-25763178D01*
X46162625Y-25765648D01*
X46108597Y-25779585D01*
X46060000Y-25802988D01*
X46060000Y-25079199D01*
X46113122Y-25106644D01*
X46126907Y-25117018D01*
X46131824Y-25122219D01*
X46136744Y-25124421D01*
X46181371Y-25158004D01*
X46241898Y-25187150D01*
X46295913Y-25201082D01*
X46300689Y-25203549D01*
X46307809Y-25204150D01*
X46324567Y-25208472D01*
X46340349Y-25215535D01*
X46346293Y-25219506D01*
X46351569Y-25220555D01*
X46402495Y-25243345D01*
X46467989Y-25258295D01*
X46523819Y-25259863D01*
X46529038Y-25261209D01*
X46536124Y-25260208D01*
X46553365Y-25260693D01*
X46570312Y-25264063D01*
X46576994Y-25266614D01*
X46582377Y-25266463D01*
X46637133Y-25277354D01*
X46704313Y-25277353D01*
X46759031Y-25266468D01*
X46764409Y-25266619D01*
X46771089Y-25264069D01*
X46788060Y-25260693D01*
X46805323Y-25260209D01*
X46812406Y-25261209D01*
X46817620Y-25259864D01*
X46873414Y-25258299D01*
X46938907Y-25243351D01*
X46989867Y-25220548D01*
X46995151Y-25219497D01*
X47001101Y-25215521D01*
X47016852Y-25208473D01*
X47033605Y-25204152D01*
X47040726Y-25203551D01*
X47045505Y-25201082D01*
X47099544Y-25187143D01*
X47160071Y-25157994D01*
X47204669Y-25124431D01*
X47209581Y-25122233D01*
X47214493Y-25117038D01*
X47228305Y-25106643D01*
X47243657Y-25098712D01*
X47250471Y-25096540D01*
X47254585Y-25093066D01*
X47304182Y-25067443D01*
X47356704Y-25025557D01*
X47392709Y-24982917D01*
X47397008Y-24979682D01*
X47400640Y-24973525D01*
X47411795Y-24960314D01*
X47424987Y-24949174D01*
X47431150Y-24945539D01*
X47434389Y-24941235D01*
X47477036Y-24905223D01*
X47518921Y-24852701D01*
X47544543Y-24803104D01*
X47548018Y-24798989D01*
X47550191Y-24792172D01*
X47558115Y-24776833D01*
X47568499Y-24763035D01*
X47573694Y-24758124D01*
X47575892Y-24753211D01*
X47609463Y-24708604D01*
X47638611Y-24648078D01*
X47652554Y-24594028D01*
X47655025Y-24589244D01*
X47655626Y-24582116D01*
X47659940Y-24565394D01*
X47667007Y-24549601D01*
X47670978Y-24543658D01*
X47672027Y-24538382D01*
X47694818Y-24487453D01*
X47709768Y-24421957D01*
X47711335Y-24366156D01*
X47712680Y-24360940D01*
X47711680Y-24353856D01*
X47712165Y-24336585D01*
X47715534Y-24319648D01*
X47718085Y-24312964D01*
X47717934Y-24307579D01*
X47728826Y-24252818D01*
X47728826Y-24234939D01*
X47985167Y-24235162D01*
X48328943Y-24093117D01*
X48592192Y-23830327D01*
X48734838Y-23486799D01*
X48735123Y-23160000D01*
X50093508Y-23160000D01*
X50256400Y-23227639D01*
X50628366Y-23227963D01*
X50972142Y-23085918D01*
X50998105Y-23060000D01*
X51925198Y-23060000D01*
X52432599Y-23567401D01*
X52432599Y-23567401D01*
G37*
X52432599Y-23567401D02*
X52679161Y-23732148D01*
X52970000Y-23790000D01*
X54015198Y-23790000D01*
X55940000Y-25714802D01*
X55940000Y-26837537D01*
X55907808Y-26869673D01*
X55765162Y-27213201D01*
X55764838Y-27585167D01*
X55906883Y-27928943D01*
X56169673Y-28192192D01*
X56513201Y-28334838D01*
X56715000Y-28335014D01*
X56715000Y-30233421D01*
X56614929Y-30333492D01*
X56615240Y-29977211D01*
X56290910Y-29192273D01*
X55690886Y-28591200D01*
X54906515Y-28265501D01*
X54057211Y-28264760D01*
X53272273Y-28589090D01*
X52973429Y-28887413D01*
X52969271Y-28866511D01*
X52644415Y-28380330D01*
X52622220Y-28365500D01*
X52775698Y-28301927D01*
X52954327Y-28123299D01*
X53051000Y-27889910D01*
X53051000Y-27185750D01*
X52892250Y-27027000D01*
X51527000Y-27027000D01*
X51527000Y-27047000D01*
X51273000Y-27047000D01*
X51273000Y-27027000D01*
X51253000Y-27027000D01*
X51253000Y-26773000D01*
X51273000Y-26773000D01*
X51273000Y-25560150D01*
X51527000Y-25560150D01*
X51527000Y-26773000D01*
X52892250Y-26773000D01*
X53051000Y-26614250D01*
X53051000Y-25910090D01*
X52954327Y-25676701D01*
X52775698Y-25498073D01*
X52542309Y-25401400D01*
X51685750Y-25401400D01*
X51527000Y-25560150D01*
X51273000Y-25560150D01*
X51114250Y-25401400D01*
X50257691Y-25401400D01*
X50024302Y-25498073D01*
X49845673Y-25676701D01*
X49809098Y-25765000D01*
X49485750Y-25765000D01*
X49327000Y-25923750D01*
X49327000Y-26973000D01*
X49347000Y-26973000D01*
X49347000Y-27227000D01*
X49327000Y-27227000D01*
X49327000Y-27247000D01*
X49073000Y-27247000D01*
X49073000Y-27227000D01*
X48023750Y-27227000D01*
X47865000Y-27385750D01*
X47865000Y-27926310D01*
X47961673Y-28159699D01*
X48016974Y-28215000D01*
X47581604Y-28215000D01*
X47634838Y-28086799D01*
X47635162Y-27714833D01*
X47493117Y-27371057D01*
X47425876Y-27303698D01*
X47435235Y-27291263D01*
X47440430Y-27286351D01*
X47442628Y-27281440D01*
X47476184Y-27236852D01*
X47505332Y-27176327D01*
X47519277Y-27122268D01*
X47521749Y-27117483D01*
X47522350Y-27110355D01*
X47526664Y-27093631D01*
X47533716Y-27077872D01*
X47537691Y-27071923D01*
X47538742Y-27066639D01*
X47561546Y-27015676D01*
X47576494Y-26950181D01*
X47578058Y-26894399D01*
X47579402Y-26889190D01*
X47578403Y-26882113D01*
X47578888Y-26864830D01*
X47582262Y-26847870D01*
X47584812Y-26841188D01*
X47584661Y-26835808D01*
X47595547Y-26781085D01*
X47595548Y-26713907D01*
X47584656Y-26659146D01*
X47584807Y-26653761D01*
X47582256Y-26647077D01*
X47578887Y-26630140D01*
X47578402Y-26612881D01*
X47579402Y-26605800D01*
X47578057Y-26600586D01*
X47576490Y-26544768D01*
X47561540Y-26479272D01*
X47538749Y-26428343D01*
X47537700Y-26423067D01*
X47533729Y-26417124D01*
X47526665Y-26401338D01*
X47522349Y-26384606D01*
X47521748Y-26377479D01*
X47519278Y-26372697D01*
X47505340Y-26318661D01*
X47483685Y-26273690D01*
X47865000Y-26273690D01*
X47865000Y-26814250D01*
X48023750Y-26973000D01*
X49073000Y-26973000D01*
X49073000Y-25923750D01*
X48914250Y-25765000D01*
X48373691Y-25765000D01*
X48140302Y-25861673D01*
X47961673Y-26040301D01*
X47865000Y-26273690D01*
X47483685Y-26273690D01*
X47476194Y-26258136D01*
X47442616Y-26213517D01*
X47440416Y-26208601D01*
X47435219Y-26203687D01*
X47424839Y-26189895D01*
X47416907Y-26174541D01*
X47414735Y-26167726D01*
X47411261Y-26163612D01*
X47385642Y-26114022D01*
X47343756Y-26061499D01*
X47301121Y-26025497D01*
X47297885Y-26021197D01*
X47291726Y-26017564D01*
X47278513Y-26006406D01*
X47267368Y-25993208D01*
X47263734Y-25987048D01*
X47259432Y-25983811D01*
X47223418Y-25941161D01*
X47170897Y-25899277D01*
X47121307Y-25873658D01*
X47117190Y-25870182D01*
X47110371Y-25868009D01*
X47095029Y-25860083D01*
X47081235Y-25849701D01*
X47076320Y-25844503D01*
X47071404Y-25842303D01*
X47026799Y-25808734D01*
X46966273Y-25779586D01*
X46912223Y-25765643D01*
X46907439Y-25763172D01*
X46900311Y-25762571D01*
X46883589Y-25758257D01*
X46867796Y-25751190D01*
X46861853Y-25747219D01*
X46856578Y-25746170D01*
X46805648Y-25723379D01*
X46740153Y-25708429D01*
X46684350Y-25706862D01*
X46679135Y-25705517D01*
X46672051Y-25706517D01*
X46654780Y-25706032D01*
X46637843Y-25702663D01*
X46631159Y-25700112D01*
X46625774Y-25700263D01*
X46571013Y-25689371D01*
X46503835Y-25689372D01*
X46449112Y-25700258D01*
X46443733Y-25700107D01*
X46437052Y-25702657D01*
X46420090Y-25706031D01*
X46402817Y-25706516D01*
X46395735Y-25705516D01*
X46390523Y-25706861D01*
X46334739Y-25708425D01*
X46269244Y-25723373D01*
X46218281Y-25746177D01*
X46212997Y-25747228D01*
X46207048Y-25751203D01*
X46191292Y-25758253D01*
X46174532Y-25762577D01*
X46167406Y-25763178D01*
X46162625Y-25765648D01*
X46108597Y-25779585D01*
X46060000Y-25802988D01*
X46060000Y-25079199D01*
X46113122Y-25106644D01*
X46126907Y-25117018D01*
X46131824Y-25122219D01*
X46136744Y-25124421D01*
X46181371Y-25158004D01*
X46241898Y-25187150D01*
X46295913Y-25201082D01*
X46300689Y-25203549D01*
X46307809Y-25204150D01*
X46324567Y-25208472D01*
X46340349Y-25215535D01*
X46346293Y-25219506D01*
X46351569Y-25220555D01*
X46402495Y-25243345D01*
X46467989Y-25258295D01*
X46523819Y-25259863D01*
X46529038Y-25261209D01*
X46536124Y-25260208D01*
X46553365Y-25260693D01*
X46570312Y-25264063D01*
X46576994Y-25266614D01*
X46582377Y-25266463D01*
X46637133Y-25277354D01*
X46704313Y-25277353D01*
X46759031Y-25266468D01*
X46764409Y-25266619D01*
X46771089Y-25264069D01*
X46788060Y-25260693D01*
X46805323Y-25260209D01*
X46812406Y-25261209D01*
X46817620Y-25259864D01*
X46873414Y-25258299D01*
X46938907Y-25243351D01*
X46989867Y-25220548D01*
X46995151Y-25219497D01*
X47001101Y-25215521D01*
X47016852Y-25208473D01*
X47033605Y-25204152D01*
X47040726Y-25203551D01*
X47045505Y-25201082D01*
X47099544Y-25187143D01*
X47160071Y-25157994D01*
X47204669Y-25124431D01*
X47209581Y-25122233D01*
X47214493Y-25117038D01*
X47228305Y-25106643D01*
X47243657Y-25098712D01*
X47250471Y-25096540D01*
X47254585Y-25093066D01*
X47304182Y-25067443D01*
X47356704Y-25025557D01*
X47392709Y-24982917D01*
X47397008Y-24979682D01*
X47400640Y-24973525D01*
X47411795Y-24960314D01*
X47424987Y-24949174D01*
X47431150Y-24945539D01*
X47434389Y-24941235D01*
X47477036Y-24905223D01*
X47518921Y-24852701D01*
X47544543Y-24803104D01*
X47548018Y-24798989D01*
X47550191Y-24792172D01*
X47558115Y-24776833D01*
X47568499Y-24763035D01*
X47573694Y-24758124D01*
X47575892Y-24753211D01*
X47609463Y-24708604D01*
X47638611Y-24648078D01*
X47652554Y-24594028D01*
X47655025Y-24589244D01*
X47655626Y-24582116D01*
X47659940Y-24565394D01*
X47667007Y-24549601D01*
X47670978Y-24543658D01*
X47672027Y-24538382D01*
X47694818Y-24487453D01*
X47709768Y-24421957D01*
X47711335Y-24366156D01*
X47712680Y-24360940D01*
X47711680Y-24353856D01*
X47712165Y-24336585D01*
X47715534Y-24319648D01*
X47718085Y-24312964D01*
X47717934Y-24307579D01*
X47728826Y-24252818D01*
X47728826Y-24234939D01*
X47985167Y-24235162D01*
X48328943Y-24093117D01*
X48592192Y-23830327D01*
X48734838Y-23486799D01*
X48735123Y-23160000D01*
X50093508Y-23160000D01*
X50256400Y-23227639D01*
X50628366Y-23227963D01*
X50972142Y-23085918D01*
X50998105Y-23060000D01*
X51925198Y-23060000D01*
X52432599Y-23567401D01*
G36*
X41182367Y-23261325D02*
X41182367Y-23261326D01*
X41114999Y-23600000D01*
X41115000Y-23600005D01*
X41115000Y-24940000D01*
X40437419Y-24940000D01*
X40380327Y-24882808D01*
X40036799Y-24740162D01*
X39664833Y-24739838D01*
X39417555Y-24842011D01*
X39485585Y-24500000D01*
X39401091Y-24075221D01*
X39160474Y-23715111D01*
X38800364Y-23474494D01*
X38697539Y-23454041D01*
X39176579Y-22975000D01*
X41373682Y-22975000D01*
X41182367Y-23261325D01*
X41182367Y-23261325D01*
G37*
X41182367Y-23261325D02*
X41182367Y-23261326D01*
X41114999Y-23600000D01*
X41115000Y-23600005D01*
X41115000Y-24940000D01*
X40437419Y-24940000D01*
X40380327Y-24882808D01*
X40036799Y-24740162D01*
X39664833Y-24739838D01*
X39417555Y-24842011D01*
X39485585Y-24500000D01*
X39401091Y-24075221D01*
X39160474Y-23715111D01*
X38800364Y-23474494D01*
X38697539Y-23454041D01*
X39176579Y-22975000D01*
X41373682Y-22975000D01*
X41182367Y-23261325D01*
G36*
X56715000Y-22866579D02*
X56715000Y-24340198D01*
X54867401Y-22492599D01*
X54620839Y-22327852D01*
X54330000Y-22270000D01*
X53284802Y-22270000D01*
X52780579Y-21765777D01*
X55614197Y-21765777D01*
X56715000Y-22866579D01*
X56715000Y-22866579D01*
G37*
X56715000Y-22866579D02*
X56715000Y-24340198D01*
X54867401Y-22492599D01*
X54620839Y-22327852D01*
X54330000Y-22270000D01*
X53284802Y-22270000D01*
X52780579Y-21765777D01*
X55614197Y-21765777D01*
X56715000Y-22866579D01*
M02*
