G04 #@! TF.FileFunction,Soldermask,Top*
%FSLAX46Y46*%
G04 Gerber Fmt 4.6, Leading zero omitted, Abs format (unit mm)*
G04 Created by KiCad (PCBNEW 4.0.3-stable) date 09/30/16 23:12:01*
%MOMM*%
%LPD*%
G01*
G04 APERTURE LIST*
%ADD10C,0.100000*%
%ADD11R,1.200000X2.400000*%
%ADD12R,2.000000X1.400000*%
%ADD13R,1.150000X1.200000*%
%ADD14R,1.400000X2.000000*%
%ADD15R,1.200000X1.150000*%
%ADD16R,1.650000X1.400000*%
%ADD17R,1.598880X1.598880*%
%ADD18R,2.599640X2.000200*%
%ADD19R,2.000200X2.599640*%
%ADD20R,3.600000X2.400000*%
%ADD21C,1.800000*%
%ADD22C,2.900000*%
%ADD23C,3.900000*%
%ADD24R,2.400000X3.600000*%
%ADD25R,2.432000X2.127200*%
%ADD26O,2.432000X2.127200*%
%ADD27R,1.400000X4.400000*%
%ADD28R,2.400000X3.800000*%
%ADD29R,0.800000X1.750000*%
%ADD30O,1.650000X1.350000*%
%ADD31O,1.400000X1.950000*%
%ADD32C,1.901140*%
%ADD33C,3.399740*%
%ADD34R,1.600000X1.300000*%
%ADD35R,1.300000X1.600000*%
%ADD36R,0.800000X1.400000*%
%ADD37R,1.000000X1.000000*%
%ADD38R,1.550000X2.000000*%
%ADD39R,1.500000X1.600000*%
%ADD40C,1.300000*%
%ADD41R,1.050000X1.460000*%
%ADD42R,1.800000X1.800000*%
%ADD43R,1.460000X1.050000*%
%ADD44R,0.800000X1.300000*%
%ADD45R,1.050000X1.960000*%
%ADD46R,1.050000X2.000000*%
%ADD47R,2.000000X1.050000*%
%ADD48R,1.300000X0.900000*%
%ADD49R,0.650000X1.300000*%
%ADD50R,1.300000X0.650000*%
%ADD51R,3.600000X3.600000*%
%ADD52R,0.900000X1.300000*%
%ADD53R,3.300000X4.900000*%
G04 APERTURE END LIST*
D10*
D11*
X67450000Y-43572000D03*
X66180000Y-43572000D03*
X64910000Y-43572000D03*
X63640000Y-43572000D03*
X62370000Y-43572000D03*
X61100000Y-43572000D03*
X59830000Y-43572000D03*
X58560000Y-43572000D03*
X58560000Y-52430000D03*
X59830000Y-52430000D03*
X61100000Y-52430000D03*
X62370000Y-52430000D03*
X63640000Y-52430000D03*
X64910000Y-52430000D03*
X66180000Y-52430000D03*
X67450000Y-52430000D03*
D12*
X39700000Y-54100000D03*
X39700000Y-57100000D03*
D13*
X65400000Y-39550000D03*
X65400000Y-41050000D03*
X69000000Y-37750000D03*
X69000000Y-36250000D03*
D12*
X45300000Y-49900000D03*
X45300000Y-52900000D03*
D13*
X69000000Y-42450000D03*
X69000000Y-43950000D03*
D14*
X53900000Y-52500000D03*
X56900000Y-52500000D03*
X41600000Y-59400000D03*
X38600000Y-59400000D03*
D13*
X27100000Y-48050000D03*
X27100000Y-46550000D03*
D15*
X28500000Y-60000000D03*
X27000000Y-60000000D03*
D13*
X43900000Y-64150000D03*
X43900000Y-62650000D03*
D15*
X43800000Y-60500000D03*
X45300000Y-60500000D03*
X28900000Y-32600000D03*
X27400000Y-32600000D03*
D16*
X36000000Y-57800000D03*
X36000000Y-55800000D03*
D15*
X27000000Y-49900000D03*
X28500000Y-49900000D03*
D13*
X37200000Y-35743492D03*
X37200000Y-37243492D03*
X46400000Y-21200000D03*
X46400000Y-22700000D03*
X39200000Y-37243492D03*
X39200000Y-35743492D03*
D15*
X39250000Y-31800000D03*
X40750000Y-31800000D03*
D13*
X42500000Y-28250000D03*
X42500000Y-26750000D03*
X69000000Y-52150000D03*
X69000000Y-53650000D03*
D17*
X25850980Y-64050000D03*
X27949020Y-64050000D03*
D18*
X48300000Y-64000000D03*
X48300000Y-68600000D03*
D19*
X31500000Y-63250000D03*
X36100000Y-63250000D03*
D17*
X31049020Y-42800000D03*
X28950980Y-42800000D03*
D20*
X54800000Y-35700000D03*
X54800000Y-42500000D03*
D21*
X55580000Y-60000000D03*
X56600000Y-61780000D03*
X57620000Y-60000000D03*
X58640000Y-61780000D03*
X59660000Y-60000000D03*
X60680000Y-61780000D03*
X61700000Y-60000000D03*
X62720000Y-61780000D03*
D22*
X67350000Y-60760000D03*
X50950000Y-60760000D03*
D23*
X52800000Y-64320000D03*
X65500000Y-64320000D03*
D24*
X43700000Y-47100000D03*
X40700000Y-47100000D03*
X41600000Y-62650000D03*
X38600000Y-62650000D03*
D25*
X21600000Y-23480000D03*
D26*
X21600000Y-26020000D03*
X21600000Y-28560000D03*
X21600000Y-31100000D03*
X21600000Y-33640000D03*
X21600000Y-36180000D03*
X21600000Y-38720000D03*
X21600000Y-41260000D03*
X21600000Y-43800000D03*
X21600000Y-46340000D03*
X21600000Y-48880000D03*
X21600000Y-51420000D03*
X21600000Y-53960000D03*
X21600000Y-56500000D03*
X21600000Y-59040000D03*
X21600000Y-61580000D03*
D25*
X58346000Y-40868000D03*
D26*
X58346000Y-35788000D03*
X60886000Y-38328000D03*
X58346000Y-38328000D03*
D27*
X31600000Y-28300000D03*
X29600000Y-28300000D03*
D28*
X34200000Y-22500000D03*
X27000000Y-22500000D03*
D29*
X42000900Y-24500000D03*
X41350900Y-24500000D03*
X40700900Y-24500000D03*
X40050900Y-24500000D03*
X39400900Y-24500000D03*
D30*
X43200900Y-24500000D03*
X38200900Y-24500000D03*
D31*
X44200900Y-21800000D03*
X37200900Y-21800000D03*
D32*
X57528000Y-33067000D03*
X60068000Y-33067000D03*
X62100000Y-33067000D03*
X64640000Y-33067000D03*
D33*
X54480000Y-30400000D03*
X68196000Y-30400000D03*
D34*
X31000000Y-40600000D03*
X33200000Y-40600000D03*
X33500000Y-32600000D03*
X31300000Y-32600000D03*
D35*
X44800000Y-30900000D03*
X44800000Y-28700000D03*
X46700000Y-28700000D03*
X46700000Y-30900000D03*
D34*
X52200000Y-24200000D03*
X50000000Y-24200000D03*
D36*
X28700000Y-66150000D03*
X27200000Y-66150000D03*
X24300000Y-66150000D03*
D37*
X22900000Y-66950000D03*
X22900000Y-69050000D03*
X30100000Y-69050000D03*
X30100000Y-66950000D03*
D38*
X36200000Y-67300000D03*
X32800000Y-67300000D03*
D39*
X32100000Y-69000000D03*
X36900000Y-69000000D03*
D40*
X35350000Y-69000000D03*
X33650000Y-69000000D03*
D41*
X43300000Y-49900000D03*
X42350000Y-49900000D03*
X41400000Y-49900000D03*
X41400000Y-52100000D03*
X43300000Y-52100000D03*
D42*
X24800000Y-27100000D03*
D21*
X24800000Y-29100000D03*
X24800000Y-31100000D03*
X24800000Y-33100000D03*
X24800000Y-35100000D03*
X24800000Y-37100000D03*
X24800000Y-39100000D03*
X24800000Y-41100000D03*
X24800000Y-43100000D03*
X24800000Y-45100000D03*
X24800000Y-47100000D03*
X24800000Y-49100000D03*
X24800000Y-51100000D03*
X24800000Y-53100000D03*
X24800000Y-55100000D03*
X24800000Y-57100000D03*
X49200000Y-57100000D03*
X49200000Y-55100000D03*
X49200000Y-53100000D03*
X49200000Y-51100000D03*
X49200000Y-49100000D03*
X49200000Y-47100000D03*
X49200000Y-45100000D03*
X49200000Y-43100000D03*
X49200000Y-41100000D03*
X49200000Y-39100000D03*
X49200000Y-37100000D03*
X49200000Y-35100000D03*
X49200000Y-33100000D03*
X49200000Y-31100000D03*
X49200000Y-29100000D03*
D42*
X49200000Y-27100000D03*
D43*
X28900000Y-46450000D03*
X28900000Y-47400000D03*
X28900000Y-48350000D03*
X31100000Y-48350000D03*
X31100000Y-46450000D03*
D44*
X30325000Y-59900000D03*
X30975000Y-59900000D03*
X31625000Y-59900000D03*
X32275000Y-59900000D03*
X32275000Y-55500000D03*
X31625000Y-55500000D03*
X30975000Y-55500000D03*
X30325000Y-55500000D03*
X28980000Y-34400000D03*
X28330000Y-34400000D03*
X27670000Y-34400000D03*
X27020000Y-34400000D03*
X27020000Y-40800000D03*
X27670000Y-40800000D03*
X28330000Y-40800000D03*
X28980000Y-40800000D03*
D45*
X31250000Y-37550000D03*
X32200000Y-37550000D03*
X33150000Y-37550000D03*
X33150000Y-34850000D03*
X31250000Y-34850000D03*
X32200000Y-34850000D03*
D46*
X39900000Y-29700000D03*
X40850000Y-29700000D03*
X38950000Y-29700000D03*
X39900000Y-27000000D03*
X40850000Y-27000000D03*
X38950000Y-27000000D03*
D47*
X49150000Y-21750000D03*
X49150000Y-22700000D03*
X49150000Y-20800000D03*
X51850000Y-21750000D03*
X51850000Y-22700000D03*
X51850000Y-20800000D03*
D48*
X69000000Y-41050000D03*
X69000000Y-39550000D03*
X65400000Y-37800000D03*
X65400000Y-36300000D03*
X67200000Y-41050000D03*
X67200000Y-39550000D03*
X67200000Y-37800000D03*
X67200000Y-36300000D03*
X55600000Y-50350000D03*
X55600000Y-48850000D03*
X53800000Y-50350000D03*
X53800000Y-48850000D03*
D25*
X51400000Y-26900000D03*
D26*
X51400000Y-29440000D03*
X51400000Y-31980000D03*
X51400000Y-34520000D03*
X51400000Y-37060000D03*
X51400000Y-39600000D03*
X51400000Y-42140000D03*
D48*
X26800000Y-54000000D03*
X26800000Y-52500000D03*
X28650000Y-54000000D03*
X28650000Y-52500000D03*
D49*
X41000000Y-39300000D03*
X40500000Y-39300000D03*
X40000000Y-39300000D03*
X39500000Y-39300000D03*
X39000000Y-39300000D03*
X38500000Y-39300000D03*
X38000000Y-39300000D03*
X40500000Y-44100000D03*
X40000000Y-44100000D03*
X38500000Y-44100000D03*
X41000000Y-44100000D03*
X39500000Y-44100000D03*
X38000000Y-44100000D03*
X39000000Y-44100000D03*
D50*
X41900000Y-41700000D03*
X41900000Y-42200000D03*
X41900000Y-42700000D03*
X41900000Y-43200000D03*
X41900000Y-41200000D03*
X41900000Y-40700000D03*
X41900000Y-40200000D03*
X37100000Y-40200000D03*
X37100000Y-40700000D03*
X37100000Y-41200000D03*
X37100000Y-41700000D03*
X37100000Y-42200000D03*
X37100000Y-43200000D03*
X37100000Y-42700000D03*
D51*
X39500000Y-41700000D03*
D13*
X45800000Y-55550000D03*
X45800000Y-57050000D03*
D48*
X39700000Y-50350000D03*
X39700000Y-51850000D03*
X41800000Y-56650000D03*
X41800000Y-55150000D03*
X43600000Y-56650000D03*
X43600000Y-55150000D03*
D52*
X23050000Y-64200000D03*
X21550000Y-64200000D03*
X39250000Y-68950000D03*
X40750000Y-68950000D03*
X34550000Y-59800000D03*
X36050000Y-59800000D03*
D48*
X28700000Y-57850000D03*
X28700000Y-56350000D03*
X33000000Y-43150000D03*
X33000000Y-44650000D03*
X26900000Y-57850000D03*
X26900000Y-56350000D03*
X43900000Y-67850000D03*
X43900000Y-66350000D03*
X47000000Y-59950000D03*
X47000000Y-61450000D03*
X27000000Y-42950000D03*
X27000000Y-44450000D03*
D52*
X29250000Y-44800000D03*
X30750000Y-44800000D03*
D48*
X34000000Y-56050000D03*
X34000000Y-57550000D03*
D52*
X44700000Y-42550000D03*
X46200000Y-42550000D03*
D48*
X46400000Y-45600000D03*
X46400000Y-47100000D03*
X46300000Y-24750000D03*
X46300000Y-26250000D03*
X35258698Y-37793492D03*
X35258698Y-39293492D03*
X37300000Y-30850000D03*
X37300000Y-32350000D03*
X42500000Y-32350000D03*
X42500000Y-30850000D03*
X44341302Y-40206508D03*
X44341302Y-38706508D03*
X46141302Y-38706508D03*
X46141302Y-40206508D03*
X46141302Y-34406508D03*
X46141302Y-35906508D03*
X44341302Y-35906508D03*
X44341302Y-34406508D03*
D43*
X38950000Y-65400000D03*
X38950000Y-66350000D03*
X38950000Y-67300000D03*
X41150000Y-67300000D03*
X41150000Y-65400000D03*
X41150000Y-66350000D03*
D53*
X35550000Y-51900000D03*
X31450000Y-51900000D03*
M02*
